NotoSansGujarati-Bold.ufo
<glyph name="exclam.gujr" format="2">
  <advance width="429"/>
  <unicode hex="0021"/>
  <outline>
    <contour>
      <point x="147" y="252" type="line"/>
      <point x="308" y="252" type="line"/>
      <point x="333" y="714" type="line"/>
      <point x="122" y="714" type="line"/>
    </contour>
    <contour>
      <point x="227" y="-12" type="curve" smooth="yes"/>
      <point x="282" y="-12"/>
      <point x="328" y="15"/>
      <point x="328" y="81" type="curve" smooth="yes"/>
      <point x="328" y="150"/>
      <point x="282" y="175"/>
      <point x="227" y="175" type="curve" smooth="yes"/>
      <point x="171" y="175"/>
      <point x="124" y="150"/>
      <point x="124" y="81" type="curve" smooth="yes"/>
      <point x="124" y="15"/>
      <point x="171" y="-12"/>
    </contour>
  </outline>
</glyph>
<glyph name="quotesingle.gujr" format="2">
  <advance width="348"/>
  <unicode hex="0027"/>
  <outline>
    <contour>
      <point x="114" y="471" type="line"/>
      <point x="248" y="471" type="line"/>
      <point x="268" y="729" type="line"/>
      <point x="94" y="729" type="line"/>
    </contour>
  </outline>
</glyph>
<glyph name="plus.gujr" format="2">
  <advance width="592"/>
  <unicode hex="002B"/>
  <outline>
    <contour>
      <point x="230" y="88" type="line"/>
      <point x="364" y="88" type="line"/>
      <point x="364" y="259" type="line"/>
      <point x="535" y="259" type="line"/>
      <point x="535" y="388" type="line"/>
      <point x="364" y="388" type="line"/>
      <point x="364" y="563" type="line"/>
      <point x="230" y="563" type="line"/>
      <point x="230" y="388" type="line"/>
      <point x="59" y="388" type="line"/>
      <point x="59" y="259" type="line"/>
      <point x="230" y="259" type="line"/>
    </contour>
  </outline>
</glyph>
<glyph name="comma.gujr" format="2">
  <advance width="309"/>
  <unicode hex="002C"/>
  <outline>
    <contour>
      <point x="41" y="-139" type="curve"/>
      <point x="177" y="-139" type="line"/>
      <point x="210" y="-65"/>
      <point x="245" y="63"/>
      <point x="263" y="135" type="curve"/>
      <point x="256" y="146" type="line"/>
      <point x="89" y="146" type="line"/>
      <point x="80" y="66"/>
      <point x="60" y="-48"/>
    </contour>
  </outline>
</glyph>
<glyph name="period.gujr" format="2">
  <advance width="299"/>
  <unicode hex="002E"/>
  <outline>
    <contour>
      <point x="161" y="-12" type="curve" smooth="yes"/>
      <point x="215" y="-12"/>
      <point x="261" y="15"/>
      <point x="261" y="81" type="curve" smooth="yes"/>
      <point x="261" y="150"/>
      <point x="215" y="175"/>
      <point x="161" y="175" type="curve" smooth="yes"/>
      <point x="104" y="175"/>
      <point x="57" y="150"/>
      <point x="57" y="81" type="curve" smooth="yes"/>
      <point x="57" y="15"/>
      <point x="104" y="-12"/>
    </contour>
  </outline>
</glyph>
<glyph name="less.gujr" format="2">
  <advance width="592"/>
  <unicode hex="003C"/>
  <outline>
    <contour>
      <point x="535" y="65" type="line"/>
      <point x="535" y="210" type="line"/>
      <point x="255" y="332" type="line"/>
      <point x="535" y="471" type="line"/>
      <point x="535" y="616" type="line"/>
      <point x="59" y="369" type="line"/>
      <point x="59" y="284" type="line"/>
    </contour>
  </outline>
</glyph>
<glyph name="equal.gujr" format="2">
  <advance width="592"/>
  <unicode hex="003D"/>
  <outline>
    <contour>
      <point x="59" y="354" type="line"/>
      <point x="535" y="354" type="line"/>
      <point x="535" y="484" type="line"/>
      <point x="59" y="484" type="line"/>
    </contour>
    <contour>
      <point x="59" y="162" type="line"/>
      <point x="535" y="162" type="line"/>
      <point x="535" y="293" type="line"/>
      <point x="59" y="293" type="line"/>
    </contour>
  </outline>
</glyph>
<glyph name="greater.gujr" format="2">
  <advance width="592"/>
  <unicode hex="003E"/>
  <outline>
    <contour>
      <point x="59" y="65" type="line"/>
      <point x="535" y="284" type="line"/>
      <point x="535" y="369" type="line"/>
      <point x="59" y="616" type="line"/>
      <point x="59" y="471" type="line"/>
      <point x="339" y="332" type="line"/>
      <point x="59" y="210" type="line"/>
    </contour>
  </outline>
</glyph>
<glyph name="asciicircum.gujr" format="2">
  <advance width="592"/>
  <unicode hex="005E"/>
  <outline>
    <contour>
      <point x="20" y="244" type="line"/>
      <point x="168" y="244" type="line"/>
      <point x="297" y="525" type="line"/>
      <point x="425" y="244" type="line"/>
      <point x="574" y="244" type="line"/>
      <point x="340" y="717" type="line"/>
      <point x="254" y="717" type="line"/>
    </contour>
  </outline>
</glyph>
<glyph name="bar.gujr" format="2">
  <advance width="541"/>
  <unicode hex="007C"/>
  <outline>
    <contour>
      <point x="203" y="832" type="line"/>
      <point x="203" y="-166" type="line"/>
      <point x="338" y="-166" type="line"/>
      <point x="338" y="832" type="line"/>
    </contour>
  </outline>
</glyph>
<glyph name="braceright.gujr" format="2">
  <advance width="459"/>
  <unicode hex="007D"/>
  <outline>
    <contour>
      <point x="49" y="-166" type="line"/>
      <point x="254" y="-166"/>
      <point x="300" y="-115"/>
      <point x="300" y="2" type="curve" smooth="yes"/>
      <point x="300" y="170" type="line" smooth="yes"/>
      <point x="300" y="230"/>
      <point x="360" y="253"/>
      <point x="420" y="253" type="curve"/>
      <point x="420" y="400" type="line"/>
      <point x="358" y="400"/>
      <point x="300" y="422"/>
      <point x="300" y="483" type="curve" smooth="yes"/>
      <point x="300" y="666" type="line" smooth="yes"/>
      <point x="300" y="780"/>
      <point x="257" y="832"/>
      <point x="49" y="832" type="curve"/>
      <point x="49" y="696" type="line"/>
      <point x="114" y="696"/>
      <point x="142" y="674"/>
      <point x="142" y="624" type="curve" smooth="yes"/>
      <point x="142" y="453" type="line" smooth="yes"/>
      <point x="142" y="372"/>
      <point x="185" y="340"/>
      <point x="259" y="330" type="curve"/>
      <point x="259" y="324" type="line"/>
      <point x="183" y="312"/>
      <point x="142" y="280"/>
      <point x="142" y="204" type="curve" smooth="yes"/>
      <point x="142" y="42" type="line" smooth="yes"/>
      <point x="142" y="-7"/>
      <point x="112" y="-30"/>
      <point x="49" y="-30" type="curve"/>
    </contour>
  </outline>
</glyph>
<glyph name="asciitilde.gujr" format="2">
  <advance width="592"/>
  <unicode hex="007E"/>
  <outline>
    <contour>
      <point x="59" y="366" type="curve"/>
      <point x="59" y="229" type="line"/>
      <point x="95" y="260"/>
      <point x="136" y="288"/>
      <point x="175" y="288" type="curve" smooth="yes"/>
      <point x="205" y="288"/>
      <point x="229" y="280"/>
      <point x="279" y="259" type="curve" smooth="yes"/>
      <point x="342" y="233"/>
      <point x="367" y="230"/>
      <point x="407" y="230" type="curve" smooth="yes"/>
      <point x="459" y="230"/>
      <point x="502" y="246"/>
      <point x="535" y="283" type="curve"/>
      <point x="535" y="420" type="line"/>
      <point x="501" y="387"/>
      <point x="460" y="361"/>
      <point x="419" y="361" type="curve" smooth="yes"/>
      <point x="391" y="361"/>
      <point x="364" y="368"/>
      <point x="315" y="388" type="curve" smooth="yes"/>
      <point x="253" y="413"/>
      <point x="227" y="419"/>
      <point x="187" y="419" type="curve" smooth="yes"/>
      <point x="135" y="419"/>
      <point x="92" y="400"/>
    </contour>
  </outline>
</glyph>
<glyph name="multiply.gujr" format="2">
  <advance width="592"/>
  <unicode hex="00D7"/>
  <outline>
    <contour>
      <point x="157" y="94" type="line"/>
      <point x="297" y="236" type="line"/>
      <point x="437" y="94" type="line"/>
      <point x="529" y="184" type="line"/>
      <point x="389" y="326" type="line"/>
      <point x="530" y="467" type="line"/>
      <point x="437" y="559" type="line"/>
      <point x="297" y="417" type="line"/>
      <point x="157" y="559" type="line"/>
      <point x="64" y="467" type="line"/>
      <point x="205" y="326" type="line"/>
      <point x="65" y="184" type="line"/>
    </contour>
  </outline>
</glyph>
<glyph name="divide.gujr" format="2">
  <advance width="592"/>
  <unicode hex="00F7"/>
  <outline>
    <contour>
      <point x="59" y="259" type="line"/>
      <point x="535" y="259" type="line"/>
      <point x="535" y="388" type="line"/>
      <point x="59" y="388" type="line"/>
    </contour>
    <contour>
      <point x="297" y="68" type="curve" smooth="yes"/>
      <point x="338" y="68"/>
      <point x="374" y="91"/>
      <point x="374" y="151" type="curve" smooth="yes"/>
      <point x="374" y="213"/>
      <point x="338" y="234"/>
      <point x="297" y="234" type="curve" smooth="yes"/>
      <point x="255" y="234"/>
      <point x="219" y="213"/>
      <point x="219" y="151" type="curve" smooth="yes"/>
      <point x="219" y="91"/>
      <point x="255" y="68"/>
    </contour>
    <contour>
      <point x="297" y="409" type="curve" smooth="yes"/>
      <point x="338" y="409"/>
      <point x="374" y="432"/>
      <point x="374" y="492" type="curve" smooth="yes"/>
      <point x="374" y="552"/>
      <point x="338" y="575"/>
      <point x="297" y="575" type="curve" smooth="yes"/>
      <point x="255" y="575"/>
      <point x="219" y="552"/>
      <point x="219" y="492" type="curve" smooth="yes"/>
      <point x="219" y="432"/>
      <point x="255" y="409"/>
    </contour>
  </outline>
</glyph>
<glyph name="dbldanda.gujr" format="2">
  <advance width="673"/>
  <unicode hex="0965"/>
  <outline>
    <contour>
      <point x="419" y="0" type="line"/>
      <point x="596" y="0" type="line"/>
      <point x="596" y="597" type="line"/>
      <point x="419" y="597" type="line"/>
    </contour>
    <contour>
      <point x="165" y="0" type="line"/>
      <point x="342" y="0" type="line"/>
      <point x="342" y="597" type="line"/>
      <point x="165" y="597" type="line"/>
    </contour>
  </outline>
</glyph>
<glyph name="candrabindugujr" format="2">
  <unicode hex="0A81"/>
  <outline>
    <contour>
      <point x="-168" y="618" type="curve" smooth="yes"/>
      <point x="-42" y="618"/>
      <point x="40" y="683"/>
      <point x="82" y="805" type="curve"/>
      <point x="-44" y="850" type="line"/>
      <point x="-68" y="772"/>
      <point x="-109" y="734"/>
      <point x="-168" y="734" type="curve" smooth="yes"/>
      <point x="-227" y="734"/>
      <point x="-268" y="772"/>
      <point x="-292" y="850" type="curve"/>
      <point x="-418" y="805" type="line"/>
      <point x="-377" y="683"/>
      <point x="-294" y="618"/>
    </contour>
    <contour>
      <point x="-168" y="756" type="curve" smooth="yes"/>
      <point x="-129" y="756"/>
      <point x="-98" y="787"/>
      <point x="-98" y="826" type="curve" smooth="yes"/>
      <point x="-98" y="865"/>
      <point x="-129" y="896"/>
      <point x="-168" y="896" type="curve" smooth="yes"/>
      <point x="-207" y="896"/>
      <point x="-238" y="865"/>
      <point x="-238" y="826" type="curve" smooth="yes"/>
      <point x="-238" y="787"/>
      <point x="-207" y="756"/>
    </contour>
  </outline>
</glyph>
<glyph name="anusvaragujr" format="2">
  <unicode hex="0A82"/>
  <outline>
    <contour>
      <point x="-164" y="683" type="curve" smooth="yes"/>
      <point x="-113" y="683"/>
      <point x="-75" y="721"/>
      <point x="-75" y="770" type="curve" smooth="yes"/>
      <point x="-75" y="825"/>
      <point x="-113" y="860"/>
      <point x="-164" y="860" type="curve" smooth="yes"/>
      <point x="-216" y="860"/>
      <point x="-254" y="825"/>
      <point x="-254" y="770" type="curve" smooth="yes"/>
      <point x="-254" y="721"/>
      <point x="-216" y="683"/>
    </contour>
  </outline>
</glyph>
<glyph name="visargagujr" format="2">
  <advance width="286"/>
  <unicode hex="0A83"/>
  <outline>
    <contour>
      <point x="143" y="331" type="curve" smooth="yes"/>
      <point x="196" y="331"/>
      <point x="235" y="372"/>
      <point x="235" y="424" type="curve" smooth="yes"/>
      <point x="235" y="476"/>
      <point x="196" y="518"/>
      <point x="143" y="518" type="curve" smooth="yes"/>
      <point x="90" y="518"/>
      <point x="51" y="476"/>
      <point x="51" y="424" type="curve" smooth="yes"/>
      <point x="51" y="372"/>
      <point x="90" y="331"/>
    </contour>
    <contour>
      <point x="143" y="41" type="curve" smooth="yes"/>
      <point x="196" y="41"/>
      <point x="235" y="82"/>
      <point x="235" y="134" type="curve" smooth="yes"/>
      <point x="235" y="186"/>
      <point x="196" y="228"/>
      <point x="143" y="228" type="curve" smooth="yes"/>
      <point x="90" y="228"/>
      <point x="51" y="186"/>
      <point x="51" y="134" type="curve" smooth="yes"/>
      <point x="51" y="82"/>
      <point x="90" y="41"/>
    </contour>
  </outline>
</glyph>
<glyph name="aagujr" format="2">
  <advance width="1291"/>
  <unicode hex="0A86"/>
  <outline>
    <contour>
      <point x="364" y="88" type="curve" smooth="yes"/>
      <point x="550" y="88"/>
      <point x="654" y="179"/>
      <point x="654" y="378" type="curve" smooth="yes"/>
      <point x="654" y="450" type="line"/>
      <point x="477" y="460" type="line"/>
      <point x="477" y="377" type="line" smooth="yes"/>
      <point x="477" y="318"/>
      <point x="466" y="285"/>
      <point x="446" y="261" type="curve" smooth="yes"/>
      <point x="425" y="236"/>
      <point x="398" y="226"/>
      <point x="354" y="226" type="curve" smooth="yes"/>
      <point x="312" y="226"/>
      <point x="276" y="249"/>
      <point x="249" y="291" type="curve"/>
      <point x="234" y="316" type="line"/>
      <point x="204" y="350"/>
      <point x="167" y="379"/>
      <point x="108" y="379" type="curve" smooth="yes"/>
      <point x="54" y="379"/>
      <point x="17" y="346"/>
      <point x="17" y="295" type="curve" smooth="yes"/>
      <point x="17" y="230"/>
      <point x="68" y="201"/>
      <point x="141" y="201" type="curve" smooth="yes"/>
      <point x="297" y="201"/>
      <point x="409" y="295"/>
      <point x="409" y="414" type="curve" smooth="yes"/>
      <point x="409" y="530"/>
      <point x="321" y="602"/>
      <point x="181" y="602" type="curve" smooth="yes"/>
      <point x="128" y="602"/>
      <point x="80" y="592"/>
      <point x="27" y="572" type="curve"/>
      <point x="77" y="446" type="line"/>
      <point x="105" y="458"/>
      <point x="129" y="464"/>
      <point x="157" y="464" type="curve" smooth="yes"/>
      <point x="205" y="464"/>
      <point x="232" y="442"/>
      <point x="232" y="405" type="curve" smooth="yes"/>
      <point x="232" y="364"/>
      <point x="200" y="340"/>
      <point x="138" y="333" type="curve"/>
      <point x="107" y="232" type="line"/>
      <point x="161" y="147"/>
      <point x="250" y="88"/>
    </contour>
    <contour>
      <point x="673" y="192" type="curve" smooth="yes"/>
      <point x="714" y="192"/>
      <point x="743" y="205"/>
      <point x="761" y="230" type="curve"/>
      <point x="744" y="377" type="line"/>
      <point x="731" y="347"/>
      <point x="709" y="330"/>
      <point x="682" y="330" type="curve" smooth="yes"/>
      <point x="663" y="330"/>
      <point x="652" y="338"/>
      <point x="644" y="351" type="curve"/>
      <point x="559" y="247" type="line"/>
      <point x="585" y="209"/>
      <point x="623" y="192"/>
    </contour>
    <contour>
      <point x="919" y="0" type="curve" smooth="yes"/>
      <point x="959" y="0" type="line"/>
      <point x="972" y="138" type="line"/>
      <point x="943" y="138"/>
      <point x="926" y="141"/>
      <point x="915" y="151" type="curve" smooth="yes"/>
      <point x="903" y="162"/>
      <point x="900" y="180"/>
      <point x="900" y="209" type="curve" smooth="yes"/>
      <point x="900" y="592" type="line"/>
      <point x="723" y="602" type="line"/>
      <point x="723" y="194" type="line" smooth="yes"/>
      <point x="723" y="122"/>
      <point x="736" y="74"/>
      <point x="767" y="43" type="curve" smooth="yes"/>
      <point x="798" y="12"/>
      <point x="847" y="0"/>
    </contour>
    <contour>
      <point x="1235" y="0" type="curve" smooth="yes"/>
      <point x="1275" y="0" type="line"/>
      <point x="1288" y="138" type="line"/>
      <point x="1259" y="138"/>
      <point x="1242" y="141"/>
      <point x="1231" y="151" type="curve" smooth="yes"/>
      <point x="1219" y="162"/>
      <point x="1216" y="180"/>
      <point x="1216" y="209" type="curve" smooth="yes"/>
      <point x="1216" y="592" type="line"/>
      <point x="1039" y="602" type="line"/>
      <point x="1039" y="194" type="line" smooth="yes"/>
      <point x="1039" y="121"/>
      <point x="1052" y="73"/>
      <point x="1084" y="42" type="curve" smooth="yes"/>
      <point x="1115" y="12"/>
      <point x="1164" y="0"/>
    </contour>
  </outline>
</glyph>
<glyph name="igujr" format="2">
  <advance width="691"/>
  <unicode hex="0A87"/>
  <guideline x="517" y="728" angle="0"/>
  <outline>
    <contour>
      <point x="344" y="-10" type="curve" smooth="yes"/>
      <point x="529" y="-10"/>
      <point x="667" y="90"/>
      <point x="667" y="245" type="curve" smooth="yes"/>
      <point x="667" y="299"/>
      <point x="657" y="350"/>
      <point x="619" y="418" type="curve" smooth="yes"/>
      <point x="584" y="480"/>
      <point x="572" y="508"/>
      <point x="572" y="539" type="curve" smooth="yes"/>
      <point x="572" y="574"/>
      <point x="591" y="593"/>
      <point x="633" y="621" type="curve"/>
      <point x="521" y="764" type="line"/>
      <point x="428" y="712"/>
      <point x="390" y="658"/>
      <point x="390" y="568" type="curve" smooth="yes"/>
      <point x="390" y="517"/>
      <point x="409" y="467"/>
      <point x="435" y="418" type="curve" smooth="yes"/>
      <point x="468" y="356"/>
      <point x="489" y="309"/>
      <point x="489" y="252" type="curve" smooth="yes"/>
      <point x="489" y="172"/>
      <point x="421" y="128"/>
      <point x="333" y="128" type="curve" smooth="yes"/>
      <point x="269" y="128"/>
      <point x="237" y="146"/>
      <point x="237" y="182" type="curve" smooth="yes"/>
      <point x="237" y="217"/>
      <point x="266" y="232"/>
      <point x="311" y="232" type="curve" smooth="yes"/>
      <point x="324" y="232"/>
      <point x="337" y="231"/>
      <point x="345" y="230" type="curve"/>
      <point x="360" y="367" type="line"/>
      <point x="345" y="369"/>
      <point x="329" y="370"/>
      <point x="314" y="370" type="curve" smooth="yes"/>
      <point x="174" y="370"/>
      <point x="60" y="304"/>
      <point x="60" y="189" type="curve" smooth="yes"/>
      <point x="60" y="69"/>
      <point x="163" y="-10"/>
    </contour>
    <contour>
      <point x="148" y="271" type="curve"/>
      <point x="268" y="350" type="line"/>
      <point x="228" y="370"/>
      <point x="201" y="391"/>
      <point x="201" y="422" type="curve" smooth="yes"/>
      <point x="201" y="449"/>
      <point x="224" y="464"/>
      <point x="261" y="464" type="curve" smooth="yes"/>
      <point x="278" y="464"/>
      <point x="289" y="463"/>
      <point x="306" y="460" type="curve"/>
      <point x="330" y="591" type="line"/>
      <point x="297" y="598"/>
      <point x="269" y="602"/>
      <point x="229" y="602" type="curve" smooth="yes"/>
      <point x="116" y="602"/>
      <point x="24" y="550"/>
      <point x="24" y="444" type="curve" smooth="yes"/>
      <point x="24" y="372"/>
      <point x="73" y="316"/>
    </contour>
  </outline>
</glyph>
<glyph name="iigujr" format="2">
  <advance width="691"/>
  <unicode hex="0A88"/>
  <outline>
    <contour>
      <point x="334" y="-10" type="curve" smooth="yes"/>
      <point x="551" y="-10"/>
      <point x="667" y="98"/>
      <point x="667" y="259" type="curve" smooth="yes"/>
      <point x="667" y="349"/>
      <point x="639" y="422"/>
      <point x="573" y="552" type="curve" smooth="yes"/>
      <point x="530" y="636"/>
      <point x="513" y="677"/>
      <point x="513" y="711" type="curve" smooth="yes"/>
      <point x="513" y="744"/>
      <point x="528" y="764"/>
      <point x="555" y="764" type="curve" smooth="yes"/>
      <point x="584" y="764"/>
      <point x="608" y="740"/>
      <point x="630" y="692" type="curve"/>
      <point x="777" y="756" type="line"/>
      <point x="730" y="844"/>
      <point x="663" y="896"/>
      <point x="546" y="896" type="curve" smooth="yes"/>
      <point x="418" y="896"/>
      <point x="337" y="821"/>
      <point x="337" y="716" type="curve" smooth="yes"/>
      <point x="337" y="656"/>
      <point x="358" y="598"/>
      <point x="424" y="477" type="curve" smooth="yes"/>
      <point x="468" y="396"/>
      <point x="489" y="335"/>
      <point x="489" y="273" type="curve" smooth="yes"/>
      <point x="489" y="180"/>
      <point x="431" y="128"/>
      <point x="327" y="128" type="curve" smooth="yes"/>
      <point x="267" y="128"/>
      <point x="237" y="146"/>
      <point x="237" y="182" type="curve" smooth="yes"/>
      <point x="237" y="217"/>
      <point x="266" y="232"/>
      <point x="311" y="232" type="curve" smooth="yes"/>
      <point x="324" y="232"/>
      <point x="337" y="231"/>
      <point x="345" y="230" type="curve"/>
      <point x="360" y="367" type="line"/>
      <point x="345" y="369"/>
      <point x="329" y="370"/>
      <point x="314" y="370" type="curve" smooth="yes"/>
      <point x="174" y="370"/>
      <point x="60" y="304"/>
      <point x="60" y="189" type="curve" smooth="yes"/>
      <point x="60" y="69"/>
      <point x="161" y="-10"/>
    </contour>
    <contour>
      <point x="148" y="271" type="curve"/>
      <point x="268" y="350" type="line"/>
      <point x="228" y="370"/>
      <point x="201" y="391"/>
      <point x="201" y="422" type="curve" smooth="yes"/>
      <point x="201" y="449"/>
      <point x="224" y="464"/>
      <point x="261" y="464" type="curve" smooth="yes"/>
      <point x="278" y="464"/>
      <point x="289" y="463"/>
      <point x="306" y="460" type="curve"/>
      <point x="330" y="591" type="line"/>
      <point x="297" y="598"/>
      <point x="269" y="602"/>
      <point x="229" y="602" type="curve" smooth="yes"/>
      <point x="116" y="602"/>
      <point x="24" y="550"/>
      <point x="24" y="444" type="curve" smooth="yes"/>
      <point x="24" y="372"/>
      <point x="73" y="316"/>
    </contour>
  </outline>
</glyph>
<glyph name="ugujr" format="2">
  <advance width="703"/>
  <unicode hex="0A89"/>
  <outline>
    <contour>
      <point x="399" y="-10" type="curve" smooth="yes"/>
      <point x="583" y="-10"/>
      <point x="671" y="60"/>
      <point x="671" y="174" type="curve" smooth="yes"/>
      <point x="671" y="262"/>
      <point x="610" y="331"/>
      <point x="504" y="383" type="curve"/>
      <point x="402" y="337" type="line"/>
      <point x="402" y="285" type="line"/>
      <point x="460" y="263"/>
      <point x="494" y="228"/>
      <point x="494" y="189" type="curve" smooth="yes"/>
      <point x="494" y="150"/>
      <point x="462" y="128"/>
      <point x="392" y="128" type="curve" smooth="yes"/>
      <point x="290" y="128"/>
      <point x="215" y="207"/>
      <point x="215" y="391" type="curve" smooth="yes"/>
      <point x="215" y="606"/>
      <point x="311" y="705"/>
      <point x="467" y="705" type="curve" smooth="yes"/>
      <point x="505" y="705"/>
      <point x="543" y="702"/>
      <point x="571" y="695" type="curve"/>
      <point x="597" y="833" type="line"/>
      <point x="561" y="842"/>
      <point x="519" y="847"/>
      <point x="475" y="847" type="curve" smooth="yes"/>
      <point x="188" y="847"/>
      <point x="38" y="674"/>
      <point x="38" y="397" type="curve" smooth="yes"/>
      <point x="38" y="139"/>
      <point x="167" y="-10"/>
    </contour>
    <contour>
      <point x="392" y="240" type="line"/>
      <point x="553" y="249"/>
      <point x="669" y="322"/>
      <point x="669" y="434" type="curve" smooth="yes"/>
      <point x="669" y="532"/>
      <point x="595" y="602"/>
      <point x="471" y="602" type="curve" smooth="yes"/>
      <point x="406" y="602"/>
      <point x="342" y="590"/>
      <point x="290" y="570" type="curve"/>
      <point x="334" y="443" type="line"/>
      <point x="369" y="455"/>
      <point x="404" y="464"/>
      <point x="436" y="464" type="curve" smooth="yes"/>
      <point x="477" y="464"/>
      <point x="494" y="449"/>
      <point x="494" y="426" type="curve" smooth="yes"/>
      <point x="494" y="388"/>
      <point x="440" y="374"/>
      <point x="364" y="368" type="curve"/>
    </contour>
  </outline>
</glyph>
<glyph name="uugujr" format="2">
  <advance width="997"/>
  <unicode hex="0A8A"/>
  <outline>
    <contour>
      <point x="399" y="-10" type="curve" smooth="yes"/>
      <point x="583" y="-10"/>
      <point x="671" y="62"/>
      <point x="671" y="174" type="curve" smooth="yes"/>
      <point x="671" y="256"/>
      <point x="617" y="328"/>
      <point x="504" y="383" type="curve"/>
      <point x="402" y="337" type="line"/>
      <point x="402" y="285" type="line"/>
      <point x="460" y="263"/>
      <point x="494" y="228"/>
      <point x="494" y="189" type="curve" smooth="yes"/>
      <point x="494" y="150"/>
      <point x="462" y="128"/>
      <point x="395" y="128" type="curve" smooth="yes"/>
      <point x="290" y="128"/>
      <point x="215" y="207"/>
      <point x="215" y="382" type="curve" smooth="yes"/>
      <point x="215" y="583"/>
      <point x="303" y="705"/>
      <point x="485" y="705" type="curve" smooth="yes"/>
      <point x="614" y="705"/>
      <point x="698" y="626"/>
      <point x="745" y="508" type="curve"/>
      <point x="745" y="194" type="line" smooth="yes"/>
      <point x="745" y="121"/>
      <point x="758" y="73"/>
      <point x="790" y="42" type="curve" smooth="yes"/>
      <point x="821" y="12"/>
      <point x="870" y="0"/>
      <point x="941" y="0" type="curve" smooth="yes"/>
      <point x="981" y="0" type="line"/>
      <point x="994" y="138" type="line"/>
      <point x="965" y="138"/>
      <point x="948" y="141"/>
      <point x="937" y="151" type="curve" smooth="yes"/>
      <point x="925" y="162"/>
      <point x="922" y="180"/>
      <point x="922" y="209" type="curve" smooth="yes"/>
      <point x="922" y="561" type="line"/>
      <point x="847" y="735"/>
      <point x="709" y="847"/>
      <point x="483" y="847" type="curve" smooth="yes"/>
      <point x="210" y="847"/>
      <point x="38" y="677"/>
      <point x="38" y="391" type="curve" smooth="yes"/>
      <point x="38" y="139"/>
      <point x="167" y="-10"/>
    </contour>
    <contour>
      <point x="392" y="240" type="line"/>
      <point x="553" y="249"/>
      <point x="669" y="322"/>
      <point x="669" y="434" type="curve" smooth="yes"/>
      <point x="669" y="532"/>
      <point x="595" y="602"/>
      <point x="464" y="602" type="curve" smooth="yes"/>
      <point x="406" y="602"/>
      <point x="342" y="590"/>
      <point x="290" y="570" type="curve"/>
      <point x="334" y="443" type="line"/>
      <point x="369" y="455"/>
      <point x="404" y="464"/>
      <point x="436" y="464" type="curve" smooth="yes"/>
      <point x="477" y="464"/>
      <point x="494" y="449"/>
      <point x="494" y="426" type="curve" smooth="yes"/>
      <point x="494" y="388"/>
      <point x="440" y="374"/>
      <point x="364" y="368" type="curve"/>
    </contour>
  </outline>
</glyph>
<glyph name="rvocalicgujr" format="2">
  <advance width="957"/>
  <unicode hex="0A8B"/>
  <outline>
    <contour>
      <point x="793" y="57" type="line"/>
      <point x="884" y="109"/>
      <point x="933" y="162"/>
      <point x="933" y="238" type="curve" smooth="yes"/>
      <point x="933" y="304"/>
      <point x="898" y="362"/>
      <point x="840" y="427" type="curve"/>
      <point x="784" y="445" type="line"/>
      <point x="754" y="427"/>
      <point x="728" y="419"/>
      <point x="697" y="419" type="curve" smooth="yes"/>
      <point x="644" y="419"/>
      <point x="601" y="450"/>
      <point x="559" y="517" type="curve"/>
      <point x="546" y="342" type="line"/>
      <point x="590" y="304"/>
      <point x="655" y="282"/>
      <point x="707" y="282" type="curve" smooth="yes"/>
      <point x="825" y="282"/>
      <point x="910" y="340"/>
      <point x="910" y="430" type="curve" smooth="yes"/>
      <point x="910" y="491"/>
      <point x="869" y="538"/>
      <point x="802" y="538" type="curve" smooth="yes"/>
      <point x="738" y="538"/>
      <point x="699" y="500"/>
      <point x="699" y="450" type="curve" smooth="yes"/>
      <point x="699" y="422"/>
      <point x="711" y="392"/>
      <point x="734" y="369" type="curve"/>
      <point x="734" y="329" type="line"/>
      <point x="757" y="307"/>
      <point x="771" y="281"/>
      <point x="771" y="253" type="curve" smooth="yes"/>
      <point x="771" y="219"/>
      <point x="752" y="198"/>
      <point x="713" y="178" type="curve"/>
    </contour>
    <contour>
      <point x="194" y="79" type="line"/>
      <point x="524" y="305" type="line"/>
      <point x="454" y="422" type="line"/>
      <point x="96" y="227" type="line"/>
    </contour>
    <contour>
      <point x="316" y="327" type="curve"/>
      <point x="433" y="399" type="line"/>
      <point x="360" y="501"/>
      <point x="300" y="562"/>
      <point x="182" y="562" type="curve" smooth="yes"/>
      <point x="114" y="562"/>
      <point x="58" y="543"/>
      <point x="9" y="521" type="curve"/>
      <point x="58" y="395" type="line"/>
      <point x="96" y="412"/>
      <point x="133" y="424"/>
      <point x="171" y="424" type="curve" smooth="yes"/>
      <point x="238" y="424"/>
      <point x="271" y="388"/>
    </contour>
    <contour>
      <point x="626" y="0" type="curve" smooth="yes"/>
      <point x="666" y="0" type="line"/>
      <point x="679" y="138" type="line"/>
      <point x="650" y="138"/>
      <point x="633" y="141"/>
      <point x="622" y="151" type="curve" smooth="yes"/>
      <point x="610" y="162"/>
      <point x="607" y="180"/>
      <point x="607" y="209" type="curve" smooth="yes"/>
      <point x="607" y="592" type="line"/>
      <point x="430" y="602" type="line"/>
      <point x="430" y="194" type="line" smooth="yes"/>
      <point x="430" y="121"/>
      <point x="443" y="73"/>
      <point x="475" y="42" type="curve" smooth="yes"/>
      <point x="506" y="12"/>
      <point x="555" y="0"/>
    </contour>
  </outline>
</glyph>
<glyph name="lvocalicgujr" format="2">
  <advance width="800"/>
  <unicode hex="0A8C"/>
  <outline>
    <contour>
      <point x="215" y="4" type="curve"/>
      <point x="333" y="119" type="line"/>
      <point x="248" y="185"/>
      <point x="203" y="233"/>
      <point x="203" y="281" type="curve" smooth="yes"/>
      <point x="203" y="313"/>
      <point x="224" y="334"/>
      <point x="260" y="334" type="curve" smooth="yes"/>
      <point x="307" y="334"/>
      <point x="341" y="297"/>
      <point x="377" y="256" type="curve"/>
      <point x="457" y="375" type="line"/>
      <point x="387" y="438"/>
      <point x="316" y="472"/>
      <point x="231" y="472" type="curve" smooth="yes"/>
      <point x="108" y="472"/>
      <point x="26" y="402"/>
      <point x="26" y="294" type="curve" smooth="yes"/>
      <point x="26" y="178"/>
      <point x="109" y="89"/>
    </contour>
    <contour>
      <point x="676" y="-107" type="curve" smooth="yes"/>
      <point x="742" y="-107"/>
      <point x="795" y="-92"/>
      <point x="838" y="-68" type="curve"/>
      <point x="793" y="59" type="line"/>
      <point x="758" y="38"/>
      <point x="722" y="26"/>
      <point x="688" y="26" type="curve" smooth="yes"/>
      <point x="653" y="26"/>
      <point x="632" y="39"/>
      <point x="632" y="64" type="curve" smooth="yes"/>
      <point x="632" y="96"/>
      <point x="665" y="111"/>
      <point x="717" y="120" type="curve"/>
      <point x="682" y="229" type="line"/>
      <point x="541" y="208"/>
      <point x="469" y="145"/>
      <point x="469" y="53" type="curve" smooth="yes"/>
      <point x="469" y="-41"/>
      <point x="550" y="-107"/>
    </contour>
    <contour>
      <point x="717" y="120" type="line"/>
      <point x="753" y="174"/>
      <point x="770" y="227"/>
      <point x="770" y="275" type="curve" smooth="yes"/>
      <point x="770" y="377"/>
      <point x="692" y="469"/>
      <point x="565" y="469" type="curve" smooth="yes"/>
      <point x="411" y="469"/>
      <point x="323" y="379"/>
      <point x="291" y="241" type="curve"/>
      <point x="449" y="197" type="line"/>
      <point x="472" y="293"/>
      <point x="503" y="334"/>
      <point x="547" y="334" type="curve" smooth="yes"/>
      <point x="579" y="334"/>
      <point x="595" y="312"/>
      <point x="595" y="281" type="curve" smooth="yes"/>
      <point x="595" y="238"/>
      <point x="575" y="195"/>
      <point x="545" y="158" type="curve"/>
    </contour>
    <contour>
      <point x="473" y="407" type="line"/>
      <point x="650" y="407" type="line"/>
      <point x="650" y="592" type="line"/>
      <point x="473" y="602" type="line"/>
    </contour>
  </outline>
</glyph>
<glyph name="khagujr" format="2">
  <advance width="850"/>
  <unicode hex="0A96"/>
  <outline>
    <contour>
      <point x="304" y="142" type="curve" smooth="yes"/>
      <point x="448" y="142"/>
      <point x="523" y="218"/>
      <point x="523" y="338" type="curve" smooth="yes"/>
      <point x="523" y="482" type="line"/>
      <point x="346" y="492" type="line"/>
      <point x="346" y="342" type="line" smooth="yes"/>
      <point x="346" y="320"/>
      <point x="342" y="302"/>
      <point x="333" y="292" type="curve" smooth="yes"/>
      <point x="326" y="284"/>
      <point x="317" y="280"/>
      <point x="304" y="280" type="curve" smooth="yes"/>
      <point x="292" y="280"/>
      <point x="283" y="283"/>
      <point x="276" y="289" type="curve" smooth="yes"/>
      <point x="265" y="299"/>
      <point x="261" y="317"/>
      <point x="261" y="342" type="curve" smooth="yes"/>
      <point x="261" y="398" type="line" smooth="yes"/>
      <point x="261" y="443"/>
      <point x="258" y="505"/>
      <point x="221" y="545" type="curve" smooth="yes"/>
      <point x="186" y="582"/>
      <point x="136" y="592"/>
      <point x="65" y="592" type="curve" smooth="yes"/>
      <point x="19" y="592" type="line"/>
      <point x="10" y="454" type="line"/>
      <point x="39" y="454"/>
      <point x="58" y="450"/>
      <point x="69" y="438" type="curve" smooth="yes"/>
      <point x="80" y="427"/>
      <point x="84" y="409"/>
      <point x="84" y="383" type="curve" smooth="yes"/>
      <point x="84" y="342" type="line" smooth="yes"/>
      <point x="84" y="276"/>
      <point x="107" y="223"/>
      <point x="151" y="188" type="curve" smooth="yes"/>
      <point x="188" y="158"/>
      <point x="239" y="142"/>
    </contour>
    <contour>
      <point x="544" y="241" type="curve" smooth="yes"/>
      <point x="579" y="241"/>
      <point x="607" y="256"/>
      <point x="628" y="281" type="curve"/>
      <point x="611" y="426" type="line"/>
      <point x="601" y="394"/>
      <point x="580" y="379"/>
      <point x="557" y="379" type="curve" smooth="yes"/>
      <point x="536" y="379"/>
      <point x="518" y="394"/>
      <point x="505" y="420" type="curve"/>
      <point x="423" y="314" type="line"/>
      <point x="445" y="273"/>
      <point x="493" y="241"/>
    </contour>
    <contour>
      <point x="794" y="0" type="curve" smooth="yes"/>
      <point x="834" y="0" type="line"/>
      <point x="847" y="138" type="line"/>
      <point x="818" y="138"/>
      <point x="801" y="141"/>
      <point x="790" y="151" type="curve" smooth="yes"/>
      <point x="778" y="162"/>
      <point x="775" y="180"/>
      <point x="775" y="209" type="curve" smooth="yes"/>
      <point x="775" y="592" type="line"/>
      <point x="598" y="602" type="line"/>
      <point x="598" y="194" type="line" smooth="yes"/>
      <point x="598" y="121"/>
      <point x="611" y="73"/>
      <point x="643" y="42" type="curve" smooth="yes"/>
      <point x="674" y="12"/>
      <point x="723" y="0"/>
    </contour>
  </outline>
</glyph>
<glyph name="gagujr" format="2">
  <advance width="767"/>
  <unicode hex="0A97"/>
  <outline>
    <contour>
      <point x="246" y="142" type="curve" smooth="yes"/>
      <point x="404" y="142"/>
      <point x="463" y="242"/>
      <point x="463" y="370" type="curve" smooth="yes"/>
      <point x="463" y="506"/>
      <point x="390" y="602"/>
      <point x="229" y="602" type="curve" smooth="yes"/>
      <point x="167" y="602"/>
      <point x="105" y="586"/>
      <point x="62" y="566" type="curve"/>
      <point x="107" y="441" type="line"/>
      <point x="136" y="454"/>
      <point x="167" y="464"/>
      <point x="204" y="464" type="curve" smooth="yes"/>
      <point x="257" y="464"/>
      <point x="286" y="437"/>
      <point x="286" y="371" type="curve" smooth="yes"/>
      <point x="286" y="316"/>
      <point x="265" y="286"/>
      <point x="221" y="286" type="curve" smooth="yes"/>
      <point x="178" y="286"/>
      <point x="153" y="313"/>
      <point x="124" y="365" type="curve"/>
      <point x="3" y="294" type="line"/>
      <point x="54" y="204"/>
      <point x="121" y="142"/>
    </contour>
    <contour>
      <point x="711" y="0" type="curve" smooth="yes"/>
      <point x="751" y="0" type="line"/>
      <point x="764" y="138" type="line"/>
      <point x="735" y="138"/>
      <point x="718" y="141"/>
      <point x="707" y="151" type="curve" smooth="yes"/>
      <point x="695" y="162"/>
      <point x="692" y="180"/>
      <point x="692" y="209" type="curve" smooth="yes"/>
      <point x="692" y="592" type="line"/>
      <point x="515" y="602" type="line"/>
      <point x="515" y="194" type="line" smooth="yes"/>
      <point x="515" y="121"/>
      <point x="528" y="73"/>
      <point x="560" y="42" type="curve" smooth="yes"/>
      <point x="591" y="12"/>
      <point x="640" y="0"/>
    </contour>
  </outline>
</glyph>
<glyph name="ngagujr" format="2">
  <advance width="594"/>
  <unicode hex="0A99"/>
  <outline>
    <contour>
      <point x="506" y="324" type="curve" smooth="yes"/>
      <point x="551" y="324"/>
      <point x="584" y="359"/>
      <point x="584" y="404" type="curve" smooth="yes"/>
      <point x="584" y="449"/>
      <point x="551" y="484"/>
      <point x="506" y="484" type="curve" smooth="yes"/>
      <point x="461" y="484"/>
      <point x="428" y="449"/>
      <point x="428" y="404" type="curve" smooth="yes"/>
      <point x="428" y="359"/>
      <point x="461" y="324"/>
    </contour>
    <contour>
      <point x="301" y="-10" type="curve" smooth="yes"/>
      <point x="445" y="-10"/>
      <point x="525" y="66"/>
      <point x="525" y="173" type="curve" smooth="yes"/>
      <point x="525" y="259"/>
      <point x="481" y="314"/>
      <point x="371" y="371" type="curve" smooth="yes"/>
      <point x="302" y="407"/>
      <point x="287" y="415"/>
      <point x="287" y="435" type="curve" smooth="yes"/>
      <point x="287" y="455"/>
      <point x="307" y="464"/>
      <point x="342" y="464" type="curve" smooth="yes"/>
      <point x="371" y="464"/>
      <point x="398" y="460"/>
      <point x="420" y="455" type="curve"/>
      <point x="450" y="589" type="line"/>
      <point x="415" y="597"/>
      <point x="376" y="602"/>
      <point x="333" y="602" type="curve" smooth="yes"/>
      <point x="195" y="602"/>
      <point x="110" y="535"/>
      <point x="110" y="439" type="curve" smooth="yes"/>
      <point x="110" y="365"/>
      <point x="155" y="315"/>
      <point x="249" y="265" type="curve" smooth="yes"/>
      <point x="323" y="226"/>
      <point x="344" y="205"/>
      <point x="344" y="171" type="curve" smooth="yes"/>
      <point x="344" y="144"/>
      <point x="327" y="128"/>
      <point x="289" y="128" type="curve" smooth="yes"/>
      <point x="232" y="128"/>
      <point x="179" y="160"/>
      <point x="134" y="220" type="curve"/>
      <point x="7" y="141" type="line"/>
      <point x="76" y="43"/>
      <point x="166" y="-10"/>
    </contour>
  </outline>
</glyph>
<glyph name="chagujr" format="2">
  <advance width="807"/>
  <unicode hex="0A9B"/>
  <outline>
    <contour>
      <point x="351" y="-10" type="curve" smooth="yes"/>
      <point x="617" y="-10"/>
      <point x="782" y="148"/>
      <point x="782" y="365" type="curve" smooth="yes"/>
      <point x="782" y="515"/>
      <point x="700" y="603"/>
      <point x="563" y="603" type="curve" smooth="yes"/>
      <point x="444" y="603"/>
      <point x="368" y="538"/>
      <point x="368" y="438" type="curve" smooth="yes"/>
      <point x="368" y="344"/>
      <point x="438" y="269"/>
      <point x="553" y="249" type="curve"/>
      <point x="592" y="382" type="line"/>
      <point x="555" y="390"/>
      <point x="522" y="407"/>
      <point x="522" y="439" type="curve" smooth="yes"/>
      <point x="522" y="456"/>
      <point x="534" y="470"/>
      <point x="553" y="470" type="curve" smooth="yes"/>
      <point x="587" y="470"/>
      <point x="606" y="434"/>
      <point x="606" y="373" type="curve" smooth="yes"/>
      <point x="606" y="241"/>
      <point x="513" y="132"/>
      <point x="353" y="132" type="curve" smooth="yes"/>
      <point x="280" y="132"/>
      <point x="241" y="151"/>
      <point x="241" y="190" type="curve" smooth="yes"/>
      <point x="241" y="226"/>
      <point x="271" y="245"/>
      <point x="314" y="245" type="curve" smooth="yes"/>
      <point x="326" y="245"/>
      <point x="347" y="244"/>
      <point x="355" y="243" type="curve"/>
      <point x="371" y="380" type="line"/>
      <point x="352" y="382"/>
      <point x="329" y="383"/>
      <point x="301" y="383" type="curve" smooth="yes"/>
      <point x="178" y="383"/>
      <point x="64" y="304"/>
      <point x="64" y="190" type="curve" smooth="yes"/>
      <point x="64" y="73"/>
      <point x="157" y="-10"/>
    </contour>
    <contour>
      <point x="157" y="267" type="curve"/>
      <point x="274" y="356" type="line"/>
      <point x="237" y="369"/>
      <point x="205" y="393"/>
      <point x="205" y="423" type="curve" smooth="yes"/>
      <point x="205" y="449"/>
      <point x="229" y="464"/>
      <point x="262" y="464" type="curve" smooth="yes"/>
      <point x="288" y="464"/>
      <point x="306" y="461"/>
      <point x="325" y="457" type="curve"/>
      <point x="352" y="590" type="line"/>
      <point x="313" y="598"/>
      <point x="276" y="602"/>
      <point x="232" y="602" type="curve" smooth="yes"/>
      <point x="117" y="602"/>
      <point x="28" y="556"/>
      <point x="28" y="454" type="curve" smooth="yes"/>
      <point x="28" y="368"/>
      <point x="91" y="305"/>
    </contour>
  </outline>
</glyph>
<glyph name="jagujr" format="2">
  <advance width="913"/>
  <unicode hex="0A9C"/>
  <outline>
    <contour>
      <point x="629" y="-10" type="curve" smooth="yes"/>
      <point x="767" y="-10"/>
      <point x="842" y="66"/>
      <point x="842" y="177" type="curve" smooth="yes"/>
      <point x="842" y="273"/>
      <point x="801" y="347"/>
      <point x="701" y="439" type="curve"/>
      <point x="567" y="557"/>
      <point x="433" y="602"/>
      <point x="279" y="602" type="curve" smooth="yes"/>
      <point x="115" y="602"/>
      <point x="25" y="517"/>
      <point x="25" y="405" type="curve" smooth="yes"/>
      <point x="25" y="288"/>
      <point x="114" y="223"/>
      <point x="228" y="223" type="curve" smooth="yes"/>
      <point x="356" y="223"/>
      <point x="419" y="290"/>
      <point x="419" y="389" type="curve" smooth="yes"/>
      <point x="419" y="433"/>
      <point x="397" y="487"/>
      <point x="370" y="517" type="curve"/>
      <point x="252" y="484" type="line"/>
      <point x="265" y="467"/>
      <point x="276" y="438"/>
      <point x="276" y="407" type="curve" smooth="yes"/>
      <point x="276" y="373"/>
      <point x="260" y="357"/>
      <point x="233" y="357" type="curve" smooth="yes"/>
      <point x="208" y="357"/>
      <point x="192" y="373"/>
      <point x="192" y="403" type="curve" smooth="yes"/>
      <point x="192" y="439"/>
      <point x="217" y="467"/>
      <point x="265" y="467" type="curve" smooth="yes"/>
      <point x="414" y="467"/>
      <point x="493" y="429"/>
      <point x="590" y="340" type="curve"/>
      <point x="637" y="296"/>
      <point x="673" y="252"/>
      <point x="673" y="178" type="curve" smooth="yes"/>
      <point x="673" y="147"/>
      <point x="657" y="126"/>
      <point x="626" y="126" type="curve" smooth="yes"/>
      <point x="597" y="126"/>
      <point x="579" y="145"/>
      <point x="579" y="178" type="curve" smooth="yes"/>
      <point x="579" y="232"/>
      <point x="609" y="278"/>
      <point x="689" y="331" type="curve"/>
      <point x="750" y="373"/>
      <point x="825" y="421"/>
      <point x="919" y="477" type="curve"/>
      <point x="830" y="606" type="line"/>
      <point x="731" y="548"/>
      <point x="652" y="493"/>
      <point x="576" y="432" type="curve"/>
      <point x="465" y="344"/>
      <point x="412" y="269"/>
      <point x="412" y="178" type="curve" smooth="yes"/>
      <point x="412" y="67"/>
      <point x="491" y="-10"/>
    </contour>
  </outline>
</glyph>
<glyph name="jhagujr" format="2">
  <advance width="778"/>
  <unicode hex="0A9D"/>
  <outline>
    <contour>
      <point x="244" y="-10" type="curve" smooth="yes"/>
      <point x="402" y="-10"/>
      <point x="474" y="92"/>
      <point x="474" y="235" type="curve" smooth="yes"/>
      <point x="474" y="393"/>
      <point x="387" y="508"/>
      <point x="223" y="508" type="curve" smooth="yes"/>
      <point x="168" y="508"/>
      <point x="117" y="498"/>
      <point x="63" y="474" type="curve"/>
      <point x="107" y="346" type="line"/>
      <point x="138" y="361"/>
      <point x="171" y="370"/>
      <point x="200" y="370" type="curve" smooth="yes"/>
      <point x="264" y="370"/>
      <point x="297" y="326"/>
      <point x="297" y="239" type="curve" smooth="yes"/>
      <point x="297" y="169"/>
      <point x="274" y="134"/>
      <point x="227" y="134" type="curve" smooth="yes"/>
      <point x="185" y="134"/>
      <point x="162" y="161"/>
      <point x="137" y="209" type="curve"/>
      <point x="9" y="134" type="line"/>
      <point x="57" y="47"/>
      <point x="126" y="-10"/>
    </contour>
    <contour>
      <point x="639" y="-17" type="line"/>
      <point x="710" y="39"/>
      <point x="758" y="122"/>
      <point x="758" y="214" type="curve" smooth="yes"/>
      <point x="758" y="333"/>
      <point x="673" y="428"/>
      <point x="534" y="428" type="curve" smooth="yes"/>
      <point x="470" y="428"/>
      <point x="415" y="412"/>
      <point x="366" y="380" type="curve"/>
      <point x="419" y="245" type="line"/>
      <point x="454" y="277"/>
      <point x="488" y="296"/>
      <point x="523" y="296" type="curve" smooth="yes"/>
      <point x="562" y="296"/>
      <point x="582" y="270"/>
      <point x="582" y="226" type="curve" smooth="yes"/>
      <point x="582" y="179"/>
      <point x="557" y="141"/>
      <point x="508" y="100" type="curve"/>
    </contour>
    <contour>
      <point x="473" y="347" type="line"/>
      <point x="650" y="347" type="line"/>
      <point x="650" y="592" type="line"/>
      <point x="473" y="602" type="line"/>
    </contour>
  </outline>
</glyph>
<glyph name="ttagujr" format="2">
  <advance width="507"/>
  <unicode hex="0A9F"/>
  <outline>
    <contour>
      <point x="262" y="-10" type="curve" smooth="yes"/>
      <point x="367" y="-10"/>
      <point x="447" y="11"/>
      <point x="523" y="51" type="curve"/>
      <point x="458" y="182" type="line"/>
      <point x="395" y="147"/>
      <point x="334" y="128"/>
      <point x="275" y="128" type="curve" smooth="yes"/>
      <point x="228" y="128"/>
      <point x="206" y="140"/>
      <point x="206" y="172" type="curve" smooth="yes"/>
      <point x="206" y="200"/>
      <point x="222" y="216"/>
      <point x="295" y="252" type="curve" smooth="yes"/>
      <point x="427" y="318"/>
      <point x="473" y="359"/>
      <point x="473" y="446" type="curve" smooth="yes"/>
      <point x="473" y="531"/>
      <point x="402" y="603"/>
      <point x="269" y="603" type="curve" smooth="yes"/>
      <point x="192" y="603"/>
      <point x="126" y="588"/>
      <point x="66" y="565" type="curve"/>
      <point x="114" y="433" type="line"/>
      <point x="161" y="452"/>
      <point x="205" y="465"/>
      <point x="255" y="465" type="curve" smooth="yes"/>
      <point x="286" y="465"/>
      <point x="296" y="458"/>
      <point x="296" y="442" type="curve" smooth="yes"/>
      <point x="296" y="421"/>
      <point x="269" y="407"/>
      <point x="206" y="377" type="curve" smooth="yes"/>
      <point x="90" y="322"/>
      <point x="24" y="268"/>
      <point x="24" y="167" type="curve" smooth="yes"/>
      <point x="24" y="57"/>
      <point x="113" y="-10"/>
    </contour>
  </outline>
</glyph>
<glyph name="tthagujr" format="2">
  <advance width="567"/>
  <unicode hex="0AA0"/>
  <outline>
    <contour>
      <point x="291" y="-10" type="curve" smooth="yes"/>
      <point x="453" y="-10"/>
      <point x="548" y="57"/>
      <point x="548" y="178" type="curve" smooth="yes"/>
      <point x="548" y="273"/>
      <point x="492" y="331"/>
      <point x="381" y="390" type="curve" smooth="yes"/>
      <point x="324" y="420"/>
      <point x="311" y="428"/>
      <point x="311" y="443" type="curve" smooth="yes"/>
      <point x="311" y="457"/>
      <point x="322" y="464"/>
      <point x="355" y="464" type="curve" smooth="yes"/>
      <point x="384" y="464"/>
      <point x="422" y="456"/>
      <point x="441" y="451" type="curve"/>
      <point x="472" y="590" type="line"/>
      <point x="434" y="598"/>
      <point x="384" y="603"/>
      <point x="337" y="603" type="curve" smooth="yes"/>
      <point x="218" y="603"/>
      <point x="138" y="549"/>
      <point x="138" y="459" type="curve" smooth="yes"/>
      <point x="138" y="392"/>
      <point x="166" y="353"/>
      <point x="226" y="309" type="curve"/>
      <point x="277" y="278" type="line"/>
      <point x="350" y="248"/>
      <point x="371" y="219"/>
      <point x="371" y="186" type="curve" smooth="yes"/>
      <point x="371" y="149"/>
      <point x="341" y="128"/>
      <point x="288" y="128" type="curve" smooth="yes"/>
      <point x="235" y="128"/>
      <point x="203" y="151"/>
      <point x="203" y="195" type="curve" smooth="yes"/>
      <point x="203" y="246"/>
      <point x="249" y="272"/>
      <point x="321" y="272" type="curve" smooth="yes"/>
      <point x="340" y="272"/>
      <point x="356" y="271"/>
      <point x="373" y="269" type="curve"/>
      <point x="374" y="312" type="line"/>
      <point x="285" y="394" type="line"/>
      <point x="131" y="390"/>
      <point x="26" y="317"/>
      <point x="26" y="195" type="curve" smooth="yes"/>
      <point x="26" y="68"/>
      <point x="125" y="-10"/>
    </contour>
  </outline>
</glyph>
<glyph name="ddagujr" format="2">
  <advance width="541"/>
  <unicode hex="0AA1"/>
  <outline>
    <contour>
      <point x="301" y="-10" type="curve" smooth="yes"/>
      <point x="445" y="-10"/>
      <point x="525" y="66"/>
      <point x="525" y="173" type="curve" smooth="yes"/>
      <point x="525" y="259"/>
      <point x="480" y="314"/>
      <point x="371" y="371" type="curve" smooth="yes"/>
      <point x="302" y="407"/>
      <point x="287" y="415"/>
      <point x="287" y="436" type="curve" smooth="yes"/>
      <point x="287" y="455"/>
      <point x="307" y="464"/>
      <point x="342" y="464" type="curve" smooth="yes"/>
      <point x="371" y="464"/>
      <point x="398" y="460"/>
      <point x="420" y="455" type="curve"/>
      <point x="450" y="589" type="line"/>
      <point x="415" y="597"/>
      <point x="376" y="602"/>
      <point x="333" y="602" type="curve" smooth="yes"/>
      <point x="195" y="602"/>
      <point x="110" y="535"/>
      <point x="110" y="439" type="curve" smooth="yes"/>
      <point x="110" y="365"/>
      <point x="155" y="315"/>
      <point x="249" y="265" type="curve" smooth="yes"/>
      <point x="323" y="226"/>
      <point x="344" y="205"/>
      <point x="344" y="171" type="curve" smooth="yes"/>
      <point x="344" y="144"/>
      <point x="327" y="128"/>
      <point x="289" y="128" type="curve" smooth="yes"/>
      <point x="232" y="128"/>
      <point x="179" y="160"/>
      <point x="134" y="220" type="curve"/>
      <point x="7" y="141" type="line"/>
      <point x="76" y="43"/>
      <point x="166" y="-10"/>
    </contour>
  </outline>
</glyph>
<glyph name="ddhagujr" format="2">
  <advance width="551"/>
  <unicode hex="0AA2"/>
  <outline>
    <contour>
      <point x="302" y="-10" type="curve" smooth="yes"/>
      <point x="460" y="-10"/>
      <point x="551" y="43"/>
      <point x="551" y="147" type="curve" smooth="yes"/>
      <point x="551" y="234"/>
      <point x="491" y="288"/>
      <point x="388" y="288" type="curve" smooth="yes"/>
      <point x="297" y="288"/>
      <point x="229" y="241"/>
      <point x="229" y="156" type="curve" smooth="yes"/>
      <point x="229" y="120"/>
      <point x="246" y="75"/>
      <point x="267" y="42" type="curve"/>
      <point x="376" y="58" type="line"/>
      <point x="356" y="83"/>
      <point x="343" y="107"/>
      <point x="343" y="136" type="curve" smooth="yes"/>
      <point x="343" y="164"/>
      <point x="359" y="182"/>
      <point x="384" y="182" type="curve" smooth="yes"/>
      <point x="406" y="182"/>
      <point x="415" y="169"/>
      <point x="415" y="152" type="curve" smooth="yes"/>
      <point x="415" y="120"/>
      <point x="380" y="109"/>
      <point x="337" y="109" type="curve" smooth="yes"/>
      <point x="279" y="109" type="line" smooth="yes"/>
      <point x="216" y="109"/>
      <point x="180" y="133"/>
      <point x="180" y="176" type="curve" smooth="yes"/>
      <point x="180" y="218"/>
      <point x="207" y="242"/>
      <point x="272" y="274" type="curve" smooth="yes"/>
      <point x="356" y="316" type="line" smooth="yes"/>
      <point x="436" y="356"/>
      <point x="469" y="393"/>
      <point x="469" y="457" type="curve" smooth="yes"/>
      <point x="469" y="548"/>
      <point x="391" y="602"/>
      <point x="269" y="602" type="curve" smooth="yes"/>
      <point x="203" y="602"/>
      <point x="140" y="592"/>
      <point x="80" y="568" type="curve"/>
      <point x="126" y="440" type="line"/>
      <point x="171" y="457"/>
      <point x="219" y="467"/>
      <point x="256" y="467" type="curve" smooth="yes"/>
      <point x="284" y="467"/>
      <point x="293" y="461"/>
      <point x="293" y="449" type="curve" smooth="yes"/>
      <point x="293" y="434"/>
      <point x="283" y="426"/>
      <point x="213" y="393" type="curve" smooth="yes"/>
      <point x="182" y="378" type="line" smooth="yes"/>
      <point x="69" y="324"/>
      <point x="24" y="267"/>
      <point x="24" y="186" type="curve" smooth="yes"/>
      <point x="24" y="61"/>
      <point x="111" y="-10"/>
    </contour>
  </outline>
</glyph>
<glyph name="nnagujr" format="2">
  <advance width="970"/>
  <unicode hex="0AA3"/>
  <outline>
    <contour>
      <point x="473" y="-176" type="line"/>
      <point x="532" y="-112"/>
      <point x="555" y="-76"/>
      <point x="555" y="-17" type="curve" smooth="yes"/>
      <point x="555" y="55"/>
      <point x="516" y="95"/>
      <point x="406" y="142" type="curve" smooth="yes"/>
      <point x="312" y="182" type="line" smooth="yes"/>
      <point x="254" y="207"/>
      <point x="237" y="227"/>
      <point x="237" y="295" type="curve" smooth="yes"/>
      <point x="237" y="592" type="line"/>
      <point x="60" y="602" type="line"/>
      <point x="60" y="238" type="line" smooth="yes"/>
      <point x="60" y="172"/>
      <point x="85" y="127"/>
      <point x="164" y="91" type="curve" smooth="yes"/>
      <point x="325" y="18" type="line" smooth="yes"/>
      <point x="355" y="4"/>
      <point x="369" y="-10"/>
      <point x="369" y="-32" type="curve" smooth="yes"/>
      <point x="369" y="-49"/>
      <point x="359" y="-64"/>
      <point x="341" y="-81" type="curve"/>
    </contour>
    <contour>
      <point x="478" y="184" type="curve" smooth="yes"/>
      <point x="601" y="184"/>
      <point x="675" y="264"/>
      <point x="675" y="392" type="curve" smooth="yes"/>
      <point x="675" y="521"/>
      <point x="594" y="602"/>
      <point x="467" y="602" type="curve" smooth="yes"/>
      <point x="412" y="602"/>
      <point x="366" y="593"/>
      <point x="314" y="571" type="curve"/>
      <point x="361" y="451" type="line"/>
      <point x="391" y="464"/>
      <point x="415" y="471"/>
      <point x="445" y="471" type="curve" smooth="yes"/>
      <point x="485" y="471"/>
      <point x="505" y="449"/>
      <point x="505" y="399" type="curve" smooth="yes"/>
      <point x="505" y="354"/>
      <point x="491" y="331"/>
      <point x="458" y="331" type="curve" smooth="yes"/>
      <point x="422" y="331"/>
      <point x="397" y="362"/>
      <point x="380" y="392" type="curve"/>
      <point x="262" y="319" type="line"/>
      <point x="312" y="234"/>
      <point x="385" y="184"/>
    </contour>
    <contour>
      <point x="914" y="0" type="curve" smooth="yes"/>
      <point x="954" y="0" type="line"/>
      <point x="967" y="138" type="line"/>
      <point x="938" y="138"/>
      <point x="921" y="141"/>
      <point x="910" y="151" type="curve" smooth="yes"/>
      <point x="898" y="162"/>
      <point x="895" y="180"/>
      <point x="895" y="209" type="curve" smooth="yes"/>
      <point x="895" y="592" type="line"/>
      <point x="718" y="602" type="line"/>
      <point x="718" y="194" type="line" smooth="yes"/>
      <point x="718" y="121"/>
      <point x="731" y="73"/>
      <point x="763" y="42" type="curve" smooth="yes"/>
      <point x="794" y="12"/>
      <point x="843" y="0"/>
    </contour>
  </outline>
</glyph>
<glyph name="tagujr" format="2">
  <advance width="651"/>
  <unicode hex="0AA4"/>
  <outline>
    <contour>
      <point x="201" y="-3" type="curve"/>
      <point x="309" y="104" type="line"/>
      <point x="240" y="161"/>
      <point x="202" y="197"/>
      <point x="202" y="254" type="curve" smooth="yes"/>
      <point x="202" y="273"/>
      <point x="207" y="287"/>
      <point x="218" y="297" type="curve" smooth="yes"/>
      <point x="235" y="312"/>
      <point x="255" y="318"/>
      <point x="306" y="318" type="curve" smooth="yes"/>
      <point x="428" y="318" type="line"/>
      <point x="428" y="456" type="line"/>
      <point x="297" y="456" type="line" smooth="yes"/>
      <point x="191" y="456"/>
      <point x="139" y="441"/>
      <point x="93" y="407" type="curve" smooth="yes"/>
      <point x="51" y="376"/>
      <point x="26" y="331"/>
      <point x="26" y="266" type="curve" smooth="yes"/>
      <point x="26" y="173"/>
      <point x="72" y="106"/>
    </contour>
    <contour>
      <point x="595" y="0" type="curve" smooth="yes"/>
      <point x="635" y="0" type="line"/>
      <point x="648" y="138" type="line"/>
      <point x="619" y="138"/>
      <point x="602" y="141"/>
      <point x="591" y="151" type="curve" smooth="yes"/>
      <point x="579" y="162"/>
      <point x="576" y="180"/>
      <point x="576" y="209" type="curve" smooth="yes"/>
      <point x="576" y="592" type="line"/>
      <point x="399" y="602" type="line"/>
      <point x="399" y="194" type="line" smooth="yes"/>
      <point x="399" y="121"/>
      <point x="412" y="73"/>
      <point x="444" y="42" type="curve" smooth="yes"/>
      <point x="475" y="12"/>
      <point x="524" y="0"/>
    </contour>
  </outline>
</glyph>
<glyph name="thagujr" format="2">
  <advance width="725"/>
  <unicode hex="0AA5"/>
  <outline>
    <contour>
      <point x="311" y="107" type="curve" smooth="yes"/>
      <point x="389" y="107"/>
      <point x="452" y="124"/>
      <point x="501" y="159" type="curve"/>
      <point x="501" y="324" type="line"/>
      <point x="455" y="270"/>
      <point x="386" y="245"/>
      <point x="325" y="245" type="curve" smooth="yes"/>
      <point x="271" y="245"/>
      <point x="231" y="261"/>
      <point x="204" y="294" type="curve"/>
      <point x="200" y="248" type="line"/>
      <point x="317" y="282"/>
      <point x="401" y="348"/>
      <point x="401" y="451" type="curve" smooth="yes"/>
      <point x="401" y="536"/>
      <point x="335" y="602"/>
      <point x="213" y="602" type="curve" smooth="yes"/>
      <point x="100" y="602"/>
      <point x="26" y="549"/>
      <point x="26" y="463" type="curve" smooth="yes"/>
      <point x="26" y="419"/>
      <point x="46" y="384"/>
      <point x="75" y="357" type="curve"/>
      <point x="197" y="420" type="line"/>
      <point x="187" y="430"/>
      <point x="179" y="442"/>
      <point x="179" y="458" type="curve" smooth="yes"/>
      <point x="179" y="479"/>
      <point x="193" y="492"/>
      <point x="215" y="492" type="curve" smooth="yes"/>
      <point x="237" y="492"/>
      <point x="249" y="475"/>
      <point x="249" y="452" type="curve" smooth="yes"/>
      <point x="249" y="392"/>
      <point x="170" y="351"/>
      <point x="38" y="317" type="curve"/>
      <point x="67" y="182"/>
      <point x="182" y="107"/>
    </contour>
    <contour>
      <point x="669" y="0" type="curve" smooth="yes"/>
      <point x="709" y="0" type="line"/>
      <point x="722" y="138" type="line"/>
      <point x="693" y="138"/>
      <point x="676" y="141"/>
      <point x="665" y="151" type="curve" smooth="yes"/>
      <point x="653" y="162"/>
      <point x="650" y="180"/>
      <point x="650" y="209" type="curve" smooth="yes"/>
      <point x="650" y="592" type="line"/>
      <point x="473" y="602" type="line"/>
      <point x="473" y="194" type="line" smooth="yes"/>
      <point x="473" y="121"/>
      <point x="486" y="73"/>
      <point x="518" y="42" type="curve" smooth="yes"/>
      <point x="549" y="12"/>
      <point x="598" y="0"/>
    </contour>
  </outline>
</glyph>
<glyph name="dagujr" format="2">
  <advance width="535"/>
  <unicode hex="0AA6"/>
  <outline>
    <contour>
      <point x="323" y="-10" type="curve" smooth="yes"/>
      <point x="460" y="-10"/>
      <point x="538" y="36"/>
      <point x="538" y="120" type="curve" smooth="yes"/>
      <point x="538" y="171"/>
      <point x="505" y="213"/>
      <point x="444" y="213" type="curve" smooth="yes"/>
      <point x="388" y="213"/>
      <point x="351" y="179"/>
      <point x="351" y="133" type="curve" smooth="yes"/>
      <point x="351" y="100"/>
      <point x="362" y="71"/>
      <point x="388" y="46" type="curve"/>
      <point x="398" y="138" type="line"/>
      <point x="373" y="132"/>
      <point x="354" y="128"/>
      <point x="325" y="128" type="curve" smooth="yes"/>
      <point x="279" y="128"/>
      <point x="243" y="148"/>
      <point x="243" y="187" type="curve" smooth="yes"/>
      <point x="243" y="223"/>
      <point x="275" y="245"/>
      <point x="333" y="245" type="curve" smooth="yes"/>
      <point x="356" y="245"/>
      <point x="378" y="243"/>
      <point x="397" y="240" type="curve"/>
      <point x="423" y="375" type="line"/>
      <point x="394" y="380"/>
      <point x="361" y="383"/>
      <point x="330" y="383" type="curve" smooth="yes"/>
      <point x="186" y="383"/>
      <point x="66" y="315"/>
      <point x="66" y="183" type="curve" smooth="yes"/>
      <point x="66" y="67"/>
      <point x="162" y="-10"/>
    </contour>
    <contour>
      <point x="148" y="263" type="curve"/>
      <point x="278" y="350" type="line"/>
      <point x="231" y="371"/>
      <point x="205" y="392"/>
      <point x="205" y="421" type="curve" smooth="yes"/>
      <point x="205" y="449"/>
      <point x="231" y="464"/>
      <point x="280" y="464" type="curve" smooth="yes"/>
      <point x="305" y="464"/>
      <point x="326" y="461"/>
      <point x="347" y="457" type="curve"/>
      <point x="374" y="587" type="line"/>
      <point x="334" y="596"/>
      <point x="291" y="602"/>
      <point x="247" y="602" type="curve" smooth="yes"/>
      <point x="113" y="602"/>
      <point x="28" y="539"/>
      <point x="28" y="441" type="curve" smooth="yes"/>
      <point x="28" y="362"/>
      <point x="79" y="308"/>
    </contour>
  </outline>
</glyph>
<glyph name="dhagujr" format="2">
  <advance width="674"/>
  <unicode hex="0AA7"/>
  <outline>
    <contour>
      <point x="275" y="87" type="curve" smooth="yes"/>
      <point x="346" y="87"/>
      <point x="411" y="101"/>
      <point x="452" y="135" type="curve"/>
      <point x="443" y="289" type="line"/>
      <point x="413" y="258"/>
      <point x="360" y="221"/>
      <point x="297" y="221" type="curve" smooth="yes"/>
      <point x="257" y="221"/>
      <point x="237" y="233"/>
      <point x="237" y="256" type="curve" smooth="yes"/>
      <point x="237" y="281"/>
      <point x="258" y="292"/>
      <point x="294" y="292" type="curve" smooth="yes"/>
      <point x="308" y="292"/>
      <point x="323" y="291"/>
      <point x="334" y="289" type="curve"/>
      <point x="353" y="414" type="line"/>
      <point x="332" y="419"/>
      <point x="301" y="422"/>
      <point x="275" y="422" type="curve" smooth="yes"/>
      <point x="162" y="422"/>
      <point x="66" y="360"/>
      <point x="66" y="256" type="curve" smooth="yes"/>
      <point x="66" y="159"/>
      <point x="142" y="87"/>
    </contour>
    <contour>
      <point x="130" y="300" type="curve"/>
      <point x="251" y="392" type="line"/>
      <point x="219" y="400"/>
      <point x="197" y="422"/>
      <point x="197" y="449" type="curve" smooth="yes"/>
      <point x="197" y="480"/>
      <point x="227" y="496"/>
      <point x="293" y="512" type="curve"/>
      <point x="236" y="654" type="line"/>
      <point x="83" y="613"/>
      <point x="24" y="546"/>
      <point x="24" y="455" type="curve" smooth="yes"/>
      <point x="24" y="383"/>
      <point x="72" y="329"/>
    </contour>
    <contour>
      <point x="618" y="0" type="curve" smooth="yes"/>
      <point x="658" y="0" type="line"/>
      <point x="671" y="138" type="line"/>
      <point x="642" y="138"/>
      <point x="625" y="141"/>
      <point x="614" y="151" type="curve" smooth="yes"/>
      <point x="602" y="162"/>
      <point x="599" y="180"/>
      <point x="599" y="209" type="curve" smooth="yes"/>
      <point x="599" y="592" type="line"/>
      <point x="422" y="602" type="line"/>
      <point x="422" y="194" type="line" smooth="yes"/>
      <point x="422" y="121"/>
      <point x="435" y="73"/>
      <point x="467" y="42" type="curve" smooth="yes"/>
      <point x="498" y="12"/>
      <point x="547" y="0"/>
    </contour>
  </outline>
</glyph>
<glyph name="nagujr" format="2">
  <advance width="638"/>
  <unicode hex="0AA8"/>
  <outline>
    <contour>
      <point x="582" y="0" type="curve" smooth="yes"/>
      <point x="622" y="0" type="line"/>
      <point x="635" y="138" type="line"/>
      <point x="606" y="138"/>
      <point x="589" y="141"/>
      <point x="578" y="151" type="curve" smooth="yes"/>
      <point x="566" y="162"/>
      <point x="563" y="180"/>
      <point x="563" y="209" type="curve" smooth="yes"/>
      <point x="563" y="592" type="line"/>
      <point x="386" y="602" type="line"/>
      <point x="386" y="194" type="line" smooth="yes"/>
      <point x="386" y="121"/>
      <point x="399" y="73"/>
      <point x="431" y="42" type="curve" smooth="yes"/>
      <point x="462" y="12"/>
      <point x="511" y="0"/>
    </contour>
    <contour>
      <point x="200" y="157" type="curve" smooth="yes"/>
      <point x="252" y="157"/>
      <point x="277" y="185"/>
      <point x="277" y="238" type="curve" smooth="yes"/>
      <point x="277" y="288" type="line"/>
      <point x="448" y="288" type="line"/>
      <point x="448" y="426" type="line"/>
      <point x="95" y="426" type="line" smooth="yes"/>
      <point x="51" y="426"/>
      <point x="18" y="400"/>
      <point x="18" y="353" type="curve" smooth="yes"/>
      <point x="18" y="255"/>
      <point x="118" y="157"/>
    </contour>
  </outline>
</glyph>
<glyph name="pagujr" format="2">
  <advance width="640"/>
  <unicode hex="0AAA"/>
  <outline>
    <contour>
      <point x="282" y="149" type="curve" smooth="yes"/>
      <point x="327" y="149"/>
      <point x="366" y="157"/>
      <point x="399" y="172" type="curve"/>
      <point x="399" y="335" type="line"/>
      <point x="375" y="304"/>
      <point x="344" y="287"/>
      <point x="310" y="287" type="curve" smooth="yes"/>
      <point x="295" y="287"/>
      <point x="284" y="291"/>
      <point x="276" y="298" type="curve" smooth="yes"/>
      <point x="266" y="307"/>
      <point x="261" y="321"/>
      <point x="261" y="339" type="curve" smooth="yes"/>
      <point x="261" y="398" type="line" smooth="yes"/>
      <point x="261" y="443"/>
      <point x="258" y="505"/>
      <point x="221" y="545" type="curve" smooth="yes"/>
      <point x="186" y="582"/>
      <point x="136" y="592"/>
      <point x="65" y="592" type="curve" smooth="yes"/>
      <point x="19" y="592" type="line"/>
      <point x="10" y="454" type="line"/>
      <point x="39" y="454"/>
      <point x="57" y="450"/>
      <point x="69" y="438" type="curve" smooth="yes"/>
      <point x="80" y="427"/>
      <point x="84" y="409"/>
      <point x="84" y="383" type="curve" smooth="yes"/>
      <point x="84" y="329" type="line" smooth="yes"/>
      <point x="84" y="271"/>
      <point x="104" y="224"/>
      <point x="142" y="193" type="curve" smooth="yes"/>
      <point x="176" y="165"/>
      <point x="223" y="149"/>
    </contour>
    <contour>
      <point x="584" y="0" type="curve" smooth="yes"/>
      <point x="624" y="0" type="line"/>
      <point x="637" y="138" type="line"/>
      <point x="608" y="138"/>
      <point x="591" y="141"/>
      <point x="580" y="151" type="curve" smooth="yes"/>
      <point x="568" y="162"/>
      <point x="565" y="180"/>
      <point x="565" y="209" type="curve" smooth="yes"/>
      <point x="565" y="592" type="line"/>
      <point x="388" y="602" type="line"/>
      <point x="388" y="194" type="line" smooth="yes"/>
      <point x="388" y="121"/>
      <point x="401" y="73"/>
      <point x="433" y="42" type="curve" smooth="yes"/>
      <point x="464" y="12"/>
      <point x="513" y="0"/>
    </contour>
  </outline>
</glyph>
<glyph name="phagujr" format="2">
  <advance width="567"/>
  <unicode hex="0AAB"/>
  <outline>
    <contour>
      <point x="409" y="-195" type="curve" smooth="yes"/>
      <point x="430" y="-195" type="line"/>
      <point x="447" y="-55" type="line"/>
      <point x="423" y="-55" type="line" smooth="yes"/>
      <point x="309" y="-55"/>
      <point x="274" y="23"/>
      <point x="257" y="73" type="curve"/>
      <point x="261" y="82" type="line"/>
      <point x="237" y="125"/>
      <point x="187" y="182"/>
      <point x="121" y="182" type="curve" smooth="yes"/>
      <point x="66" y="182"/>
      <point x="35" y="151"/>
      <point x="35" y="104" type="curve" smooth="yes"/>
      <point x="35" y="44"/>
      <point x="79" y="15"/>
      <point x="139" y="1" type="curve" smooth="yes"/>
      <point x="174" y="-7"/>
      <point x="229" y="-10"/>
      <point x="274" y="-10" type="curve" smooth="yes"/>
      <point x="424" y="-10"/>
      <point x="510" y="52"/>
      <point x="510" y="145" type="curve" smooth="yes"/>
      <point x="510" y="225"/>
      <point x="462" y="280"/>
      <point x="366" y="321" type="curve"/>
      <point x="338" y="366" type="line"/>
      <point x="303" y="383"/>
      <point x="273" y="398"/>
      <point x="273" y="426" type="curve" smooth="yes"/>
      <point x="273" y="451"/>
      <point x="299" y="464"/>
      <point x="335" y="464" type="curve" smooth="yes"/>
      <point x="368" y="464"/>
      <point x="404" y="458"/>
      <point x="433" y="449" type="curve"/>
      <point x="460" y="585" type="line"/>
      <point x="408" y="596"/>
      <point x="356" y="602"/>
      <point x="309" y="602" type="curve" smooth="yes"/>
      <point x="183" y="602"/>
      <point x="99" y="541"/>
      <point x="99" y="448" type="curve" smooth="yes"/>
      <point x="99" y="391"/>
      <point x="139" y="349"/>
      <point x="185" y="315" type="curve"/>
      <point x="228" y="255" type="line"/>
      <point x="296" y="232"/>
      <point x="333" y="211"/>
      <point x="333" y="176" type="curve" smooth="yes"/>
      <point x="333" y="146"/>
      <point x="300" y="128"/>
      <point x="241" y="128" type="curve" smooth="yes"/>
      <point x="211" y="128"/>
      <point x="177" y="135"/>
      <point x="143" y="149" type="curve"/>
      <point x="97" y="58" type="line"/>
      <point x="160" y="-83"/>
      <point x="261" y="-195"/>
    </contour>
    <contour>
      <point x="79" y="195" type="line"/>
      <point x="304" y="254" type="line"/>
      <point x="554" y="311" type="line"/>
      <point x="513" y="445" type="line"/>
      <point x="265" y="382" type="line"/>
      <point x="35" y="329" type="line"/>
    </contour>
  </outline>
</glyph>
<glyph name="bagujr" format="2">
  <advance width="834"/>
  <unicode hex="0AAC"/>
  <outline>
    <contour>
      <point x="274" y="128" type="curve" smooth="yes"/>
      <point x="418" y="128"/>
      <point x="508" y="212"/>
      <point x="508" y="350" type="curve" smooth="yes"/>
      <point x="508" y="441" type="line"/>
      <point x="331" y="456" type="line"/>
      <point x="331" y="354" type="line" smooth="yes"/>
      <point x="331" y="323"/>
      <point x="325" y="300"/>
      <point x="314" y="286" type="curve" smooth="yes"/>
      <point x="303" y="273"/>
      <point x="288" y="266"/>
      <point x="267" y="266" type="curve" smooth="yes"/>
      <point x="224" y="266"/>
      <point x="201" y="294"/>
      <point x="201" y="338" type="curve" smooth="yes"/>
      <point x="201" y="390"/>
      <point x="234" y="427"/>
      <point x="305" y="446" type="curve"/>
      <point x="263" y="602" type="line"/>
      <point x="98" y="566"/>
      <point x="24" y="465"/>
      <point x="24" y="350" type="curve" smooth="yes"/>
      <point x="24" y="217"/>
      <point x="130" y="128"/>
    </contour>
    <contour>
      <point x="530" y="209" type="curve" smooth="yes"/>
      <point x="561" y="209"/>
      <point x="590" y="219"/>
      <point x="611" y="242" type="curve"/>
      <point x="594" y="383" type="line"/>
      <point x="581" y="361"/>
      <point x="563" y="347"/>
      <point x="539" y="347" type="curve" smooth="yes"/>
      <point x="524" y="347"/>
      <point x="509" y="353"/>
      <point x="499" y="371" type="curve"/>
      <point x="421" y="268" type="line"/>
      <point x="448" y="233"/>
      <point x="489" y="209"/>
    </contour>
    <contour>
      <point x="778" y="0" type="curve" smooth="yes"/>
      <point x="818" y="0" type="line"/>
      <point x="831" y="138" type="line"/>
      <point x="802" y="138"/>
      <point x="785" y="141"/>
      <point x="774" y="151" type="curve" smooth="yes"/>
      <point x="762" y="162"/>
      <point x="759" y="180"/>
      <point x="759" y="209" type="curve" smooth="yes"/>
      <point x="759" y="592" type="line"/>
      <point x="582" y="602" type="line"/>
      <point x="582" y="194" type="line" smooth="yes"/>
      <point x="582" y="121"/>
      <point x="595" y="73"/>
      <point x="627" y="42" type="curve" smooth="yes"/>
      <point x="658" y="12"/>
      <point x="707" y="0"/>
    </contour>
  </outline>
</glyph>
<glyph name="magujr" format="2">
  <advance width="665"/>
  <unicode hex="0AAE"/>
  <guideline x="33" y="242" angle="90"/>
  <outline>
    <contour>
      <point x="609" y="0" type="curve" smooth="yes"/>
      <point x="649" y="0" type="line"/>
      <point x="662" y="138" type="line"/>
      <point x="633" y="138"/>
      <point x="616" y="141"/>
      <point x="605" y="151" type="curve" smooth="yes"/>
      <point x="593" y="162"/>
      <point x="590" y="180"/>
      <point x="590" y="209" type="curve" smooth="yes"/>
      <point x="590" y="592" type="line"/>
      <point x="413" y="602" type="line"/>
      <point x="413" y="194" type="line" smooth="yes"/>
      <point x="413" y="121"/>
      <point x="426" y="73"/>
      <point x="458" y="42" type="curve" smooth="yes"/>
      <point x="489" y="12"/>
      <point x="538" y="0"/>
    </contour>
    <contour>
      <point x="210" y="109" type="curve" smooth="yes"/>
      <point x="260" y="109"/>
      <point x="286" y="137"/>
      <point x="286" y="187" type="curve" smooth="yes"/>
      <point x="286" y="209" type="line"/>
      <point x="439" y="209" type="line"/>
      <point x="439" y="347" type="line"/>
      <point x="104" y="347" type="line" smooth="yes"/>
      <point x="59" y="347"/>
      <point x="33" y="322"/>
      <point x="33" y="283" type="curve" smooth="yes"/>
      <point x="33" y="208"/>
      <point x="126" y="109"/>
    </contour>
    <contour>
      <point x="109" y="279" type="line"/>
      <point x="286" y="279" type="line"/>
      <point x="286" y="398" type="line" smooth="yes"/>
      <point x="286" y="439"/>
      <point x="286" y="502"/>
      <point x="246" y="545" type="curve" smooth="yes"/>
      <point x="211" y="582"/>
      <point x="161" y="592"/>
      <point x="90" y="592" type="curve" smooth="yes"/>
      <point x="44" y="592" type="line"/>
      <point x="35" y="454" type="line"/>
      <point x="64" y="454"/>
      <point x="82" y="450"/>
      <point x="94" y="438" type="curve" smooth="yes"/>
      <point x="105" y="427"/>
      <point x="109" y="409"/>
      <point x="109" y="383" type="curve" smooth="yes"/>
    </contour>
  </outline>
</glyph>
<glyph name="yagujr" format="2">
  <advance width="679"/>
  <unicode hex="0AAF"/>
  <outline>
    <contour>
      <point x="305" y="144" type="curve" smooth="yes"/>
      <point x="377" y="144"/>
      <point x="430" y="161"/>
      <point x="475" y="200" type="curve"/>
      <point x="465" y="387" type="line"/>
      <point x="426" y="321"/>
      <point x="377" y="282"/>
      <point x="305" y="282" type="curve" smooth="yes"/>
      <point x="274" y="282"/>
      <point x="243" y="293"/>
      <point x="222" y="314" type="curve"/>
      <point x="186" y="268" type="line"/>
      <point x="282" y="305"/>
      <point x="331" y="364"/>
      <point x="331" y="439" type="curve" smooth="yes"/>
      <point x="331" y="533"/>
      <point x="262" y="602"/>
      <point x="134" y="602" type="curve" smooth="yes"/>
      <point x="92" y="602"/>
      <point x="52" y="597"/>
      <point x="12" y="586" type="curve"/>
      <point x="47" y="454" type="line"/>
      <point x="68" y="460"/>
      <point x="87" y="464"/>
      <point x="105" y="464" type="curve" smooth="yes"/>
      <point x="139" y="464"/>
      <point x="155" y="448"/>
      <point x="155" y="426" type="curve" smooth="yes"/>
      <point x="155" y="389"/>
      <point x="111" y="367"/>
      <point x="44" y="354" type="curve"/>
      <point x="76" y="222"/>
      <point x="182" y="144"/>
    </contour>
    <contour>
      <point x="623" y="0" type="curve" smooth="yes"/>
      <point x="663" y="0" type="line"/>
      <point x="676" y="138" type="line"/>
      <point x="647" y="138"/>
      <point x="630" y="141"/>
      <point x="619" y="151" type="curve" smooth="yes"/>
      <point x="607" y="162"/>
      <point x="604" y="180"/>
      <point x="604" y="209" type="curve" smooth="yes"/>
      <point x="604" y="592" type="line"/>
      <point x="427" y="602" type="line"/>
      <point x="427" y="194" type="line" smooth="yes"/>
      <point x="427" y="121"/>
      <point x="440" y="73"/>
      <point x="472" y="42" type="curve" smooth="yes"/>
      <point x="503" y="12"/>
      <point x="552" y="0"/>
    </contour>
  </outline>
</glyph>
<glyph name="ragujr" format="2">
  <advance width="503"/>
  <unicode hex="0AB0"/>
  <guideline x="28" y="139" angle="90"/>
  <outline>
    <contour>
      <point x="443" y="0" type="curve" smooth="yes"/>
      <point x="487" y="0" type="line"/>
      <point x="498" y="140" type="line"/>
      <point x="470" y="140" type="line" smooth="yes"/>
      <point x="374" y="140"/>
      <point x="331" y="168"/>
      <point x="254" y="248" type="curve"/>
      <point x="258" y="265" type="line"/>
      <point x="217" y="309"/>
      <point x="178" y="340"/>
      <point x="120" y="340" type="curve" smooth="yes"/>
      <point x="66" y="340"/>
      <point x="27" y="306"/>
      <point x="27" y="256" type="curve" smooth="yes"/>
      <point x="27" y="186"/>
      <point x="82" y="157"/>
      <point x="163" y="157" type="curve" smooth="yes"/>
      <point x="302" y="157"/>
      <point x="456" y="246"/>
      <point x="456" y="395" type="curve" smooth="yes"/>
      <point x="456" y="510"/>
      <point x="374" y="602"/>
      <point x="215" y="602" type="curve" smooth="yes"/>
      <point x="152" y="602"/>
      <point x="86" y="588"/>
      <point x="28" y="565" type="curve"/>
      <point x="75" y="438" type="line"/>
      <point x="111" y="455"/>
      <point x="152" y="464"/>
      <point x="185" y="464" type="curve" smooth="yes"/>
      <point x="248" y="464"/>
      <point x="279" y="436"/>
      <point x="279" y="393" type="curve" smooth="yes"/>
      <point x="279" y="344"/>
      <point x="229" y="307"/>
      <point x="149" y="296" type="curve"/>
      <point x="121" y="208" type="line"/>
      <point x="207" y="53"/>
      <point x="323" y="0"/>
    </contour>
  </outline>
</glyph>
<glyph name="lagujr" format="2">
  <advance width="728"/>
  <unicode hex="0AB2"/>
  <outline>
    <contour>
      <point x="297" y="74" type="curve" smooth="yes"/>
      <point x="354" y="74"/>
      <point x="398" y="82"/>
      <point x="448" y="103" type="curve"/>
      <point x="399" y="231" type="line"/>
      <point x="375" y="219"/>
      <point x="345" y="212"/>
      <point x="315" y="212" type="curve" smooth="yes"/>
      <point x="246" y="212"/>
      <point x="201" y="255"/>
      <point x="201" y="321" type="curve" smooth="yes"/>
      <point x="201" y="401"/>
      <point x="258" y="440"/>
      <point x="377" y="459" type="curve"/>
      <point x="333" y="602" type="line"/>
      <point x="126" y="574"/>
      <point x="24" y="464"/>
      <point x="24" y="322" type="curve" smooth="yes"/>
      <point x="24" y="172"/>
      <point x="142" y="74"/>
    </contour>
    <contour>
      <point x="297" y="254" type="line"/>
      <point x="535" y="307" type="line"/>
      <point x="535" y="447" type="line"/>
      <point x="263" y="390" type="line"/>
    </contour>
    <contour>
      <point x="672" y="0" type="curve" smooth="yes"/>
      <point x="712" y="0" type="line"/>
      <point x="725" y="138" type="line"/>
      <point x="696" y="138"/>
      <point x="679" y="141"/>
      <point x="668" y="151" type="curve" smooth="yes"/>
      <point x="656" y="162"/>
      <point x="653" y="180"/>
      <point x="653" y="209" type="curve" smooth="yes"/>
      <point x="653" y="592" type="line"/>
      <point x="476" y="602" type="line"/>
      <point x="476" y="194" type="line" smooth="yes"/>
      <point x="476" y="121"/>
      <point x="489" y="73"/>
      <point x="521" y="42" type="curve" smooth="yes"/>
      <point x="552" y="12"/>
      <point x="601" y="0"/>
    </contour>
  </outline>
</glyph>
<glyph name="shagujr" format="2">
  <advance width="786"/>
  <unicode hex="0AB6"/>
  <outline>
    <contour>
      <point x="415" y="0" type="curve" smooth="yes"/>
      <point x="450" y="0" type="line"/>
      <point x="466" y="140" type="line"/>
      <point x="441" y="140" type="line" smooth="yes"/>
      <point x="350" y="140"/>
      <point x="311" y="155"/>
      <point x="250" y="223" type="curve"/>
      <point x="250" y="240" type="line"/>
      <point x="209" y="283"/>
      <point x="168" y="314"/>
      <point x="109" y="314" type="curve" smooth="yes"/>
      <point x="55" y="314"/>
      <point x="16" y="281"/>
      <point x="16" y="230" type="curve" smooth="yes"/>
      <point x="16" y="158"/>
      <point x="78" y="131"/>
      <point x="156" y="131" type="curve" smooth="yes"/>
      <point x="329" y="131"/>
      <point x="478" y="227"/>
      <point x="478" y="391" type="curve" smooth="yes"/>
      <point x="478" y="519"/>
      <point x="387" y="602"/>
      <point x="237" y="602" type="curve" smooth="yes"/>
      <point x="120" y="602"/>
      <point x="51" y="546"/>
      <point x="51" y="464" type="curve" smooth="yes"/>
      <point x="51" y="377"/>
      <point x="111" y="328"/>
      <point x="240" y="306" type="curve"/>
      <point x="279" y="406" type="line"/>
      <point x="233" y="415"/>
      <point x="206" y="423"/>
      <point x="206" y="448" type="curve" smooth="yes"/>
      <point x="206" y="464"/>
      <point x="220" y="474"/>
      <point x="240" y="474" type="curve" smooth="yes"/>
      <point x="280" y="474"/>
      <point x="308" y="443"/>
      <point x="308" y="396" type="curve" smooth="yes"/>
      <point x="308" y="324"/>
      <point x="261" y="276"/>
      <point x="152" y="257" type="curve"/>
      <point x="117" y="183" type="line"/>
      <point x="195" y="43"/>
      <point x="303" y="0"/>
    </contour>
    <contour>
      <point x="730" y="0" type="curve" smooth="yes"/>
      <point x="770" y="0" type="line"/>
      <point x="783" y="138" type="line"/>
      <point x="754" y="138"/>
      <point x="737" y="141"/>
      <point x="726" y="151" type="curve" smooth="yes"/>
      <point x="714" y="162"/>
      <point x="711" y="180"/>
      <point x="711" y="209" type="curve" smooth="yes"/>
      <point x="711" y="592" type="line"/>
      <point x="534" y="602" type="line"/>
      <point x="534" y="194" type="line" smooth="yes"/>
      <point x="534" y="121"/>
      <point x="547" y="73"/>
      <point x="579" y="42" type="curve" smooth="yes"/>
      <point x="610" y="12"/>
      <point x="659" y="0"/>
    </contour>
  </outline>
</glyph>
<glyph name="ssagujr" format="2">
  <advance width="650"/>
  <unicode hex="0AB7"/>
  <outline>
    <contour>
      <point x="282" y="150" type="curve" smooth="yes"/>
      <point x="332" y="150"/>
      <point x="375" y="160"/>
      <point x="412" y="181" type="curve"/>
      <point x="412" y="332" type="line"/>
      <point x="386" y="304"/>
      <point x="351" y="288"/>
      <point x="318" y="288" type="curve" smooth="yes"/>
      <point x="299" y="288"/>
      <point x="285" y="291"/>
      <point x="276" y="299" type="curve" smooth="yes"/>
      <point x="266" y="308"/>
      <point x="261" y="322"/>
      <point x="261" y="340" type="curve" smooth="yes"/>
      <point x="261" y="399" type="line" smooth="yes"/>
      <point x="261" y="434"/>
      <point x="258" y="463"/>
      <point x="251" y="487" type="curve"/>
      <point x="210" y="464" type="line"/>
      <point x="240" y="429"/>
      <point x="287" y="387"/>
      <point x="320" y="365" type="curve" smooth="yes"/>
      <point x="427" y="293" type="line"/>
      <point x="452" y="364" type="line"/>
      <point x="429" y="392"/>
      <point x="399" y="422"/>
      <point x="366" y="446" type="curve" smooth="yes"/>
      <point x="257" y="526" type="line" smooth="yes"/>
      <point x="188" y="577"/>
      <point x="141" y="593"/>
      <point x="65" y="593" type="curve" smooth="yes"/>
      <point x="19" y="593" type="line"/>
      <point x="10" y="455" type="line"/>
      <point x="39" y="455"/>
      <point x="57" y="451"/>
      <point x="69" y="439" type="curve" smooth="yes"/>
      <point x="80" y="428"/>
      <point x="84" y="410"/>
      <point x="84" y="384" type="curve" smooth="yes"/>
      <point x="84" y="330" type="line" smooth="yes"/>
      <point x="84" y="272"/>
      <point x="104" y="225"/>
      <point x="142" y="194" type="curve" smooth="yes"/>
      <point x="176" y="166"/>
      <point x="223" y="150"/>
    </contour>
    <contour>
      <point x="594" y="0" type="curve" smooth="yes"/>
      <point x="634" y="0" type="line"/>
      <point x="647" y="138" type="line"/>
      <point x="618" y="138"/>
      <point x="601" y="141"/>
      <point x="590" y="151" type="curve" smooth="yes"/>
      <point x="578" y="162"/>
      <point x="575" y="180"/>
      <point x="575" y="209" type="curve" smooth="yes"/>
      <point x="575" y="592" type="line"/>
      <point x="398" y="602" type="line"/>
      <point x="398" y="194" type="line" smooth="yes"/>
      <point x="398" y="121"/>
      <point x="411" y="73"/>
      <point x="443" y="42" type="curve" smooth="yes"/>
      <point x="474" y="12"/>
      <point x="523" y="0"/>
    </contour>
  </outline>
</glyph>
<glyph name="sagujr" format="2">
  <advance width="793"/>
  <unicode hex="0AB8"/>
  <outline>
    <contour>
      <point x="443" y="0" type="curve" smooth="yes"/>
      <point x="487" y="0" type="line"/>
      <point x="498" y="140" type="line"/>
      <point x="470" y="140" type="line" smooth="yes"/>
      <point x="374" y="140"/>
      <point x="331" y="168"/>
      <point x="254" y="248" type="curve"/>
      <point x="258" y="265" type="line"/>
      <point x="217" y="309"/>
      <point x="178" y="340"/>
      <point x="120" y="340" type="curve" smooth="yes"/>
      <point x="66" y="340"/>
      <point x="27" y="306"/>
      <point x="27" y="256" type="curve" smooth="yes"/>
      <point x="27" y="186"/>
      <point x="82" y="157"/>
      <point x="163" y="157" type="curve" smooth="yes"/>
      <point x="302" y="157"/>
      <point x="442" y="246"/>
      <point x="442" y="395" type="curve" smooth="yes"/>
      <point x="442" y="510"/>
      <point x="367" y="602"/>
      <point x="207" y="602" type="curve" smooth="yes"/>
      <point x="152" y="602"/>
      <point x="86" y="588"/>
      <point x="28" y="565" type="curve"/>
      <point x="75" y="438" type="line"/>
      <point x="111" y="455"/>
      <point x="149" y="464"/>
      <point x="178" y="464" type="curve" smooth="yes"/>
      <point x="239" y="464"/>
      <point x="268" y="436"/>
      <point x="268" y="393" type="curve" smooth="yes"/>
      <point x="268" y="344"/>
      <point x="229" y="307"/>
      <point x="149" y="296" type="curve"/>
      <point x="121" y="208" type="line"/>
      <point x="207" y="53"/>
      <point x="323" y="0"/>
    </contour>
    <contour>
      <point x="470" y="240" type="curve" smooth="yes"/>
      <point x="524" y="240"/>
      <point x="579" y="257"/>
      <point x="617" y="295" type="curve"/>
      <point x="592" y="440" type="line"/>
      <point x="562" y="400"/>
      <point x="519" y="378"/>
      <point x="476" y="378" type="curve" smooth="yes"/>
      <point x="446" y="378"/>
      <point x="410" y="387"/>
      <point x="384" y="408" type="curve"/>
      <point x="347" y="271" type="line"/>
      <point x="381" y="251"/>
      <point x="422" y="240"/>
    </contour>
    <contour>
      <point x="737" y="0" type="curve" smooth="yes"/>
      <point x="777" y="0" type="line"/>
      <point x="790" y="138" type="line"/>
      <point x="761" y="138"/>
      <point x="744" y="141"/>
      <point x="733" y="151" type="curve" smooth="yes"/>
      <point x="721" y="162"/>
      <point x="718" y="180"/>
      <point x="718" y="209" type="curve" smooth="yes"/>
      <point x="718" y="592" type="line"/>
      <point x="541" y="602" type="line"/>
      <point x="541" y="194" type="line" smooth="yes"/>
      <point x="541" y="121"/>
      <point x="554" y="73"/>
      <point x="586" y="42" type="curve" smooth="yes"/>
      <point x="617" y="12"/>
      <point x="666" y="0"/>
    </contour>
  </outline>
</glyph>
<glyph name="hagujr" format="2">
  <advance width="690"/>
  <unicode hex="0AB9"/>
  <outline>
    <contour>
      <point x="431" y="-14" type="curve" smooth="yes"/>
      <point x="530" y="-14"/>
      <point x="610" y="4"/>
      <point x="694" y="43" type="curve"/>
      <point x="627" y="176" type="line"/>
      <point x="567" y="147"/>
      <point x="506" y="132"/>
      <point x="435" y="132" type="curve" smooth="yes"/>
      <point x="292" y="132"/>
      <point x="205" y="199"/>
      <point x="205" y="305" type="curve" smooth="yes"/>
      <point x="205" y="344"/>
      <point x="213" y="378"/>
      <point x="230" y="414" type="curve"/>
      <point x="63" y="475" type="line"/>
      <point x="37" y="424"/>
      <point x="26" y="375"/>
      <point x="26" y="318" type="curve" smooth="yes"/>
      <point x="26" y="119"/>
      <point x="187" y="-14"/>
    </contour>
    <contour>
      <point x="458" y="164" type="curve" smooth="yes"/>
      <point x="562" y="164"/>
      <point x="630" y="216"/>
      <point x="630" y="296" type="curve" smooth="yes"/>
      <point x="630" y="362"/>
      <point x="588" y="406"/>
      <point x="494" y="440" type="curve" smooth="yes"/>
      <point x="458" y="453"/>
      <point x="449" y="459"/>
      <point x="449" y="469" type="curve" smooth="yes"/>
      <point x="449" y="481"/>
      <point x="459" y="486"/>
      <point x="485" y="486" type="curve" smooth="yes"/>
      <point x="508" y="486"/>
      <point x="532" y="483"/>
      <point x="551" y="478" type="curve"/>
      <point x="577" y="590" type="line"/>
      <point x="535" y="599"/>
      <point x="507" y="602"/>
      <point x="470" y="602" type="curve" smooth="yes"/>
      <point x="359" y="602"/>
      <point x="292" y="554"/>
      <point x="292" y="475" type="curve" smooth="yes"/>
      <point x="292" y="414"/>
      <point x="332" y="372"/>
      <point x="426" y="334" type="curve" smooth="yes"/>
      <point x="461" y="320"/>
      <point x="470" y="313"/>
      <point x="470" y="300" type="curve" smooth="yes"/>
      <point x="470" y="288"/>
      <point x="460" y="281"/>
      <point x="442" y="281" type="curve" smooth="yes"/>
      <point x="403" y="281"/>
      <point x="357" y="310"/>
      <point x="317" y="360" type="curve"/>
      <point x="226" y="280" type="line"/>
      <point x="281" y="209"/>
      <point x="372" y="164"/>
    </contour>
  </outline>
</glyph>
<glyph name="nuktagujr" format="2">
  <unicode hex="0ABC"/>
  <outline>
    <contour>
      <point x="-287" y="-223" type="curve" smooth="yes"/>
      <point x="-236" y="-223"/>
      <point x="-199" y="-185"/>
      <point x="-199" y="-135" type="curve" smooth="yes"/>
      <point x="-199" y="-85"/>
      <point x="-236" y="-47"/>
      <point x="-287" y="-47" type="curve" smooth="yes"/>
      <point x="-339" y="-47"/>
      <point x="-375" y="-85"/>
      <point x="-375" y="-135" type="curve" smooth="yes"/>
      <point x="-375" y="-185"/>
      <point x="-339" y="-223"/>
    </contour>
  </outline>
</glyph>
<glyph name="avagrahagujr" format="2">
  <advance width="512"/>
  <unicode hex="0ABD"/>
  <outline>
    <contour>
      <point x="285" y="23" type="curve" smooth="yes"/>
      <point x="407" y="23"/>
      <point x="486" y="77"/>
      <point x="486" y="174" type="curve" smooth="yes"/>
      <point x="486" y="245"/>
      <point x="455" y="288"/>
      <point x="364" y="361" type="curve" smooth="yes"/>
      <point x="310" y="404"/>
      <point x="297" y="418"/>
      <point x="297" y="434" type="curve" smooth="yes"/>
      <point x="297" y="441"/>
      <point x="300" y="446"/>
      <point x="304" y="449" type="curve" smooth="yes"/>
      <point x="308" y="452"/>
      <point x="314" y="454"/>
      <point x="330" y="454" type="curve" smooth="yes"/>
      <point x="471" y="454" type="line"/>
      <point x="471" y="592" type="line"/>
      <point x="336" y="592" type="line" smooth="yes"/>
      <point x="241" y="592"/>
      <point x="197" y="585"/>
      <point x="165" y="560" type="curve" smooth="yes"/>
      <point x="137" y="538"/>
      <point x="120" y="507"/>
      <point x="120" y="461" type="curve" smooth="yes"/>
      <point x="120" y="405"/>
      <point x="145" y="359"/>
      <point x="217" y="300" type="curve" smooth="yes"/>
      <point x="290" y="240"/>
      <point x="309" y="223"/>
      <point x="309" y="196" type="curve" smooth="yes"/>
      <point x="309" y="174"/>
      <point x="292" y="161"/>
      <point x="263" y="161" type="curve" smooth="yes"/>
      <point x="217" y="161"/>
      <point x="173" y="194"/>
      <point x="131" y="257" type="curve"/>
      <point x="4" y="178" type="line"/>
      <point x="82" y="68"/>
      <point x="171" y="23"/>
    </contour>
  </outline>
</glyph>
<glyph name="aavowelsigngujr" format="2">
  <advance width="316"/>
  <unicode hex="0ABE"/>
  <outline>
    <contour>
      <point x="260" y="0" type="curve" smooth="yes"/>
      <point x="300" y="0" type="line"/>
      <point x="313" y="138" type="line"/>
      <point x="284" y="138"/>
      <point x="267" y="141"/>
      <point x="256" y="151" type="curve" smooth="yes"/>
      <point x="244" y="162"/>
      <point x="241" y="180"/>
      <point x="241" y="209" type="curve" smooth="yes"/>
      <point x="241" y="593" type="line"/>
      <point x="64" y="603" type="line"/>
      <point x="64" y="194" type="line" smooth="yes"/>
      <point x="64" y="121"/>
      <point x="77" y="73"/>
      <point x="109" y="42" type="curve" smooth="yes"/>
      <point x="140" y="12"/>
      <point x="189" y="0"/>
    </contour>
  </outline>
</glyph>
<glyph name="uvowelsigngujr" format="2">
  <unicode hex="0AC1"/>
  <outline>
    <contour>
      <point x="-188" y="-270" type="curve" smooth="yes"/>
      <point x="-70" y="-270"/>
      <point x="5" y="-207"/>
      <point x="5" y="-111" type="curve" smooth="yes"/>
      <point x="5" y="-10"/>
      <point x="-70" y="49"/>
      <point x="-177" y="49" type="curve" smooth="yes"/>
      <point x="-214" y="49"/>
      <point x="-258" y="42"/>
      <point x="-303" y="25" type="curve"/>
      <point x="-263" y="-85" type="line"/>
      <point x="-236" y="-75"/>
      <point x="-210" y="-70"/>
      <point x="-194" y="-70" type="curve" smooth="yes"/>
      <point x="-165" y="-70"/>
      <point x="-146" y="-82"/>
      <point x="-146" y="-106" type="curve" smooth="yes"/>
      <point x="-146" y="-130"/>
      <point x="-168" y="-144"/>
      <point x="-204" y="-144" type="curve" smooth="yes"/>
      <point x="-283" y="-144"/>
      <point x="-342" y="-104"/>
      <point x="-410" y="-18" type="curve"/>
      <point x="-522" y="-99" type="line"/>
      <point x="-425" y="-209"/>
      <point x="-332" y="-270"/>
    </contour>
  </outline>
</glyph>
<glyph name="rvocalicvowelsigngujr" format="2">
  <unicode hex="0AC3"/>
  <outline>
    <contour>
      <point x="54" y="-227" type="curve"/>
      <point x="7" y="-110" type="line"/>
      <point x="-32" y="-131"/>
      <point x="-68" y="-144"/>
      <point x="-105" y="-144" type="curve" smooth="yes"/>
      <point x="-137" y="-144"/>
      <point x="-157" y="-133"/>
      <point x="-157" y="-112" type="curve" smooth="yes"/>
      <point x="-157" y="-88"/>
      <point x="-132" y="-74"/>
      <point x="-75" y="-69" type="curve"/>
      <point x="-75" y="57" type="line"/>
      <point x="-222" y="53"/>
      <point x="-312" y="-10"/>
      <point x="-312" y="-112" type="curve" smooth="yes"/>
      <point x="-312" y="-210"/>
      <point x="-228" y="-270"/>
      <point x="-112" y="-270" type="curve" smooth="yes"/>
      <point x="-46" y="-270"/>
      <point x="5" y="-254"/>
    </contour>
  </outline>
</glyph>
<glyph name="ecandravowelsigngujr" format="2">
  <unicode hex="0AC5"/>
  <outline>
    <contour>
      <point x="-142" y="629" type="curve" smooth="yes"/>
      <point x="-103" y="629"/>
      <point x="-66" y="635"/>
      <point x="-32" y="648" type="curve"/>
      <point x="-75" y="782" type="line"/>
      <point x="-96" y="774"/>
      <point x="-116" y="769"/>
      <point x="-142" y="769" type="curve" smooth="yes"/>
      <point x="-212" y="769"/>
      <point x="-260" y="801"/>
      <point x="-336" y="896" type="curve"/>
      <point x="-449" y="820" type="line"/>
      <point x="-345" y="692"/>
      <point x="-264" y="629"/>
    </contour>
  </outline>
</glyph>
<glyph name="evowelsigngujr" format="2">
  <unicode hex="0AC7"/>
  <outline>
    <contour>
      <point x="-243" y="628" type="curve"/>
      <point x="-89" y="628" type="line"/>
      <point x="-133" y="835"/>
      <point x="-207" y="896"/>
      <point x="-339" y="896" type="curve" smooth="yes"/>
      <point x="-379" y="896"/>
      <point x="-422" y="889"/>
      <point x="-457" y="879" type="curve"/>
      <point x="-415" y="750" type="line"/>
      <point x="-397" y="755"/>
      <point x="-377" y="758"/>
      <point x="-359" y="758" type="curve" smooth="yes"/>
      <point x="-297" y="758"/>
      <point x="-264" y="725"/>
    </contour>
  </outline>
</glyph>
<glyph name="aivowelsigngujr" format="2">
  <unicode hex="0AC8"/>
  <outline>
    <contour>
      <point x="-212" y="631" type="curve"/>
      <point x="-77" y="631" type="line"/>
      <point x="-116" y="827"/>
      <point x="-175" y="896"/>
      <point x="-309" y="896" type="curve" smooth="yes"/>
      <point x="-345" y="896"/>
      <point x="-380" y="891"/>
      <point x="-412" y="883" type="curve"/>
      <point x="-374" y="774" type="line"/>
      <point x="-358" y="778"/>
      <point x="-343" y="780"/>
      <point x="-320" y="780" type="curve" smooth="yes"/>
      <point x="-272" y="780"/>
      <point x="-236" y="753"/>
    </contour>
    <contour>
      <point x="-279" y="609" type="curve"/>
      <point x="-223" y="686" type="line"/>
      <point x="-316" y="759"/>
      <point x="-379" y="775"/>
      <point x="-442" y="775" type="curve" smooth="yes"/>
      <point x="-483" y="775"/>
      <point x="-510" y="770"/>
      <point x="-541" y="760" type="curve"/>
      <point x="-505" y="656" type="line"/>
      <point x="-483" y="662"/>
      <point x="-454" y="665"/>
      <point x="-435" y="665" type="curve" smooth="yes"/>
      <point x="-393" y="665"/>
      <point x="-349" y="656"/>
    </contour>
  </outline>
</glyph>
<glyph name="viramagujr" format="2">
  <unicode hex="0ACD"/>
  <outline>
    <contour>
      <point x="13" y="-270" type="curve"/>
      <point x="119" y="-200" type="line"/>
      <point x="22" y="-72"/>
      <point x="-50" y="-38"/>
      <point x="-156" y="-38" type="curve" smooth="yes"/>
      <point x="-183" y="-38"/>
      <point x="-222" y="-44"/>
      <point x="-250" y="-53" type="curve"/>
      <point x="-209" y="-181" type="line"/>
      <point x="-190" y="-176"/>
      <point x="-171" y="-173"/>
      <point x="-152" y="-173" type="curve" smooth="yes"/>
      <point x="-87" y="-173"/>
      <point x="-51" y="-198"/>
    </contour>
  </outline>
</glyph>
<glyph name="omgujr" format="2">
  <advance width="1042"/>
  <unicode hex="0AD0"/>
  <outline>
    <contour>
      <point x="306" y="-10" type="curve" smooth="yes"/>
      <point x="436" y="-10"/>
      <point x="534" y="49"/>
      <point x="534" y="163" type="curve" smooth="yes"/>
      <point x="534" y="192"/>
      <point x="529" y="211"/>
      <point x="516" y="242" type="curve"/>
      <point x="471" y="219" type="line"/>
      <point x="491" y="211"/>
      <point x="521" y="206"/>
      <point x="540" y="206" type="curve" smooth="yes"/>
      <point x="611" y="206"/>
      <point x="654" y="234"/>
      <point x="691" y="288" type="curve" smooth="yes"/>
      <point x="729" y="344" type="line" smooth="yes"/>
      <point x="757" y="385"/>
      <point x="770" y="398"/>
      <point x="799" y="398" type="curve" smooth="yes"/>
      <point x="829" y="398"/>
      <point x="844" y="374"/>
      <point x="844" y="331" type="curve" smooth="yes"/>
      <point x="844" y="279"/>
      <point x="822" y="259"/>
      <point x="792" y="259" type="curve" smooth="yes"/>
      <point x="773" y="259"/>
      <point x="755" y="262"/>
      <point x="728" y="282" type="curve"/>
      <point x="643" y="179" type="line"/>
      <point x="687" y="142"/>
      <point x="749" y="123"/>
      <point x="814" y="123" type="curve" smooth="yes"/>
      <point x="934" y="123"/>
      <point x="1021" y="196"/>
      <point x="1021" y="332" type="curve" smooth="yes"/>
      <point x="1021" y="449"/>
      <point x="952" y="536"/>
      <point x="806" y="536" type="curve" smooth="yes"/>
      <point x="707" y="536"/>
      <point x="641" y="498"/>
      <point x="577" y="402" type="curve" smooth="yes"/>
      <point x="558" y="374" type="line" smooth="yes"/>
      <point x="527" y="328"/>
      <point x="505" y="317"/>
      <point x="488" y="317" type="curve" smooth="yes"/>
      <point x="486" y="317"/>
      <point x="484" y="317"/>
      <point x="479" y="318" type="curve"/>
      <point x="476" y="320"/>
      <point x="474" y="321"/>
      <point x="471" y="322" type="curve"/>
      <point x="501" y="351"/>
      <point x="517" y="389"/>
      <point x="517" y="433" type="curve" smooth="yes"/>
      <point x="517" y="532"/>
      <point x="444" y="603"/>
      <point x="299" y="603" type="curve" smooth="yes"/>
      <point x="223" y="603"/>
      <point x="161" y="587"/>
      <point x="106" y="564" type="curve"/>
      <point x="151" y="432" type="line"/>
      <point x="190" y="452"/>
      <point x="238" y="465"/>
      <point x="277" y="465" type="curve" smooth="yes"/>
      <point x="324" y="465"/>
      <point x="340" y="450"/>
      <point x="340" y="428" type="curve" smooth="yes"/>
      <point x="340" y="388"/>
      <point x="269" y="372"/>
      <point x="185" y="369" type="curve"/>
      <point x="215" y="231" type="line"/>
      <point x="247" y="233"/>
      <point x="283" y="237"/>
      <point x="315" y="243" type="curve"/>
      <point x="341" y="224"/>
      <point x="357" y="204"/>
      <point x="357" y="176" type="curve" smooth="yes"/>
      <point x="357" y="147"/>
      <point x="336" y="128"/>
      <point x="294" y="128" type="curve" smooth="yes"/>
      <point x="229" y="128"/>
      <point x="177" y="167"/>
      <point x="132" y="224" type="curve"/>
      <point x="4" y="148" type="line"/>
      <point x="75" y="47"/>
      <point x="178" y="-10"/>
    </contour>
    <contour>
      <point x="536" y="618" type="curve" smooth="yes"/>
      <point x="662" y="618"/>
      <point x="744" y="683"/>
      <point x="786" y="805" type="curve"/>
      <point x="660" y="850" type="line"/>
      <point x="636" y="772"/>
      <point x="595" y="734"/>
      <point x="536" y="734" type="curve" smooth="yes"/>
      <point x="477" y="734"/>
      <point x="436" y="772"/>
      <point x="412" y="850" type="curve"/>
      <point x="286" y="805" type="line"/>
      <point x="327" y="683"/>
      <point x="410" y="618"/>
    </contour>
    <contour>
      <point x="536" y="756" type="curve" smooth="yes"/>
      <point x="575" y="756"/>
      <point x="606" y="787"/>
      <point x="606" y="826" type="curve" smooth="yes"/>
      <point x="606" y="865"/>
      <point x="575" y="896"/>
      <point x="536" y="896" type="curve" smooth="yes"/>
      <point x="497" y="896"/>
      <point x="466" y="865"/>
      <point x="466" y="826" type="curve" smooth="yes"/>
      <point x="466" y="787"/>
      <point x="497" y="756"/>
    </contour>
  </outline>
</glyph>
<glyph name="rrvocalicgujr" format="2">
  <advance width="1026"/>
  <unicode hex="0AE0"/>
  <outline>
    <contour>
      <point x="626" y="0" type="curve" smooth="yes"/>
      <point x="666" y="0" type="line"/>
      <point x="679" y="138" type="line"/>
      <point x="650" y="138"/>
      <point x="633" y="141"/>
      <point x="622" y="151" type="curve" smooth="yes"/>
      <point x="610" y="162"/>
      <point x="607" y="180"/>
      <point x="607" y="209" type="curve" smooth="yes"/>
      <point x="607" y="592" type="line"/>
      <point x="430" y="602" type="line"/>
      <point x="430" y="194" type="line" smooth="yes"/>
      <point x="430" y="121"/>
      <point x="443" y="73"/>
      <point x="475" y="42" type="curve" smooth="yes"/>
      <point x="506" y="12"/>
      <point x="555" y="0"/>
    </contour>
    <contour>
      <point x="194" y="79" type="line"/>
      <point x="524" y="305" type="line"/>
      <point x="454" y="422" type="line"/>
      <point x="96" y="227" type="line"/>
    </contour>
    <contour>
      <point x="316" y="327" type="curve"/>
      <point x="433" y="399" type="line"/>
      <point x="360" y="501"/>
      <point x="300" y="562"/>
      <point x="182" y="562" type="curve" smooth="yes"/>
      <point x="114" y="562"/>
      <point x="58" y="543"/>
      <point x="9" y="521" type="curve"/>
      <point x="58" y="395" type="line"/>
      <point x="96" y="412"/>
      <point x="133" y="424"/>
      <point x="171" y="424" type="curve" smooth="yes"/>
      <point x="238" y="424"/>
      <point x="271" y="388"/>
    </contour>
    <contour>
      <point x="904" y="-1" type="curve" smooth="yes"/>
      <point x="962" y="-1"/>
      <point x="1013" y="14"/>
      <point x="1056" y="38" type="curve"/>
      <point x="1009" y="153" type="line"/>
      <point x="982" y="135"/>
      <point x="952" y="123"/>
      <point x="920" y="123" type="curve" smooth="yes"/>
      <point x="886" y="123"/>
      <point x="866" y="130"/>
      <point x="866" y="155" type="curve" smooth="yes"/>
      <point x="866" y="179"/>
      <point x="899" y="195"/>
      <point x="948" y="198" type="curve"/>
      <point x="858" y="305" type="line"/>
      <point x="763" y="280"/>
      <point x="711" y="230"/>
      <point x="711" y="151" type="curve" smooth="yes"/>
      <point x="711" y="59"/>
      <point x="790" y="-1"/>
    </contour>
    <contour>
      <point x="948" y="198" type="line"/>
      <point x="935" y="250"/>
      <point x="917" y="309"/>
      <point x="893" y="357" type="curve"/>
      <point x="909" y="377"/>
      <point x="918" y="402"/>
      <point x="918" y="430" type="curve" smooth="yes"/>
      <point x="918" y="491"/>
      <point x="877" y="538"/>
      <point x="810" y="538" type="curve" smooth="yes"/>
      <point x="746" y="538"/>
      <point x="707" y="500"/>
      <point x="707" y="450" type="curve" smooth="yes"/>
      <point x="707" y="421"/>
      <point x="713" y="399"/>
      <point x="741" y="352" type="curve"/>
      <point x="778" y="437" type="line"/>
      <point x="751" y="427"/>
      <point x="726" y="419"/>
      <point x="700" y="419" type="curve" smooth="yes"/>
      <point x="647" y="419"/>
      <point x="601" y="450"/>
      <point x="559" y="517" type="curve"/>
      <point x="546" y="342" type="line"/>
      <point x="596" y="300"/>
      <point x="655" y="282"/>
      <point x="707" y="282" type="curve" smooth="yes"/>
      <point x="738" y="282"/>
      <point x="790" y="292"/>
      <point x="811" y="305" type="curve"/>
      <point x="751" y="323" type="line"/>
      <point x="767" y="293"/>
      <point x="776" y="272"/>
      <point x="785" y="249" type="curve"/>
    </contour>
  </outline>
</glyph>
<glyph name="llvocalicgujr" format="2">
  <advance width="800"/>
  <unicode hex="0AE1"/>
  <outline>
    <contour>
      <point x="690" y="-62" type="curve" smooth="yes"/>
      <point x="750" y="-62"/>
      <point x="799" y="-49"/>
      <point x="837" y="-28" type="curve"/>
      <point x="792" y="87" type="line"/>
      <point x="757" y="69"/>
      <point x="723" y="59"/>
      <point x="687" y="59" type="curve" smooth="yes"/>
      <point x="647" y="59"/>
      <point x="623" y="68"/>
      <point x="623" y="94" type="curve" smooth="yes"/>
      <point x="623" y="127"/>
      <point x="664" y="137"/>
      <point x="736" y="145" type="curve"/>
      <point x="760" y="188"/>
      <point x="770" y="235"/>
      <point x="770" y="275" type="curve" smooth="yes"/>
      <point x="770" y="377"/>
      <point x="692" y="469"/>
      <point x="565" y="469" type="curve" smooth="yes"/>
      <point x="411" y="469"/>
      <point x="323" y="379"/>
      <point x="291" y="241" type="curve"/>
      <point x="449" y="197" type="line"/>
      <point x="472" y="293"/>
      <point x="503" y="334"/>
      <point x="547" y="334" type="curve" smooth="yes"/>
      <point x="579" y="334"/>
      <point x="595" y="313"/>
      <point x="595" y="281" type="curve" smooth="yes"/>
      <point x="595" y="264"/>
      <point x="592" y="243"/>
      <point x="586" y="226" type="curve"/>
      <point x="510" y="203"/>
      <point x="472" y="156"/>
      <point x="472" y="94" type="curve" smooth="yes"/>
      <point x="472" y="5"/>
      <point x="563" y="-62"/>
    </contour>
    <contour>
      <point x="215" y="4" type="curve"/>
      <point x="333" y="119" type="line"/>
      <point x="248" y="185"/>
      <point x="203" y="233"/>
      <point x="203" y="281" type="curve" smooth="yes"/>
      <point x="203" y="313"/>
      <point x="224" y="334"/>
      <point x="260" y="334" type="curve" smooth="yes"/>
      <point x="307" y="334"/>
      <point x="341" y="297"/>
      <point x="377" y="256" type="curve"/>
      <point x="457" y="375" type="line"/>
      <point x="387" y="438"/>
      <point x="316" y="472"/>
      <point x="231" y="472" type="curve" smooth="yes"/>
      <point x="108" y="472"/>
      <point x="26" y="402"/>
      <point x="26" y="294" type="curve" smooth="yes"/>
      <point x="26" y="178"/>
      <point x="109" y="89"/>
    </contour>
    <contour>
      <point x="737" y="-234" type="curve" smooth="yes"/>
      <point x="797" y="-234"/>
      <point x="846" y="-221"/>
      <point x="884" y="-200" type="curve"/>
      <point x="839" y="-85" type="line"/>
      <point x="806" y="-103"/>
      <point x="775" y="-113"/>
      <point x="741" y="-113" type="curve" smooth="yes"/>
      <point x="690" y="-113"/>
      <point x="670" y="-102"/>
      <point x="670" y="-77" type="curve" smooth="yes"/>
      <point x="670" y="-64"/>
      <point x="677" y="-53"/>
      <point x="691" y="-47" type="curve"/>
      <point x="543" y="-4" type="line"/>
      <point x="528" y="-24"/>
      <point x="519" y="-48"/>
      <point x="519" y="-74" type="curve" smooth="yes"/>
      <point x="519" y="-168"/>
      <point x="605" y="-234"/>
    </contour>
    <contour>
      <point x="473" y="407" type="line"/>
      <point x="650" y="407" type="line"/>
      <point x="650" y="592" type="line"/>
      <point x="473" y="602" type="line"/>
    </contour>
  </outline>
</glyph>
<glyph name="lvocalicvowelsigngujr" format="2">
  <unicode hex="0AE2"/>
  <outline>
    <contour>
      <point x="-24" y="-407" type="curve" smooth="yes"/>
      <point x="31" y="-407"/>
      <point x="75" y="-394"/>
      <point x="109" y="-375" type="curve"/>
      <point x="68" y="-272" type="line"/>
      <point x="45" y="-286"/>
      <point x="16" y="-297"/>
      <point x="-8" y="-297" type="curve" smooth="yes"/>
      <point x="-31" y="-297"/>
      <point x="-45" y="-288"/>
      <point x="-45" y="-270" type="curve" smooth="yes"/>
      <point x="-45" y="-247"/>
      <point x="-17" y="-233"/>
      <point x="40" y="-229" type="curve"/>
      <point x="53" y="-205"/>
      <point x="60" y="-174"/>
      <point x="60" y="-142" type="curve" smooth="yes"/>
      <point x="60" y="-63"/>
      <point x="0" y="10"/>
      <point x="-108" y="10" type="curve" smooth="yes"/>
      <point x="-223" y="10"/>
      <point x="-290" y="-55"/>
      <point x="-320" y="-160" type="curve"/>
      <point x="-182" y="-198" type="line"/>
      <point x="-170" y="-139"/>
      <point x="-152" y="-110"/>
      <point x="-125" y="-110" type="curve" smooth="yes"/>
      <point x="-106" y="-110"/>
      <point x="-96" y="-124"/>
      <point x="-96" y="-143" type="curve" smooth="yes"/>
      <point x="-96" y="-168"/>
      <point x="-106" y="-192"/>
      <point x="-126" y="-216" type="curve"/>
      <point x="-40" y="-155" type="line"/>
      <point x="-122" y="-167"/>
      <point x="-180" y="-214"/>
      <point x="-180" y="-285" type="curve" smooth="yes"/>
      <point x="-180" y="-357"/>
      <point x="-115" y="-407"/>
    </contour>
    <contour>
      <point x="-393" y="-363" type="curve"/>
      <point x="-290" y="-268" type="line"/>
      <point x="-348" y="-220"/>
      <point x="-378" y="-186"/>
      <point x="-378" y="-150" type="curve" smooth="yes"/>
      <point x="-378" y="-126"/>
      <point x="-363" y="-110"/>
      <point x="-336" y="-110" type="curve" smooth="yes"/>
      <point x="-312" y="-110"/>
      <point x="-297" y="-120"/>
      <point x="-282" y="-132" type="curve"/>
      <point x="-224" y="-39" type="line"/>
      <point x="-266" y="-10"/>
      <point x="-314" y="10"/>
      <point x="-378" y="10" type="curve" smooth="yes"/>
      <point x="-473" y="10"/>
      <point x="-538" y="-46"/>
      <point x="-538" y="-132" type="curve" smooth="yes"/>
      <point x="-538" y="-214"/>
      <point x="-483" y="-292"/>
    </contour>
  </outline>
</glyph>
<glyph name="llvocalicvowelsigngujr" format="2">
  <unicode hex="0AE3"/>
  <outline>
    <contour>
      <point x="18" y="-279" type="curve" smooth="yes"/>
      <point x="69" y="-279"/>
      <point x="111" y="-270"/>
      <point x="143" y="-256" type="curve"/>
      <point x="100" y="-168" type="line"/>
      <point x="77" y="-181"/>
      <point x="50" y="-189"/>
      <point x="24" y="-189" type="curve" smooth="yes"/>
      <point x="4" y="-189"/>
      <point x="-8" y="-182"/>
      <point x="-8" y="-169" type="curve" smooth="yes"/>
      <point x="-8" y="-151"/>
      <point x="19" y="-143"/>
      <point x="60" y="-139" type="curve"/>
      <point x="55" y="-58"/>
      <point x="0" y="10"/>
      <point x="-108" y="10" type="curve" smooth="yes"/>
      <point x="-223" y="10"/>
      <point x="-289" y="-55"/>
      <point x="-320" y="-160" type="curve"/>
      <point x="-182" y="-198" type="line"/>
      <point x="-167" y="-131"/>
      <point x="-148" y="-105"/>
      <point x="-110" y="-105" type="curve" smooth="yes"/>
      <point x="-91" y="-105"/>
      <point x="-79" y="-115"/>
      <point x="-67" y="-136" type="curve"/>
      <point x="-17" y="-91" type="line"/>
      <point x="-82" y="-104"/>
      <point x="-128" y="-135"/>
      <point x="-128" y="-185" type="curve" smooth="yes"/>
      <point x="-128" y="-245"/>
      <point x="-67" y="-279"/>
    </contour>
    <contour>
      <point x="-393" y="-363" type="curve"/>
      <point x="-290" y="-268" type="line"/>
      <point x="-348" y="-220"/>
      <point x="-378" y="-186"/>
      <point x="-378" y="-150" type="curve" smooth="yes"/>
      <point x="-378" y="-124"/>
      <point x="-364" y="-110"/>
      <point x="-336" y="-110" type="curve" smooth="yes"/>
      <point x="-314" y="-110"/>
      <point x="-297" y="-120"/>
      <point x="-282" y="-132" type="curve"/>
      <point x="-224" y="-39" type="line"/>
      <point x="-266" y="-10"/>
      <point x="-314" y="10"/>
      <point x="-378" y="10" type="curve" smooth="yes"/>
      <point x="-473" y="10"/>
      <point x="-538" y="-46"/>
      <point x="-538" y="-132" type="curve" smooth="yes"/>
      <point x="-538" y="-214"/>
      <point x="-483" y="-292"/>
    </contour>
    <contour>
      <point x="67" y="-402" type="curve" smooth="yes"/>
      <point x="117" y="-402"/>
      <point x="160" y="-391"/>
      <point x="191" y="-375" type="curve"/>
      <point x="148" y="-288" type="line"/>
      <point x="124" y="-303"/>
      <point x="98" y="-312"/>
      <point x="71" y="-312" type="curve" smooth="yes"/>
      <point x="38" y="-312"/>
      <point x="20" y="-306"/>
      <point x="20" y="-285" type="curve" smooth="yes"/>
      <point x="20" y="-277"/>
      <point x="23" y="-270"/>
      <point x="28" y="-264" type="curve"/>
      <point x="-78" y="-245" type="line"/>
      <point x="-86" y="-258"/>
      <point x="-91" y="-273"/>
      <point x="-91" y="-290" type="curve" smooth="yes"/>
      <point x="-91" y="-361"/>
      <point x="-25" y="-402"/>
    </contour>
  </outline>
</glyph>
<glyph name="zerogujr" format="2">
  <advance width="592"/>
  <unicode hex="0AE6"/>
  <outline>
    <contour>
      <point x="296" y="78" type="curve" smooth="yes"/>
      <point x="466" y="78"/>
      <point x="552" y="185"/>
      <point x="552" y="305" type="curve" smooth="yes"/>
      <point x="552" y="425"/>
      <point x="466" y="532"/>
      <point x="296" y="532" type="curve" smooth="yes"/>
      <point x="126" y="532"/>
      <point x="40" y="425"/>
      <point x="40" y="305" type="curve" smooth="yes"/>
      <point x="40" y="185"/>
      <point x="126" y="78"/>
    </contour>
    <contour>
      <point x="296" y="216" type="curve" smooth="yes"/>
      <point x="245" y="216"/>
      <point x="217" y="253"/>
      <point x="217" y="305" type="curve" smooth="yes"/>
      <point x="217" y="357"/>
      <point x="245" y="394"/>
      <point x="296" y="394" type="curve" smooth="yes"/>
      <point x="347" y="394"/>
      <point x="375" y="357"/>
      <point x="375" y="305" type="curve" smooth="yes"/>
      <point x="375" y="253"/>
      <point x="347" y="216"/>
    </contour>
  </outline>
</glyph>
<glyph name="onegujr" format="2">
  <advance width="592"/>
  <unicode hex="0AE7"/>
  <outline>
    <contour>
      <point x="507" y="0" type="curve" smooth="yes"/>
      <point x="547" y="0" type="line"/>
      <point x="560" y="138" type="line"/>
      <point x="531" y="138"/>
      <point x="514" y="141"/>
      <point x="503" y="151" type="curve" smooth="yes"/>
      <point x="491" y="162"/>
      <point x="488" y="180"/>
      <point x="488" y="209" type="curve" smooth="yes"/>
      <point x="488" y="375" type="line" smooth="yes"/>
      <point x="488" y="444"/>
      <point x="471" y="498"/>
      <point x="438" y="537" type="curve" smooth="yes"/>
      <point x="402" y="580"/>
      <point x="350" y="602"/>
      <point x="276" y="602" type="curve" smooth="yes"/>
      <point x="146" y="602"/>
      <point x="63" y="529"/>
      <point x="63" y="416" type="curve" smooth="yes"/>
      <point x="63" y="302"/>
      <point x="147" y="232"/>
      <point x="262" y="232" type="curve" smooth="yes"/>
      <point x="306" y="232"/>
      <point x="347" y="241"/>
      <point x="381" y="258" type="curve"/>
      <point x="361" y="398" type="line"/>
      <point x="333" y="376"/>
      <point x="307" y="366"/>
      <point x="276" y="366" type="curve" smooth="yes"/>
      <point x="242" y="366"/>
      <point x="223" y="387"/>
      <point x="223" y="418" type="curve" smooth="yes"/>
      <point x="223" y="448"/>
      <point x="242" y="468"/>
      <point x="271" y="468" type="curve" smooth="yes"/>
      <point x="289" y="468"/>
      <point x="299" y="462"/>
      <point x="306" y="452" type="curve" smooth="yes"/>
      <point x="312" y="443"/>
      <point x="315" y="429"/>
      <point x="315" y="413" type="curve" smooth="yes"/>
      <point x="315" y="194" type="line" smooth="yes"/>
      <point x="315" y="121"/>
      <point x="326" y="73"/>
      <point x="358" y="42" type="curve" smooth="yes"/>
      <point x="389" y="12"/>
      <point x="437" y="0"/>
    </contour>
  </outline>
</glyph>
<glyph name="twogujr" format="2">
  <advance width="592"/>
  <unicode hex="0AE8"/>
  <outline>
    <contour>
      <point x="459" y="0" type="curve" smooth="yes"/>
      <point x="506" y="0"/>
      <point x="546" y="8"/>
      <point x="584" y="26" type="curve"/>
      <point x="531" y="163" type="line"/>
      <point x="511" y="151"/>
      <point x="485" y="142"/>
      <point x="460" y="142" type="curve" smooth="yes"/>
      <point x="426" y="142"/>
      <point x="373" y="147"/>
      <point x="317" y="247" type="curve"/>
      <point x="302" y="267" type="line"/>
      <point x="261" y="310"/>
      <point x="223" y="340"/>
      <point x="164" y="340" type="curve" smooth="yes"/>
      <point x="111" y="340"/>
      <point x="71" y="307"/>
      <point x="71" y="256" type="curve" smooth="yes"/>
      <point x="71" y="184"/>
      <point x="130" y="157"/>
      <point x="207" y="157" type="curve" smooth="yes"/>
      <point x="355" y="157"/>
      <point x="502" y="249"/>
      <point x="502" y="395" type="curve" smooth="yes"/>
      <point x="502" y="510"/>
      <point x="420" y="602"/>
      <point x="261" y="602" type="curve" smooth="yes"/>
      <point x="198" y="602"/>
      <point x="132" y="588"/>
      <point x="74" y="565" type="curve"/>
      <point x="121" y="438" type="line"/>
      <point x="157" y="455"/>
      <point x="198" y="464"/>
      <point x="231" y="464" type="curve" smooth="yes"/>
      <point x="294" y="464"/>
      <point x="325" y="436"/>
      <point x="325" y="393" type="curve" smooth="yes"/>
      <point x="325" y="344"/>
      <point x="275" y="307"/>
      <point x="195" y="296" type="curve"/>
      <point x="179" y="208" type="line"/>
      <point x="243" y="66"/>
      <point x="337" y="0"/>
    </contour>
  </outline>
</glyph>
<glyph name="threegujr" format="2">
  <advance width="592"/>
  <unicode hex="0AE9"/>
  <outline>
    <contour>
      <point x="314" y="-10" type="curve" smooth="yes"/>
      <point x="445" y="-10"/>
      <point x="533" y="60"/>
      <point x="533" y="164" type="curve" smooth="yes"/>
      <point x="533" y="234"/>
      <point x="498" y="299"/>
      <point x="415" y="353" type="curve"/>
      <point x="279" y="310" type="line"/>
      <point x="279" y="266" type="line"/>
      <point x="332" y="237"/>
      <point x="356" y="210"/>
      <point x="356" y="174" type="curve" smooth="yes"/>
      <point x="356" y="146"/>
      <point x="335" y="128"/>
      <point x="300" y="128" type="curve" smooth="yes"/>
      <point x="237" y="128"/>
      <point x="192" y="164"/>
      <point x="147" y="224" type="curve"/>
      <point x="19" y="148" type="line"/>
      <point x="88" y="47"/>
      <point x="186" y="-10"/>
    </contour>
    <contour>
      <point x="229" y="221" type="line"/>
      <point x="408" y="240"/>
      <point x="520" y="298"/>
      <point x="520" y="428" type="curve" smooth="yes"/>
      <point x="520" y="531"/>
      <point x="433" y="602"/>
      <point x="306" y="602" type="curve" smooth="yes"/>
      <point x="239" y="602"/>
      <point x="174" y="589"/>
      <point x="108" y="564" type="curve"/>
      <point x="154" y="434" type="line"/>
      <point x="202" y="452"/>
      <point x="249" y="464"/>
      <point x="287" y="464" type="curve" smooth="yes"/>
      <point x="325" y="464"/>
      <point x="343" y="450"/>
      <point x="343" y="424" type="curve" smooth="yes"/>
      <point x="343" y="384"/>
      <point x="293" y="365"/>
      <point x="199" y="359" type="curve"/>
    </contour>
  </outline>
</glyph>
<glyph name="fourgujr" format="2">
  <advance width="592"/>
  <unicode hex="0AEA"/>
  <outline>
    <contour>
      <point x="296" y="-10" type="curve" smooth="yes"/>
      <point x="428" y="-10"/>
      <point x="505" y="65"/>
      <point x="505" y="170" type="curve" smooth="yes"/>
      <point x="505" y="229"/>
      <point x="475" y="288"/>
      <point x="414" y="343" type="curve"/>
      <point x="461" y="386"/>
      <point x="519" y="434"/>
      <point x="582" y="481" type="curve"/>
      <point x="466" y="603" type="line"/>
      <point x="407" y="552"/>
      <point x="352" y="503"/>
      <point x="300" y="454" type="curve"/>
      <point x="248" y="501"/>
      <point x="190" y="551"/>
      <point x="126" y="603" type="curve"/>
      <point x="12" y="474" type="line"/>
      <point x="73" y="432"/>
      <point x="127" y="392"/>
      <point x="176" y="352" type="curve"/>
      <point x="117" y="294"/>
      <point x="84" y="234"/>
      <point x="84" y="170" type="curve" smooth="yes"/>
      <point x="84" y="64"/>
      <point x="163" y="-10"/>
    </contour>
    <contour>
      <point x="294" y="126" type="curve" smooth="yes"/>
      <point x="269" y="126"/>
      <point x="255" y="140"/>
      <point x="255" y="167" type="curve" smooth="yes"/>
      <point x="255" y="189"/>
      <point x="267" y="218"/>
      <point x="297" y="249" type="curve"/>
      <point x="323" y="218"/>
      <point x="333" y="189"/>
      <point x="333" y="167" type="curve" smooth="yes"/>
      <point x="333" y="140"/>
      <point x="319" y="126"/>
    </contour>
  </outline>
</glyph>
<glyph name="fivegujr" format="2">
  <advance width="592"/>
  <unicode hex="0AEB"/>
  <outline>
    <contour>
      <point x="259" y="149" type="curve" smooth="yes"/>
      <point x="305" y="149"/>
      <point x="347" y="160"/>
      <point x="382" y="181" type="curve"/>
      <point x="382" y="346" type="line"/>
      <point x="357" y="311"/>
      <point x="325" y="287"/>
      <point x="293" y="287" type="curve" smooth="yes"/>
      <point x="280" y="287"/>
      <point x="269" y="290"/>
      <point x="261" y="296" type="curve" smooth="yes"/>
      <point x="250" y="304"/>
      <point x="244" y="318"/>
      <point x="244" y="339" type="curve" smooth="yes"/>
      <point x="244" y="398" type="line" smooth="yes"/>
      <point x="244" y="443"/>
      <point x="241" y="505"/>
      <point x="204" y="545" type="curve" smooth="yes"/>
      <point x="169" y="582"/>
      <point x="119" y="592"/>
      <point x="48" y="592" type="curve" smooth="yes"/>
      <point x="10" y="592" type="line"/>
      <point x="1" y="454" type="line"/>
      <point x="28" y="454"/>
      <point x="45" y="448"/>
      <point x="56" y="433" type="curve" smooth="yes"/>
      <point x="64" y="422"/>
      <point x="67" y="406"/>
      <point x="67" y="383" type="curve" smooth="yes"/>
      <point x="67" y="329" type="line" smooth="yes"/>
      <point x="67" y="272"/>
      <point x="85" y="226"/>
      <point x="121" y="194" type="curve" smooth="yes"/>
      <point x="153" y="165"/>
      <point x="200" y="149"/>
    </contour>
    <contour>
      <point x="539" y="0" type="curve" smooth="yes"/>
      <point x="579" y="0" type="line"/>
      <point x="592" y="138" type="line"/>
      <point x="563" y="138"/>
      <point x="546" y="141"/>
      <point x="535" y="151" type="curve" smooth="yes"/>
      <point x="523" y="162"/>
      <point x="520" y="180"/>
      <point x="520" y="209" type="curve" smooth="yes"/>
      <point x="520" y="592" type="line"/>
      <point x="343" y="602" type="line"/>
      <point x="343" y="194" type="line" smooth="yes"/>
      <point x="343" y="121"/>
      <point x="356" y="73"/>
      <point x="388" y="42" type="curve" smooth="yes"/>
      <point x="419" y="12"/>
      <point x="468" y="0"/>
    </contour>
  </outline>
</glyph>
<glyph name="sixgujr" format="2">
  <advance width="592"/>
  <unicode hex="0AEC"/>
  <outline>
    <contour>
      <point x="477" y="-195" type="line"/>
      <point x="522" y="-144"/>
      <point x="552" y="-102"/>
      <point x="552" y="-37" type="curve" smooth="yes"/>
      <point x="552" y="37"/>
      <point x="515" y="76"/>
      <point x="402" y="123" type="curve" smooth="yes"/>
      <point x="321" y="157"/>
      <point x="292" y="173"/>
      <point x="292" y="205" type="curve" smooth="yes"/>
      <point x="292" y="235"/>
      <point x="317" y="252"/>
      <point x="369" y="252" type="curve" smooth="yes"/>
      <point x="391" y="252"/>
      <point x="420" y="249"/>
      <point x="446" y="244" type="curve"/>
      <point x="471" y="379" type="line"/>
      <point x="436" y="386"/>
      <point x="402" y="390"/>
      <point x="363" y="390" type="curve" smooth="yes"/>
      <point x="229" y="390"/>
      <point x="115" y="315"/>
      <point x="115" y="203" type="curve" smooth="yes"/>
      <point x="115" y="120"/>
      <point x="167" y="67"/>
      <point x="265" y="22" type="curve" smooth="yes"/>
      <point x="347" y="-16"/>
      <point x="365" y="-28"/>
      <point x="365" y="-56" type="curve" smooth="yes"/>
      <point x="365" y="-73"/>
      <point x="357" y="-86"/>
      <point x="344" y="-101" type="curve"/>
    </contour>
    <contour>
      <point x="195" y="264" type="curve"/>
      <point x="325" y="356" type="line"/>
      <point x="285" y="370"/>
      <point x="256" y="387"/>
      <point x="256" y="419" type="curve" smooth="yes"/>
      <point x="256" y="450"/>
      <point x="284" y="464"/>
      <point x="335" y="464" type="curve" smooth="yes"/>
      <point x="364" y="464"/>
      <point x="393" y="460"/>
      <point x="417" y="453" type="curve"/>
      <point x="444" y="586" type="line"/>
      <point x="402" y="596"/>
      <point x="357" y="602"/>
      <point x="308" y="602" type="curve" smooth="yes"/>
      <point x="166" y="602"/>
      <point x="79" y="541"/>
      <point x="79" y="441" type="curve" smooth="yes"/>
      <point x="79" y="378"/>
      <point x="115" y="323"/>
    </contour>
  </outline>
</glyph>
<glyph name="sevengujr" format="2">
  <advance width="592"/>
  <unicode hex="0AED"/>
  <outline>
    <contour>
      <point x="311" y="-10" type="curve" smooth="yes"/>
      <point x="478" y="-10"/>
      <point x="564" y="121"/>
      <point x="564" y="283" type="curve" smooth="yes"/>
      <point x="564" y="464"/>
      <point x="474" y="602"/>
      <point x="299" y="602" type="curve" smooth="yes"/>
      <point x="170" y="602"/>
      <point x="95" y="531"/>
      <point x="95" y="433" type="curve" smooth="yes"/>
      <point x="95" y="318"/>
      <point x="199" y="243"/>
      <point x="361" y="238" type="curve"/>
      <point x="361" y="376" type="line"/>
      <point x="294" y="379"/>
      <point x="265" y="397"/>
      <point x="265" y="428" type="curve" smooth="yes"/>
      <point x="265" y="449"/>
      <point x="279" y="464"/>
      <point x="306" y="464" type="curve" smooth="yes"/>
      <point x="365" y="464"/>
      <point x="387" y="396"/>
      <point x="387" y="294" type="curve" smooth="yes"/>
      <point x="387" y="185"/>
      <point x="358" y="128"/>
      <point x="290" y="128" type="curve" smooth="yes"/>
      <point x="229" y="128"/>
      <point x="190" y="173"/>
      <point x="173" y="271" type="curve"/>
      <point x="14" y="252" type="line"/>
      <point x="38" y="86"/>
      <point x="139" y="-10"/>
    </contour>
  </outline>
</glyph>
<glyph name="eightgujr" format="2">
  <advance width="592"/>
  <unicode hex="0AEE"/>
  <outline>
    <contour>
      <point x="279" y="-10" type="curve" smooth="yes"/>
      <point x="378" y="-10"/>
      <point x="455" y="12"/>
      <point x="543" y="63" type="curve"/>
      <point x="478" y="194" type="line"/>
      <point x="400" y="145"/>
      <point x="354" y="128"/>
      <point x="302" y="128" type="curve" smooth="yes"/>
      <point x="263" y="128"/>
      <point x="237" y="147"/>
      <point x="237" y="180" type="curve" smooth="yes"/>
      <point x="237" y="209"/>
      <point x="255" y="230"/>
      <point x="285" y="258" type="curve" smooth="yes"/>
      <point x="518" y="477" type="line"/>
      <point x="394" y="604" type="line"/>
      <point x="160" y="384" type="line" smooth="yes"/>
      <point x="88" y="317"/>
      <point x="51" y="260"/>
      <point x="51" y="186" type="curve" smooth="yes"/>
      <point x="51" y="73"/>
      <point x="137" y="-10"/>
    </contour>
  </outline>
</glyph>
<glyph name="ninegujr" format="2">
  <advance width="592"/>
  <unicode hex="0AEF"/>
  <outline>
    <contour>
      <point x="378" y="-10" type="curve" smooth="yes"/>
      <point x="442" y="-10"/>
      <point x="503" y="0"/>
      <point x="570" y="27" type="curve"/>
      <point x="514" y="159" type="line"/>
      <point x="475" y="141"/>
      <point x="431" y="128"/>
      <point x="385" y="128" type="curve" smooth="yes"/>
      <point x="287" y="128"/>
      <point x="230" y="183"/>
      <point x="230" y="271" type="curve" smooth="yes"/>
      <point x="230" y="371"/>
      <point x="302" y="420"/>
      <point x="434" y="452" type="curve"/>
      <point x="390" y="602" type="line"/>
      <point x="189" y="563"/>
      <point x="53" y="453"/>
      <point x="53" y="280" type="curve" smooth="yes"/>
      <point x="53" y="92"/>
      <point x="202" y="-10"/>
    </contour>
    <contour>
      <point x="319" y="193" type="line"/>
      <point x="551" y="251" type="line"/>
      <point x="510" y="400" type="line"/>
      <point x="278" y="341" type="line"/>
    </contour>
  </outline>
</glyph>
<glyph name="uni0AF0" format="2">
  <advance width="426"/>
  <unicode hex="0AF0"/>
  <outline>
    <contour>
      <point x="213" y="168" type="curve" smooth="yes"/>
      <point x="324" y="168"/>
      <point x="398" y="237"/>
      <point x="398" y="338" type="curve" smooth="yes"/>
      <point x="398" y="439"/>
      <point x="324" y="509"/>
      <point x="213" y="509" type="curve" smooth="yes"/>
      <point x="102" y="509"/>
      <point x="28" y="439"/>
      <point x="28" y="338" type="curve" smooth="yes"/>
      <point x="28" y="237"/>
      <point x="102" y="168"/>
    </contour>
    <contour>
      <point x="213" y="286" type="curve" smooth="yes"/>
      <point x="178" y="286"/>
      <point x="156" y="306"/>
      <point x="156" y="338" type="curve" smooth="yes"/>
      <point x="156" y="369"/>
      <point x="178" y="390"/>
      <point x="213" y="390" type="curve" smooth="yes"/>
      <point x="248" y="390"/>
      <point x="270" y="369"/>
      <point x="270" y="338" type="curve" smooth="yes"/>
      <point x="270" y="306"/>
      <point x="248" y="286"/>
    </contour>
  </outline>
</glyph>
<glyph name="uni0AFA" format="2">
  <unicode hex="0AFA"/>
  <outline>
    <contour>
      <point x="-205" y="604" type="line"/>
      <point x="-108" y="632"/>
      <point x="-38" y="674"/>
      <point x="-38" y="765" type="curve" smooth="yes"/>
      <point x="-38" y="843"/>
      <point x="-95" y="896"/>
      <point x="-213" y="896" type="curve" smooth="yes"/>
      <point x="-273" y="896"/>
      <point x="-311" y="887"/>
      <point x="-357" y="872" type="curve"/>
      <point x="-325" y="762" type="line"/>
      <point x="-295" y="775"/>
      <point x="-272" y="781"/>
      <point x="-244" y="781" type="curve" smooth="yes"/>
      <point x="-218" y="781"/>
      <point x="-203" y="771"/>
      <point x="-203" y="751" type="curve" smooth="yes"/>
      <point x="-203" y="731"/>
      <point x="-215" y="718"/>
      <point x="-260" y="702" type="curve"/>
    </contour>
  </outline>
</glyph>
<glyph name="uni0AFB" format="2">
  <unicode hex="0AFB"/>
  <outline>
    <contour>
      <point x="-179" y="840" type="curve"/>
      <point x="-269" y="840" type="line"/>
      <point x="-270" y="792"/>
      <point x="-282" y="771"/>
      <point x="-309" y="771" type="curve" smooth="yes"/>
      <point x="-333" y="771"/>
      <point x="-348" y="780"/>
      <point x="-351" y="842" type="curve"/>
      <point x="-456" y="840" type="line"/>
      <point x="-449" y="710"/>
      <point x="-398" y="667"/>
      <point x="-323" y="667" type="curve" smooth="yes"/>
      <point x="-228" y="667"/>
      <point x="-205" y="723"/>
    </contour>
    <contour>
      <point x="-178" y="840" type="curve"/>
      <point x="-268" y="840" type="line"/>
      <point x="-243" y="723"/>
      <point x="-222" y="667"/>
      <point x="-124" y="667" type="curve" smooth="yes"/>
      <point x="-49" y="667"/>
      <point x="3" y="710"/>
      <point x="8" y="840" type="curve"/>
      <point x="-95" y="842" type="line"/>
      <point x="-100" y="780"/>
      <point x="-114" y="771"/>
      <point x="-137" y="771" type="curve" smooth="yes"/>
      <point x="-165" y="771"/>
      <point x="-176" y="792"/>
    </contour>
  </outline>
</glyph>
<glyph name="uni0AFC" format="2">
  <unicode hex="0AFC"/>
  <outline>
    <contour>
      <point x="-39" y="882" type="line"/>
      <point x="-134" y="811"/>
      <point x="-163" y="795"/>
      <point x="-232" y="795" type="curve" smooth="yes"/>
      <point x="-273" y="795"/>
      <point x="-305" y="813"/>
      <point x="-325" y="832" type="curve"/>
      <point x="-387" y="759" type="line"/>
      <point x="-354" y="733"/>
      <point x="-307" y="717"/>
      <point x="-251" y="717" type="curve"/>
      <point x="-247" y="717"/>
      <point x="-243" y="717"/>
      <point x="-239" y="718" type="curve"/>
      <point x="-248" y="724" type="line"/>
      <point x="-270" y="718"/>
      <point x="-284" y="715"/>
      <point x="-315" y="715" type="curve" smooth="yes"/>
      <point x="-361" y="715"/>
      <point x="-401" y="730"/>
      <point x="-437" y="754" type="curve"/>
      <point x="-495" y="665" type="line"/>
      <point x="-449" y="638"/>
      <point x="-391" y="624"/>
      <point x="-325" y="624" type="curve" smooth="yes"/>
      <point x="-218" y="624"/>
      <point x="-147" y="648"/>
      <point x="37" y="786" type="curve"/>
    </contour>
  </outline>
</glyph>
<glyph name="uni0AFD" format="2">
  <unicode hex="0AFD"/>
  <outline>
    <contour>
      <point x="-252" y="762" type="curve" smooth="yes"/>
      <point x="-214" y="762"/>
      <point x="-184" y="790"/>
      <point x="-184" y="829" type="curve" smooth="yes"/>
      <point x="-184" y="869"/>
      <point x="-213" y="896"/>
      <point x="-253" y="896" type="curve" smooth="yes"/>
      <point x="-294" y="896"/>
      <point x="-322" y="869"/>
      <point x="-322" y="829" type="curve" smooth="yes"/>
      <point x="-322" y="790"/>
      <point x="-293" y="762"/>
    </contour>
    <contour>
      <point x="-338" y="634" type="curve" smooth="yes"/>
      <point x="-299" y="634"/>
      <point x="-269" y="662"/>
      <point x="-269" y="701" type="curve" smooth="yes"/>
      <point x="-269" y="741"/>
      <point x="-298" y="768"/>
      <point x="-338" y="768" type="curve" smooth="yes"/>
      <point x="-379" y="768"/>
      <point x="-407" y="741"/>
      <point x="-407" y="701" type="curve" smooth="yes"/>
      <point x="-407" y="662"/>
      <point x="-379" y="634"/>
    </contour>
    <contour>
      <point x="-172" y="634" type="curve" smooth="yes"/>
      <point x="-133" y="634"/>
      <point x="-103" y="662"/>
      <point x="-103" y="701" type="curve" smooth="yes"/>
      <point x="-103" y="741"/>
      <point x="-132" y="768"/>
      <point x="-172" y="768" type="curve" smooth="yes"/>
      <point x="-213" y="768"/>
      <point x="-241" y="741"/>
      <point x="-241" y="701" type="curve" smooth="yes"/>
      <point x="-241" y="662"/>
      <point x="-213" y="634"/>
    </contour>
  </outline>
</glyph>
<glyph name="uni0AFE" format="2">
  <unicode hex="0AFE"/>
  <outline>
    <contour>
      <point x="-384" y="764" type="curve" smooth="yes"/>
      <point x="-384" y="692"/>
      <point x="-330" y="648"/>
      <point x="-253" y="648" type="curve" smooth="yes"/>
      <point x="-178" y="648"/>
      <point x="-125" y="689"/>
      <point x="-125" y="764" type="curve" smooth="yes"/>
      <point x="-125" y="840"/>
      <point x="-178" y="881"/>
      <point x="-255" y="881" type="curve" smooth="yes"/>
      <point x="-332" y="881"/>
      <point x="-384" y="837"/>
    </contour>
    <contour>
      <point x="-294" y="763" type="curve" smooth="yes"/>
      <point x="-294" y="793"/>
      <point x="-276" y="808"/>
      <point x="-254" y="808" type="curve" smooth="yes"/>
      <point x="-230" y="808"/>
      <point x="-215" y="792"/>
      <point x="-215" y="765" type="curve" smooth="yes"/>
      <point x="-215" y="735"/>
      <point x="-230" y="721"/>
      <point x="-254" y="721" type="curve" smooth="yes"/>
      <point x="-278" y="721"/>
      <point x="-294" y="734"/>
    </contour>
  </outline>
</glyph>
<glyph name="uni0AFF" format="2">
  <unicode hex="0AFF"/>
  <outline>
    <contour>
      <point x="-504" y="764" type="curve" smooth="yes"/>
      <point x="-504" y="692"/>
      <point x="-450" y="648"/>
      <point x="-381" y="648" type="curve" smooth="yes"/>
      <point x="-309" y="648"/>
      <point x="-261" y="689"/>
      <point x="-261" y="764" type="curve" smooth="yes"/>
      <point x="-261" y="840"/>
      <point x="-309" y="881"/>
      <point x="-383" y="881" type="curve" smooth="yes"/>
      <point x="-452" y="881"/>
      <point x="-504" y="837"/>
    </contour>
    <contour>
      <point x="-417" y="763" type="curve" smooth="yes"/>
      <point x="-417" y="793"/>
      <point x="-403" y="808"/>
      <point x="-382" y="808" type="curve" smooth="yes"/>
      <point x="-359" y="808"/>
      <point x="-348" y="792"/>
      <point x="-348" y="765" type="curve" smooth="yes"/>
      <point x="-348" y="735"/>
      <point x="-359" y="721"/>
      <point x="-382" y="721" type="curve" smooth="yes"/>
      <point x="-405" y="721"/>
      <point x="-417" y="734"/>
    </contour>
    <contour>
      <point x="-248" y="764" type="curve" smooth="yes"/>
      <point x="-248" y="692"/>
      <point x="-194" y="648"/>
      <point x="-125" y="648" type="curve" smooth="yes"/>
      <point x="-53" y="648"/>
      <point x="-5" y="689"/>
      <point x="-5" y="764" type="curve" smooth="yes"/>
      <point x="-5" y="840"/>
      <point x="-53" y="881"/>
      <point x="-127" y="881" type="curve" smooth="yes"/>
      <point x="-196" y="881"/>
      <point x="-248" y="837"/>
    </contour>
    <contour>
      <point x="-161" y="763" type="curve" smooth="yes"/>
      <point x="-161" y="793"/>
      <point x="-147" y="808"/>
      <point x="-126" y="808" type="curve" smooth="yes"/>
      <point x="-103" y="808"/>
      <point x="-92" y="792"/>
      <point x="-92" y="765" type="curve" smooth="yes"/>
      <point x="-92" y="735"/>
      <point x="-103" y="721"/>
      <point x="-126" y="721" type="curve" smooth="yes"/>
      <point x="-149" y="721"/>
      <point x="-161" y="734"/>
    </contour>
  </outline>
</glyph>
<glyph name="endash.gujr" format="2">
  <advance width="500"/>
  <unicode hex="2013"/>
  <outline>
    <contour>
      <point x="40" y="228" type="line"/>
      <point x="460" y="228" type="line"/>
      <point x="460" y="362" type="line"/>
      <point x="40" y="362" type="line"/>
    </contour>
  </outline>
</glyph>
<glyph name="ellipsis.gujr" format="2">
  <advance width="880"/>
  <unicode hex="2026"/>
  <outline>
    <contour>
      <point x="442" y="-12" type="curve" smooth="yes"/>
      <point x="496" y="-12"/>
      <point x="542" y="15"/>
      <point x="542" y="81" type="curve" smooth="yes"/>
      <point x="542" y="150"/>
      <point x="496" y="175"/>
      <point x="442" y="175" type="curve" smooth="yes"/>
      <point x="385" y="175"/>
      <point x="338" y="150"/>
      <point x="338" y="81" type="curve" smooth="yes"/>
      <point x="338" y="15"/>
      <point x="385" y="-12"/>
    </contour>
    <contour>
      <point x="153" y="-12" type="curve" smooth="yes"/>
      <point x="207" y="-12"/>
      <point x="253" y="15"/>
      <point x="253" y="81" type="curve" smooth="yes"/>
      <point x="253" y="150"/>
      <point x="207" y="175"/>
      <point x="153" y="175" type="curve" smooth="yes"/>
      <point x="96" y="175"/>
      <point x="49" y="150"/>
      <point x="49" y="81" type="curve" smooth="yes"/>
      <point x="49" y="15"/>
      <point x="96" y="-12"/>
    </contour>
    <contour>
      <point x="731" y="-12" type="curve" smooth="yes"/>
      <point x="785" y="-12"/>
      <point x="831" y="15"/>
      <point x="831" y="81" type="curve" smooth="yes"/>
      <point x="831" y="150"/>
      <point x="785" y="175"/>
      <point x="731" y="175" type="curve" smooth="yes"/>
      <point x="674" y="175"/>
      <point x="627" y="150"/>
      <point x="627" y="81" type="curve" smooth="yes"/>
      <point x="627" y="15"/>
      <point x="674" y="-12"/>
    </contour>
  </outline>
</glyph>
<glyph name="uni20B9.gujr" format="2">
  <advance width="592"/>
  <unicode hex="20B9"/>
  <outline>
    <contour>
      <point x="543" y="504" type="line"/>
      <point x="543" y="622" type="line"/>
      <point x="61" y="622" type="line"/>
      <point x="61" y="504" type="line"/>
      <point x="121" y="504" type="line" smooth="yes"/>
      <point x="165" y="504"/>
      <point x="185" y="501"/>
      <point x="202" y="486" type="curve" smooth="yes"/>
      <point x="218" y="471"/>
      <point x="228" y="446"/>
      <point x="228" y="406" type="curve" smooth="yes"/>
      <point x="228" y="372"/>
      <point x="224" y="345"/>
      <point x="208" y="327" type="curve" smooth="yes"/>
      <point x="191" y="308"/>
      <point x="162" y="301"/>
      <point x="107" y="301" type="curve" smooth="yes"/>
      <point x="81" y="301" type="line"/>
      <point x="59" y="192" type="line"/>
      <point x="216" y="0" type="line"/>
      <point x="435" y="0" type="line"/>
      <point x="243" y="209" type="line"/>
      <point x="245" y="199" type="line"/>
      <point x="343" y="226"/>
      <point x="398" y="297"/>
      <point x="398" y="392" type="curve" smooth="yes"/>
      <point x="398" y="436"/>
      <point x="375" y="484"/>
      <point x="351" y="504" type="curve"/>
    </contour>
    <contour>
      <point x="61" y="462" type="line"/>
      <point x="61" y="345" type="line"/>
      <point x="543" y="345" type="line"/>
      <point x="543" y="462" type="line"/>
    </contour>
  </outline>
</glyph>
<glyph name="minus.gujr" format="2">
  <advance width="592"/>
  <unicode hex="2212"/>
  <outline>
    <contour>
      <point x="59" y="259" type="line"/>
      <point x="535" y="259" type="line"/>
      <point x="535" y="388" type="line"/>
      <point x="59" y="388" type="line"/>
    </contour>
  </outline>
</glyph>
<glyph name="aivowelsignanusvaragujr" format="2">
  <outline>
    <contour>
      <point x="-224" y="631" type="curve"/>
      <point x="-89" y="631" type="line"/>
      <point x="-128" y="827"/>
      <point x="-187" y="896"/>
      <point x="-321" y="896" type="curve" smooth="yes"/>
      <point x="-357" y="896"/>
      <point x="-392" y="891"/>
      <point x="-424" y="883" type="curve"/>
      <point x="-386" y="774" type="line"/>
      <point x="-370" y="778"/>
      <point x="-355" y="780"/>
      <point x="-332" y="780" type="curve" smooth="yes"/>
      <point x="-284" y="780"/>
      <point x="-248" y="753"/>
    </contour>
    <contour>
      <point x="-291" y="609" type="curve"/>
      <point x="-235" y="686" type="line"/>
      <point x="-328" y="759"/>
      <point x="-391" y="775"/>
      <point x="-454" y="775" type="curve" smooth="yes"/>
      <point x="-495" y="775"/>
      <point x="-522" y="770"/>
      <point x="-553" y="760" type="curve"/>
      <point x="-517" y="656" type="line"/>
      <point x="-495" y="662"/>
      <point x="-466" y="665"/>
      <point x="-447" y="665" type="curve" smooth="yes"/>
      <point x="-405" y="665"/>
      <point x="-361" y="656"/>
    </contour>
    <contour>
      <point x="-51" y="738" type="curve" smooth="yes"/>
      <point x="-8" y="738"/>
      <point x="25" y="772"/>
      <point x="25" y="817" type="curve" smooth="yes"/>
      <point x="25" y="862"/>
      <point x="-8" y="896"/>
      <point x="-51" y="896" type="curve" smooth="yes"/>
      <point x="-94" y="896"/>
      <point x="-128" y="862"/>
      <point x="-128" y="817" type="curve" smooth="yes"/>
      <point x="-128" y="772"/>
      <point x="-94" y="738"/>
    </contour>
  </outline>
</glyph>
<glyph name="aivowelsignrephanusvaragujr" format="2">
  <outline>
    <contour>
      <point x="-227" y="631" type="curve"/>
      <point x="-92" y="631" type="line"/>
      <point x="-109" y="715"/>
      <point x="-129" y="768"/>
      <point x="-157" y="811" type="curve"/>
      <point x="-184" y="821" type="line"/>
      <point x="-209" y="872"/>
      <point x="-248" y="896"/>
      <point x="-324" y="896" type="curve" smooth="yes"/>
      <point x="-360" y="896"/>
      <point x="-395" y="891"/>
      <point x="-427" y="883" type="curve"/>
      <point x="-389" y="774" type="line"/>
      <point x="-373" y="778"/>
      <point x="-358" y="780"/>
      <point x="-335" y="780" type="curve" smooth="yes"/>
      <point x="-287" y="780"/>
      <point x="-251" y="753"/>
    </contour>
    <contour>
      <point x="-294" y="609" type="curve"/>
      <point x="-238" y="686" type="line"/>
      <point x="-331" y="759"/>
      <point x="-394" y="775"/>
      <point x="-457" y="775" type="curve" smooth="yes"/>
      <point x="-498" y="775"/>
      <point x="-525" y="770"/>
      <point x="-556" y="760" type="curve"/>
      <point x="-520" y="656" type="line"/>
      <point x="-498" y="662"/>
      <point x="-469" y="665"/>
      <point x="-450" y="665" type="curve" smooth="yes"/>
      <point x="-408" y="665"/>
      <point x="-364" y="656"/>
    </contour>
    <contour>
      <point x="-13" y="644" type="curve" smooth="yes"/>
      <point x="20" y="644"/>
      <point x="43" y="667"/>
      <point x="43" y="700" type="curve" smooth="yes"/>
      <point x="43" y="733"/>
      <point x="20" y="756"/>
      <point x="-13" y="756" type="curve" smooth="yes"/>
      <point x="-46" y="756"/>
      <point x="-69" y="733"/>
      <point x="-69" y="700" type="curve" smooth="yes"/>
      <point x="-69" y="667"/>
      <point x="-46" y="644"/>
    </contour>
    <contour>
      <point x="-96" y="650" type="line"/>
      <point x="-102" y="666"/>
      <point x="-107" y="685"/>
      <point x="-107" y="705" type="curve" smooth="yes"/>
      <point x="-107" y="756"/>
      <point x="-82" y="786"/>
      <point x="-28" y="786" type="curve" smooth="yes"/>
      <point x="-3" y="786"/>
      <point x="18" y="782"/>
      <point x="32" y="778" type="curve"/>
      <point x="57" y="883" type="line"/>
      <point x="19" y="893"/>
      <point x="-18" y="896"/>
      <point x="-52" y="896" type="curve" smooth="yes"/>
      <point x="-167" y="896"/>
      <point x="-211" y="839"/>
      <point x="-211" y="741" type="curve"/>
    </contour>
  </outline>
</glyph>
<glyph name="aivowelsignrephgujr" format="2">
  <outline>
    <contour>
      <point x="-227" y="631" type="curve"/>
      <point x="-92" y="631" type="line"/>
      <point x="-109" y="715"/>
      <point x="-129" y="768"/>
      <point x="-157" y="811" type="curve"/>
      <point x="-184" y="821" type="line"/>
      <point x="-209" y="872"/>
      <point x="-248" y="896"/>
      <point x="-324" y="896" type="curve" smooth="yes"/>
      <point x="-360" y="896"/>
      <point x="-395" y="891"/>
      <point x="-427" y="883" type="curve"/>
      <point x="-389" y="774" type="line"/>
      <point x="-373" y="778"/>
      <point x="-358" y="780"/>
      <point x="-335" y="780" type="curve" smooth="yes"/>
      <point x="-287" y="780"/>
      <point x="-251" y="753"/>
    </contour>
    <contour>
      <point x="-294" y="609" type="curve"/>
      <point x="-238" y="686" type="line"/>
      <point x="-331" y="759"/>
      <point x="-394" y="775"/>
      <point x="-457" y="775" type="curve" smooth="yes"/>
      <point x="-498" y="775"/>
      <point x="-525" y="770"/>
      <point x="-556" y="760" type="curve"/>
      <point x="-520" y="656" type="line"/>
      <point x="-498" y="662"/>
      <point x="-469" y="665"/>
      <point x="-450" y="665" type="curve" smooth="yes"/>
      <point x="-408" y="665"/>
      <point x="-364" y="656"/>
    </contour>
    <contour>
      <point x="-96" y="650" type="line"/>
      <point x="-102" y="666"/>
      <point x="-107" y="692"/>
      <point x="-107" y="706" type="curve" smooth="yes"/>
      <point x="-107" y="749"/>
      <point x="-77" y="766"/>
      <point x="-42" y="766" type="curve" smooth="yes"/>
      <point x="-19" y="766"/>
      <point x="4" y="762"/>
      <point x="18" y="758" type="curve"/>
      <point x="51" y="881" type="line"/>
      <point x="11" y="892"/>
      <point x="-24" y="896"/>
      <point x="-65" y="896" type="curve" smooth="yes"/>
      <point x="-167" y="896"/>
      <point x="-212" y="838"/>
      <point x="-212" y="740" type="curve"/>
    </contour>
  </outline>
</glyph>
<glyph name="badagujr" format="2">
  <advance width="1076"/>
  <outline>
    <contour>
      <point x="274" y="128" type="curve" smooth="yes"/>
      <point x="418" y="128"/>
      <point x="508" y="212"/>
      <point x="508" y="350" type="curve" smooth="yes"/>
      <point x="508" y="441" type="line"/>
      <point x="331" y="456" type="line"/>
      <point x="331" y="354" type="line" smooth="yes"/>
      <point x="331" y="323"/>
      <point x="326" y="300"/>
      <point x="314" y="286" type="curve" smooth="yes"/>
      <point x="303" y="273"/>
      <point x="288" y="266"/>
      <point x="267" y="266" type="curve" smooth="yes"/>
      <point x="224" y="266"/>
      <point x="201" y="294"/>
      <point x="201" y="338" type="curve" smooth="yes"/>
      <point x="201" y="390"/>
      <point x="234" y="427"/>
      <point x="305" y="446" type="curve"/>
      <point x="263" y="602" type="line"/>
      <point x="98" y="566"/>
      <point x="24" y="465"/>
      <point x="24" y="350" type="curve" smooth="yes"/>
      <point x="24" y="217"/>
      <point x="130" y="128"/>
    </contour>
    <contour>
      <point x="551" y="202" type="curve" smooth="yes"/>
      <point x="568" y="202"/>
      <point x="586" y="204"/>
      <point x="601" y="208" type="curve"/>
      <point x="580" y="346" type="line"/>
      <point x="570" y="342"/>
      <point x="557" y="340"/>
      <point x="545" y="340" type="curve" smooth="yes"/>
      <point x="521" y="340"/>
      <point x="508" y="346"/>
      <point x="499" y="364" type="curve"/>
      <point x="421" y="261" type="line"/>
      <point x="450" y="226"/>
      <point x="488" y="202"/>
    </contour>
    <contour>
      <point x="864" y="-10" type="curve" smooth="yes"/>
      <point x="1001" y="-10"/>
      <point x="1079" y="36"/>
      <point x="1079" y="120" type="curve" smooth="yes"/>
      <point x="1079" y="171"/>
      <point x="1046" y="213"/>
      <point x="985" y="213" type="curve" smooth="yes"/>
      <point x="929" y="213"/>
      <point x="892" y="179"/>
      <point x="892" y="133" type="curve" smooth="yes"/>
      <point x="892" y="100"/>
      <point x="903" y="71"/>
      <point x="929" y="46" type="curve"/>
      <point x="939" y="138" type="line"/>
      <point x="914" y="132"/>
      <point x="895" y="128"/>
      <point x="866" y="128" type="curve" smooth="yes"/>
      <point x="820" y="128"/>
      <point x="784" y="148"/>
      <point x="784" y="187" type="curve" smooth="yes"/>
      <point x="784" y="223"/>
      <point x="816" y="245"/>
      <point x="874" y="245" type="curve" smooth="yes"/>
      <point x="897" y="245"/>
      <point x="919" y="243"/>
      <point x="938" y="240" type="curve"/>
      <point x="964" y="375" type="line"/>
      <point x="935" y="380"/>
      <point x="902" y="383"/>
      <point x="871" y="383" type="curve" smooth="yes"/>
      <point x="727" y="383"/>
      <point x="607" y="315"/>
      <point x="607" y="183" type="curve" smooth="yes"/>
      <point x="607" y="67"/>
      <point x="703" y="-10"/>
    </contour>
    <contour>
      <point x="689" y="263" type="curve"/>
      <point x="819" y="350" type="line"/>
      <point x="772" y="371"/>
      <point x="746" y="392"/>
      <point x="746" y="421" type="curve" smooth="yes"/>
      <point x="746" y="449"/>
      <point x="772" y="464"/>
      <point x="821" y="464" type="curve" smooth="yes"/>
      <point x="846" y="464"/>
      <point x="867" y="461"/>
      <point x="888" y="457" type="curve"/>
      <point x="915" y="587" type="line"/>
      <point x="875" y="596"/>
      <point x="832" y="602"/>
      <point x="788" y="602" type="curve" smooth="yes"/>
      <point x="654" y="602"/>
      <point x="569" y="539"/>
      <point x="569" y="441" type="curve" smooth="yes"/>
      <point x="569" y="362"/>
      <point x="620" y="308"/>
    </contour>
  </outline>
</glyph>
<glyph name="baprehalfgujr" format="2">
  <advance width="603"/>
  <outline>
    <contour>
      <point x="274" y="128" type="curve" smooth="yes"/>
      <point x="418" y="128"/>
      <point x="508" y="212"/>
      <point x="508" y="350" type="curve" smooth="yes"/>
      <point x="508" y="441" type="line"/>
      <point x="331" y="456" type="line"/>
      <point x="331" y="354" type="line" smooth="yes"/>
      <point x="331" y="323"/>
      <point x="325" y="300"/>
      <point x="314" y="286" type="curve" smooth="yes"/>
      <point x="303" y="273"/>
      <point x="288" y="266"/>
      <point x="267" y="266" type="curve" smooth="yes"/>
      <point x="224" y="266"/>
      <point x="201" y="294"/>
      <point x="201" y="338" type="curve" smooth="yes"/>
      <point x="201" y="390"/>
      <point x="234" y="427"/>
      <point x="305" y="446" type="curve"/>
      <point x="263" y="602" type="line"/>
      <point x="98" y="566"/>
      <point x="24" y="465"/>
      <point x="24" y="350" type="curve" smooth="yes"/>
      <point x="24" y="217"/>
      <point x="130" y="128"/>
    </contour>
    <contour>
      <point x="538" y="209" type="curve" smooth="yes"/>
      <point x="573" y="209"/>
      <point x="606" y="220"/>
      <point x="629" y="239" type="curve"/>
      <point x="578" y="361" type="line"/>
      <point x="568" y="353"/>
      <point x="553" y="347"/>
      <point x="536" y="347" type="curve" smooth="yes"/>
      <point x="521" y="347"/>
      <point x="508" y="353"/>
      <point x="499" y="371" type="curve"/>
      <point x="421" y="268" type="line"/>
      <point x="450" y="233"/>
      <point x="494" y="209"/>
    </contour>
  </outline>
</glyph>
<glyph name="baragujr" format="2">
  <advance width="834"/>
  <outline>
    <contour>
      <point x="274" y="148" type="curve" smooth="yes"/>
      <point x="418" y="148"/>
      <point x="508" y="232"/>
      <point x="508" y="372" type="curve" smooth="yes"/>
      <point x="508" y="440" type="line"/>
      <point x="331" y="455" type="line"/>
      <point x="331" y="373" type="line" smooth="yes"/>
      <point x="331" y="342"/>
      <point x="326" y="320"/>
      <point x="314" y="306" type="curve" smooth="yes"/>
      <point x="303" y="293"/>
      <point x="288" y="286"/>
      <point x="267" y="286" type="curve" smooth="yes"/>
      <point x="224" y="286"/>
      <point x="201" y="314"/>
      <point x="201" y="347" type="curve" smooth="yes"/>
      <point x="201" y="394"/>
      <point x="234" y="428"/>
      <point x="305" y="445" type="curve"/>
      <point x="263" y="601" type="line"/>
      <point x="98" y="567"/>
      <point x="24" y="471"/>
      <point x="24" y="362" type="curve" smooth="yes"/>
      <point x="24" y="237"/>
      <point x="130" y="148"/>
    </contour>
    <contour>
      <point x="405" y="-30" type="line"/>
      <point x="641" y="114" type="line"/>
      <point x="612" y="241" type="line"/>
      <point x="582" y="225" type="line"/>
      <point x="318" y="97" type="line"/>
    </contour>
    <contour>
      <point x="530" y="255" type="curve" smooth="yes"/>
      <point x="561" y="255"/>
      <point x="590" y="265"/>
      <point x="611" y="288" type="curve"/>
      <point x="594" y="429" type="line"/>
      <point x="581" y="407"/>
      <point x="563" y="393"/>
      <point x="539" y="393" type="curve" smooth="yes"/>
      <point x="524" y="393"/>
      <point x="509" y="399"/>
      <point x="499" y="417" type="curve"/>
      <point x="421" y="314" type="line"/>
      <point x="448" y="279"/>
      <point x="489" y="255"/>
    </contour>
    <contour>
      <point x="778" y="-1" type="curve" smooth="yes"/>
      <point x="818" y="-1" type="line"/>
      <point x="831" y="137" type="line"/>
      <point x="802" y="137"/>
      <point x="785" y="140"/>
      <point x="774" y="150" type="curve" smooth="yes"/>
      <point x="762" y="161"/>
      <point x="759" y="179"/>
      <point x="759" y="208" type="curve" smooth="yes"/>
      <point x="759" y="591" type="line"/>
      <point x="582" y="601" type="line"/>
      <point x="582" y="193" type="line" smooth="yes"/>
      <point x="582" y="120"/>
      <point x="595" y="72"/>
      <point x="627" y="41" type="curve" smooth="yes"/>
      <point x="658" y="11"/>
      <point x="707" y="-1"/>
    </contour>
  </outline>
</glyph>
<glyph name="baraprehalfgujr" format="2">
  <advance width="603"/>
  <outline>
    <contour>
      <point x="274" y="148" type="curve" smooth="yes"/>
      <point x="418" y="148"/>
      <point x="508" y="232"/>
      <point x="508" y="372" type="curve" smooth="yes"/>
      <point x="508" y="440" type="line"/>
      <point x="331" y="455" type="line"/>
      <point x="331" y="373" type="line" smooth="yes"/>
      <point x="331" y="342"/>
      <point x="326" y="320"/>
      <point x="314" y="306" type="curve" smooth="yes"/>
      <point x="303" y="293"/>
      <point x="288" y="286"/>
      <point x="267" y="286" type="curve" smooth="yes"/>
      <point x="224" y="286"/>
      <point x="201" y="314"/>
      <point x="201" y="347" type="curve" smooth="yes"/>
      <point x="201" y="394"/>
      <point x="234" y="428"/>
      <point x="305" y="445" type="curve"/>
      <point x="263" y="601" type="line"/>
      <point x="98" y="567"/>
      <point x="24" y="471"/>
      <point x="24" y="362" type="curve" smooth="yes"/>
      <point x="24" y="237"/>
      <point x="130" y="148"/>
    </contour>
    <contour>
      <point x="405" y="-30" type="line"/>
      <point x="595" y="82" type="line"/>
      <point x="595" y="230" type="line"/>
      <point x="318" y="97" type="line"/>
    </contour>
    <contour>
      <point x="538" y="253" type="curve" smooth="yes"/>
      <point x="573" y="253"/>
      <point x="606" y="265"/>
      <point x="629" y="286" type="curve"/>
      <point x="578" y="406" type="line"/>
      <point x="568" y="398"/>
      <point x="553" y="392"/>
      <point x="539" y="392" type="curve" smooth="yes"/>
      <point x="524" y="392"/>
      <point x="509" y="397"/>
      <point x="499" y="415" type="curve"/>
      <point x="421" y="312" type="line"/>
      <point x="448" y="277"/>
      <point x="498" y="253"/>
    </contour>
  </outline>
</glyph>
<glyph name="barastemgujr" format="2">
  <advance width="834"/>
  <outline>
    <contour>
      <point x="274" y="147" type="curve" smooth="yes"/>
      <point x="418" y="147"/>
      <point x="508" y="231"/>
      <point x="508" y="371" type="curve" smooth="yes"/>
      <point x="508" y="439" type="line"/>
      <point x="331" y="454" type="line"/>
      <point x="331" y="372" type="line" smooth="yes"/>
      <point x="331" y="341"/>
      <point x="326" y="319"/>
      <point x="314" y="305" type="curve" smooth="yes"/>
      <point x="303" y="292"/>
      <point x="288" y="285"/>
      <point x="267" y="285" type="curve" smooth="yes"/>
      <point x="224" y="285"/>
      <point x="201" y="313"/>
      <point x="201" y="346" type="curve" smooth="yes"/>
      <point x="201" y="393"/>
      <point x="234" y="427"/>
      <point x="305" y="444" type="curve"/>
      <point x="263" y="600" type="line"/>
      <point x="98" y="566"/>
      <point x="24" y="470"/>
      <point x="24" y="361" type="curve" smooth="yes"/>
      <point x="24" y="236"/>
      <point x="130" y="147"/>
    </contour>
    <contour>
      <point x="405" y="-21" type="line"/>
      <point x="641" y="123" type="line"/>
      <point x="612" y="250" type="line"/>
      <point x="582" y="234" type="line"/>
      <point x="318" y="106" type="line"/>
    </contour>
    <contour>
      <point x="530" y="255" type="curve" smooth="yes"/>
      <point x="561" y="255"/>
      <point x="590" y="265"/>
      <point x="611" y="288" type="curve"/>
      <point x="594" y="429" type="line"/>
      <point x="581" y="407"/>
      <point x="563" y="393"/>
      <point x="539" y="393" type="curve" smooth="yes"/>
      <point x="524" y="393"/>
      <point x="509" y="399"/>
      <point x="499" y="417" type="curve"/>
      <point x="421" y="314" type="line"/>
      <point x="448" y="279"/>
      <point x="489" y="255"/>
    </contour>
    <contour>
      <point x="582" y="-43" type="line"/>
      <point x="759" y="-43" type="line"/>
      <point x="759" y="592" type="line"/>
      <point x="582" y="602" type="line"/>
    </contour>
  </outline>
</glyph>
<glyph name="bastemgujr" format="2">
  <advance width="834"/>
  <outline>
    <contour>
      <point x="274" y="128" type="curve" smooth="yes"/>
      <point x="418" y="128"/>
      <point x="508" y="212"/>
      <point x="508" y="350" type="curve" smooth="yes"/>
      <point x="508" y="441" type="line"/>
      <point x="331" y="456" type="line"/>
      <point x="331" y="354" type="line" smooth="yes"/>
      <point x="331" y="323"/>
      <point x="325" y="300"/>
      <point x="314" y="286" type="curve" smooth="yes"/>
      <point x="303" y="273"/>
      <point x="288" y="266"/>
      <point x="267" y="266" type="curve" smooth="yes"/>
      <point x="224" y="266"/>
      <point x="201" y="294"/>
      <point x="201" y="338" type="curve" smooth="yes"/>
      <point x="201" y="390"/>
      <point x="234" y="427"/>
      <point x="305" y="446" type="curve"/>
      <point x="263" y="602" type="line"/>
      <point x="98" y="566"/>
      <point x="24" y="465"/>
      <point x="24" y="350" type="curve" smooth="yes"/>
      <point x="24" y="217"/>
      <point x="130" y="128"/>
    </contour>
    <contour>
      <point x="530" y="209" type="curve" smooth="yes"/>
      <point x="561" y="209"/>
      <point x="590" y="219"/>
      <point x="611" y="242" type="curve"/>
      <point x="594" y="383" type="line"/>
      <point x="581" y="361"/>
      <point x="563" y="347"/>
      <point x="539" y="347" type="curve" smooth="yes"/>
      <point x="524" y="347"/>
      <point x="509" y="353"/>
      <point x="499" y="371" type="curve"/>
      <point x="421" y="268" type="line"/>
      <point x="448" y="233"/>
      <point x="489" y="209"/>
    </contour>
    <contour>
      <point x="582" y="-43" type="line"/>
      <point x="759" y="-43" type="line"/>
      <point x="759" y="592" type="line"/>
      <point x="582" y="602" type="line"/>
    </contour>
  </outline>
</glyph>
<glyph name="bhaprehalfgujr" format="2">
  <advance width="646"/>
  <outline>
    <contour>
      <point x="222" y="27" type="curve"/>
      <point x="333" y="132" type="line"/>
      <point x="251" y="199"/>
      <point x="201" y="258"/>
      <point x="201" y="358" type="curve" smooth="yes"/>
      <point x="201" y="420"/>
      <point x="235" y="464"/>
      <point x="288" y="464" type="curve" smooth="yes"/>
      <point x="313" y="464"/>
      <point x="327" y="456"/>
      <point x="337" y="444" type="curve" smooth="yes"/>
      <point x="351" y="427"/>
      <point x="353" y="401"/>
      <point x="353" y="373" type="curve" smooth="yes"/>
      <point x="353" y="338" type="line"/>
      <point x="530" y="338" type="line"/>
      <point x="530" y="368" type="line" smooth="yes"/>
      <point x="530" y="458"/>
      <point x="505" y="512"/>
      <point x="459" y="550" type="curve" smooth="yes"/>
      <point x="414" y="587"/>
      <point x="360" y="602"/>
      <point x="289" y="602" type="curve" smooth="yes"/>
      <point x="125" y="602"/>
      <point x="24" y="498"/>
      <point x="24" y="362" type="curve" smooth="yes"/>
      <point x="24" y="218"/>
      <point x="109" y="113"/>
    </contour>
    <contour>
      <point x="452" y="149" type="curve" smooth="yes"/>
      <point x="502" y="149"/>
      <point x="528" y="177"/>
      <point x="528" y="227" type="curve" smooth="yes"/>
      <point x="528" y="250" type="line"/>
      <point x="650" y="250" type="line"/>
      <point x="650" y="388" type="line"/>
      <point x="346" y="388" type="line" smooth="yes"/>
      <point x="301" y="388"/>
      <point x="275" y="362"/>
      <point x="275" y="323" type="curve" smooth="yes"/>
      <point x="275" y="250"/>
      <point x="365" y="149"/>
    </contour>
  </outline>
</glyph>
<glyph name="bharagujr" format="2">
  <advance width="891"/>
  <outline>
    <contour>
      <point x="222" y="27" type="curve"/>
      <point x="333" y="132" type="line"/>
      <point x="251" y="199"/>
      <point x="201" y="258"/>
      <point x="201" y="358" type="curve" smooth="yes"/>
      <point x="201" y="420"/>
      <point x="235" y="464"/>
      <point x="288" y="464" type="curve" smooth="yes"/>
      <point x="313" y="464"/>
      <point x="327" y="456"/>
      <point x="337" y="444" type="curve" smooth="yes"/>
      <point x="351" y="427"/>
      <point x="353" y="401"/>
      <point x="353" y="373" type="curve" smooth="yes"/>
      <point x="353" y="338" type="line"/>
      <point x="530" y="338" type="line"/>
      <point x="530" y="368" type="line" smooth="yes"/>
      <point x="530" y="458"/>
      <point x="505" y="512"/>
      <point x="459" y="550" type="curve" smooth="yes"/>
      <point x="414" y="587"/>
      <point x="360" y="602"/>
      <point x="289" y="602" type="curve" smooth="yes"/>
      <point x="125" y="602"/>
      <point x="24" y="498"/>
      <point x="24" y="362" type="curve" smooth="yes"/>
      <point x="24" y="218"/>
      <point x="109" y="113"/>
    </contour>
    <contour>
      <point x="462" y="-37" type="line"/>
      <point x="698" y="107" type="line"/>
      <point x="669" y="234" type="line"/>
      <point x="639" y="218" type="line"/>
      <point x="375" y="90" type="line"/>
    </contour>
    <contour>
      <point x="453" y="164" type="curve" smooth="yes"/>
      <point x="500" y="164"/>
      <point x="528" y="192"/>
      <point x="528" y="245" type="curve" smooth="yes"/>
      <point x="528" y="260" type="line"/>
      <point x="664" y="260" type="line"/>
      <point x="664" y="398" type="line"/>
      <point x="346" y="398" type="line" smooth="yes"/>
      <point x="301" y="398"/>
      <point x="275" y="372"/>
      <point x="275" y="333" type="curve" smooth="yes"/>
      <point x="275" y="252"/>
      <point x="374" y="164"/>
    </contour>
    <contour>
      <point x="835" y="0" type="curve" smooth="yes"/>
      <point x="875" y="0" type="line"/>
      <point x="888" y="138" type="line"/>
      <point x="859" y="138"/>
      <point x="842" y="141"/>
      <point x="831" y="151" type="curve" smooth="yes"/>
      <point x="819" y="162"/>
      <point x="816" y="180"/>
      <point x="816" y="209" type="curve" smooth="yes"/>
      <point x="816" y="592" type="line"/>
      <point x="639" y="602" type="line"/>
      <point x="639" y="194" type="line" smooth="yes"/>
      <point x="639" y="121"/>
      <point x="652" y="73"/>
      <point x="684" y="42" type="curve" smooth="yes"/>
      <point x="715" y="12"/>
      <point x="764" y="0"/>
    </contour>
  </outline>
</glyph>
<glyph name="bharaprehalfgujr" format="2">
  <advance width="636"/>
  <outline>
    <contour>
      <point x="222" y="27" type="curve"/>
      <point x="333" y="132" type="line"/>
      <point x="251" y="199"/>
      <point x="201" y="258"/>
      <point x="201" y="358" type="curve" smooth="yes"/>
      <point x="201" y="420"/>
      <point x="235" y="464"/>
      <point x="288" y="464" type="curve" smooth="yes"/>
      <point x="313" y="464"/>
      <point x="327" y="456"/>
      <point x="337" y="444" type="curve" smooth="yes"/>
      <point x="351" y="427"/>
      <point x="353" y="401"/>
      <point x="353" y="373" type="curve" smooth="yes"/>
      <point x="353" y="338" type="line"/>
      <point x="530" y="338" type="line"/>
      <point x="530" y="368" type="line" smooth="yes"/>
      <point x="530" y="458"/>
      <point x="505" y="512"/>
      <point x="459" y="550" type="curve" smooth="yes"/>
      <point x="414" y="587"/>
      <point x="360" y="602"/>
      <point x="289" y="602" type="curve" smooth="yes"/>
      <point x="125" y="602"/>
      <point x="24" y="498"/>
      <point x="24" y="362" type="curve" smooth="yes"/>
      <point x="24" y="218"/>
      <point x="109" y="113"/>
    </contour>
    <contour>
      <point x="462" y="-37" type="line"/>
      <point x="639" y="68" type="line"/>
      <point x="639" y="218" type="line"/>
      <point x="375" y="90" type="line"/>
    </contour>
    <contour>
      <point x="453" y="164" type="curve" smooth="yes"/>
      <point x="500" y="164"/>
      <point x="528" y="192"/>
      <point x="528" y="245" type="curve" smooth="yes"/>
      <point x="528" y="260" type="line"/>
      <point x="640" y="260" type="line"/>
      <point x="640" y="398" type="line"/>
      <point x="346" y="398" type="line" smooth="yes"/>
      <point x="301" y="398"/>
      <point x="275" y="372"/>
      <point x="275" y="333" type="curve" smooth="yes"/>
      <point x="275" y="252"/>
      <point x="374" y="164"/>
    </contour>
  </outline>
</glyph>
<glyph name="bharastemgujr" format="2">
  <advance width="891"/>
  <outline>
    <contour>
      <point x="222" y="27" type="curve"/>
      <point x="333" y="132" type="line"/>
      <point x="251" y="199"/>
      <point x="201" y="258"/>
      <point x="201" y="358" type="curve" smooth="yes"/>
      <point x="201" y="420"/>
      <point x="235" y="464"/>
      <point x="288" y="464" type="curve" smooth="yes"/>
      <point x="313" y="464"/>
      <point x="327" y="456"/>
      <point x="337" y="444" type="curve" smooth="yes"/>
      <point x="351" y="427"/>
      <point x="353" y="401"/>
      <point x="353" y="373" type="curve" smooth="yes"/>
      <point x="353" y="338" type="line"/>
      <point x="530" y="338" type="line"/>
      <point x="530" y="368" type="line" smooth="yes"/>
      <point x="530" y="458"/>
      <point x="505" y="512"/>
      <point x="459" y="550" type="curve" smooth="yes"/>
      <point x="414" y="587"/>
      <point x="360" y="602"/>
      <point x="289" y="602" type="curve" smooth="yes"/>
      <point x="125" y="602"/>
      <point x="24" y="498"/>
      <point x="24" y="362" type="curve" smooth="yes"/>
      <point x="24" y="218"/>
      <point x="109" y="113"/>
    </contour>
    <contour>
      <point x="462" y="-22" type="line"/>
      <point x="698" y="122" type="line"/>
      <point x="669" y="249" type="line"/>
      <point x="639" y="233" type="line"/>
      <point x="375" y="105" type="line"/>
    </contour>
    <contour>
      <point x="453" y="169" type="curve" smooth="yes"/>
      <point x="500" y="169"/>
      <point x="528" y="197"/>
      <point x="528" y="250" type="curve" smooth="yes"/>
      <point x="528" y="265" type="line"/>
      <point x="664" y="265" type="line"/>
      <point x="664" y="403" type="line"/>
      <point x="346" y="403" type="line" smooth="yes"/>
      <point x="301" y="403"/>
      <point x="275" y="377"/>
      <point x="275" y="338" type="curve" smooth="yes"/>
      <point x="275" y="257"/>
      <point x="374" y="169"/>
    </contour>
    <contour>
      <point x="639" y="-43" type="line"/>
      <point x="816" y="-43" type="line"/>
      <point x="816" y="593" type="line"/>
      <point x="639" y="603" type="line"/>
    </contour>
  </outline>
</glyph>
<glyph name="caprehalfgujr" format="2">
  <advance width="493"/>
  <outline>
    <contour>
      <point x="357" y="101" type="curve" smooth="yes"/>
      <point x="437" y="101"/>
      <point x="494" y="124"/>
      <point x="539" y="159" type="curve"/>
      <point x="476" y="284" type="line"/>
      <point x="445" y="259"/>
      <point x="411" y="239"/>
      <point x="351" y="239" type="curve" smooth="yes"/>
      <point x="311" y="239"/>
      <point x="285" y="244"/>
      <point x="255" y="261" type="curve"/>
      <point x="234" y="316" type="line"/>
      <point x="204" y="350"/>
      <point x="170" y="379"/>
      <point x="108" y="379" type="curve" smooth="yes"/>
      <point x="54" y="379"/>
      <point x="17" y="346"/>
      <point x="17" y="295" type="curve" smooth="yes"/>
      <point x="17" y="230"/>
      <point x="69" y="201"/>
      <point x="141" y="201" type="curve" smooth="yes"/>
      <point x="297" y="201"/>
      <point x="409" y="295"/>
      <point x="409" y="414" type="curve" smooth="yes"/>
      <point x="409" y="530"/>
      <point x="321" y="602"/>
      <point x="181" y="602" type="curve" smooth="yes"/>
      <point x="125" y="602"/>
      <point x="80" y="592"/>
      <point x="27" y="572" type="curve"/>
      <point x="77" y="446" type="line"/>
      <point x="105" y="458"/>
      <point x="129" y="464"/>
      <point x="157" y="464" type="curve" smooth="yes"/>
      <point x="205" y="464"/>
      <point x="232" y="442"/>
      <point x="232" y="405" type="curve" smooth="yes"/>
      <point x="232" y="362"/>
      <point x="200" y="338"/>
      <point x="138" y="331" type="curve"/>
      <point x="128" y="274" type="line"/>
      <point x="100" y="247" type="line"/>
      <point x="145" y="170"/>
      <point x="225" y="101"/>
    </contour>
  </outline>
</glyph>
<glyph name="caragujr" format="2">
  <advance width="743"/>
  <outline>
    <contour>
      <point x="365" y="122" type="curve" smooth="yes"/>
      <point x="425" y="122"/>
      <point x="475" y="142"/>
      <point x="512" y="168" type="curve"/>
      <point x="512" y="333" type="line"/>
      <point x="477" y="283"/>
      <point x="429" y="246"/>
      <point x="351" y="246" type="curve" smooth="yes"/>
      <point x="321" y="246"/>
      <point x="286" y="251"/>
      <point x="262" y="265" type="curve"/>
      <point x="234" y="316" type="line"/>
      <point x="204" y="350"/>
      <point x="167" y="379"/>
      <point x="108" y="379" type="curve" smooth="yes"/>
      <point x="54" y="379"/>
      <point x="17" y="346"/>
      <point x="17" y="295" type="curve" smooth="yes"/>
      <point x="17" y="230"/>
      <point x="69" y="201"/>
      <point x="141" y="201" type="curve" smooth="yes"/>
      <point x="297" y="201"/>
      <point x="409" y="295"/>
      <point x="409" y="414" type="curve" smooth="yes"/>
      <point x="409" y="530"/>
      <point x="321" y="602"/>
      <point x="181" y="602" type="curve" smooth="yes"/>
      <point x="125" y="602"/>
      <point x="80" y="592"/>
      <point x="27" y="572" type="curve"/>
      <point x="77" y="446" type="line"/>
      <point x="105" y="458"/>
      <point x="129" y="464"/>
      <point x="157" y="464" type="curve" smooth="yes"/>
      <point x="205" y="464"/>
      <point x="232" y="442"/>
      <point x="232" y="405" type="curve" smooth="yes"/>
      <point x="232" y="362"/>
      <point x="200" y="338"/>
      <point x="138" y="331" type="curve"/>
      <point x="128" y="281" type="line"/>
      <point x="98" y="254" type="line"/>
      <point x="142" y="167"/>
      <point x="243" y="122"/>
    </contour>
    <contour>
      <point x="210" y="-62" type="line"/>
      <point x="517" y="154" type="line"/>
      <point x="421" y="205" type="line"/>
      <point x="363" y="189" type="line"/>
      <point x="110" y="64" type="line"/>
    </contour>
    <contour>
      <point x="687" y="0" type="curve" smooth="yes"/>
      <point x="727" y="0" type="line"/>
      <point x="740" y="138" type="line"/>
      <point x="711" y="138"/>
      <point x="694" y="141"/>
      <point x="683" y="151" type="curve" smooth="yes"/>
      <point x="671" y="162"/>
      <point x="668" y="180"/>
      <point x="668" y="209" type="curve" smooth="yes"/>
      <point x="668" y="592" type="line"/>
      <point x="491" y="602" type="line"/>
      <point x="491" y="194" type="line" smooth="yes"/>
      <point x="491" y="121"/>
      <point x="504" y="73"/>
      <point x="536" y="42" type="curve" smooth="yes"/>
      <point x="567" y="12"/>
      <point x="616" y="0"/>
    </contour>
  </outline>
</glyph>
<glyph name="caraprehalfgujr" format="2">
  <advance width="493"/>
  <outline>
    <contour>
      <point x="365" y="122" type="curve" smooth="yes"/>
      <point x="425" y="122"/>
      <point x="475" y="142"/>
      <point x="512" y="168" type="curve"/>
      <point x="473" y="290" type="line"/>
      <point x="444" y="265"/>
      <point x="409" y="246"/>
      <point x="351" y="246" type="curve" smooth="yes"/>
      <point x="321" y="246"/>
      <point x="286" y="251"/>
      <point x="262" y="265" type="curve"/>
      <point x="234" y="316" type="line"/>
      <point x="204" y="350"/>
      <point x="167" y="379"/>
      <point x="108" y="379" type="curve" smooth="yes"/>
      <point x="54" y="379"/>
      <point x="17" y="346"/>
      <point x="17" y="295" type="curve" smooth="yes"/>
      <point x="17" y="230"/>
      <point x="69" y="201"/>
      <point x="141" y="201" type="curve" smooth="yes"/>
      <point x="297" y="201"/>
      <point x="409" y="295"/>
      <point x="409" y="414" type="curve" smooth="yes"/>
      <point x="409" y="530"/>
      <point x="321" y="602"/>
      <point x="181" y="602" type="curve" smooth="yes"/>
      <point x="125" y="602"/>
      <point x="80" y="592"/>
      <point x="27" y="572" type="curve"/>
      <point x="77" y="446" type="line"/>
      <point x="105" y="458"/>
      <point x="129" y="464"/>
      <point x="157" y="464" type="curve" smooth="yes"/>
      <point x="205" y="464"/>
      <point x="232" y="442"/>
      <point x="232" y="405" type="curve" smooth="yes"/>
      <point x="232" y="362"/>
      <point x="200" y="338"/>
      <point x="138" y="331" type="curve"/>
      <point x="128" y="281" type="line"/>
      <point x="98" y="254" type="line"/>
      <point x="142" y="167"/>
      <point x="243" y="122"/>
    </contour>
    <contour>
      <point x="210" y="-62" type="line"/>
      <point x="539" y="164" type="line"/>
      <point x="473" y="290" type="line"/>
      <point x="441" y="233" type="line"/>
      <point x="363" y="189" type="line"/>
      <point x="110" y="64" type="line"/>
    </contour>
  </outline>
</glyph>
<glyph name="castemgujr" format="2">
  <advance width="743"/>
  <outline>
    <contour>
      <point x="357" y="101" type="curve" smooth="yes"/>
      <point x="417" y="101"/>
      <point x="478" y="118"/>
      <point x="515" y="147" type="curve"/>
      <point x="512" y="326" type="line"/>
      <point x="467" y="263"/>
      <point x="411" y="239"/>
      <point x="351" y="239" type="curve" smooth="yes"/>
      <point x="313" y="239"/>
      <point x="285" y="244"/>
      <point x="255" y="261" type="curve"/>
      <point x="234" y="316" type="line"/>
      <point x="204" y="350"/>
      <point x="167" y="379"/>
      <point x="108" y="379" type="curve" smooth="yes"/>
      <point x="54" y="379"/>
      <point x="17" y="346"/>
      <point x="17" y="295" type="curve" smooth="yes"/>
      <point x="17" y="230"/>
      <point x="69" y="201"/>
      <point x="141" y="201" type="curve" smooth="yes"/>
      <point x="297" y="201"/>
      <point x="409" y="295"/>
      <point x="409" y="414" type="curve" smooth="yes"/>
      <point x="409" y="530"/>
      <point x="321" y="602"/>
      <point x="181" y="602" type="curve" smooth="yes"/>
      <point x="125" y="602"/>
      <point x="80" y="592"/>
      <point x="27" y="572" type="curve"/>
      <point x="77" y="446" type="line"/>
      <point x="105" y="458"/>
      <point x="129" y="464"/>
      <point x="157" y="464" type="curve" smooth="yes"/>
      <point x="205" y="464"/>
      <point x="232" y="442"/>
      <point x="232" y="405" type="curve" smooth="yes"/>
      <point x="232" y="362"/>
      <point x="200" y="338"/>
      <point x="138" y="331" type="curve"/>
      <point x="128" y="274" type="line"/>
      <point x="100" y="247" type="line"/>
      <point x="145" y="170"/>
      <point x="225" y="101"/>
    </contour>
    <contour>
      <point x="491" y="-43" type="line"/>
      <point x="668" y="-43" type="line"/>
      <point x="668" y="592" type="line"/>
      <point x="491" y="602" type="line"/>
    </contour>
  </outline>
</glyph>
<glyph name="chasquishgujr" format="2">
  <advance width="801"/>
  <outline>
    <contour>
      <point x="348" y="105" type="curve" smooth="yes"/>
      <point x="608" y="105"/>
      <point x="776" y="226"/>
      <point x="776" y="401" type="curve" smooth="yes"/>
      <point x="776" y="514"/>
      <point x="707" y="603"/>
      <point x="552" y="603" type="curve" smooth="yes"/>
      <point x="440" y="603"/>
      <point x="365" y="548"/>
      <point x="365" y="463" type="curve" smooth="yes"/>
      <point x="365" y="379"/>
      <point x="430" y="318"/>
      <point x="530" y="290" type="curve"/>
      <point x="600" y="398" type="line"/>
      <point x="556" y="411"/>
      <point x="521" y="426"/>
      <point x="521" y="452" type="curve" smooth="yes"/>
      <point x="521" y="471"/>
      <point x="532" y="480"/>
      <point x="555" y="480" type="curve" smooth="yes"/>
      <point x="584" y="480"/>
      <point x="609" y="455"/>
      <point x="609" y="414" type="curve" smooth="yes"/>
      <point x="609" y="309"/>
      <point x="514" y="238"/>
      <point x="348" y="238" type="curve" smooth="yes"/>
      <point x="284" y="238"/>
      <point x="234" y="247"/>
      <point x="234" y="277" type="curve" smooth="yes"/>
      <point x="234" y="301"/>
      <point x="261" y="308"/>
      <point x="299" y="308" type="curve" smooth="yes"/>
      <point x="313" y="308"/>
      <point x="330" y="307"/>
      <point x="343" y="306" type="curve"/>
      <point x="358" y="430" type="line"/>
      <point x="338" y="433"/>
      <point x="320" y="434"/>
      <point x="293" y="434" type="curve" smooth="yes"/>
      <point x="166" y="434"/>
      <point x="64" y="375"/>
      <point x="64" y="279" type="curve" smooth="yes"/>
      <point x="64" y="175"/>
      <point x="159" y="105"/>
    </contour>
    <contour>
      <point x="144" y="304" type="curve"/>
      <point x="264" y="382" type="line"/>
      <point x="223" y="393"/>
      <point x="193" y="416"/>
      <point x="193" y="442" type="curve" smooth="yes"/>
      <point x="193" y="468"/>
      <point x="219" y="480"/>
      <point x="255" y="480" type="curve" smooth="yes"/>
      <point x="272" y="480"/>
      <point x="291" y="479"/>
      <point x="311" y="476" type="curve"/>
      <point x="334" y="592" type="line"/>
      <point x="298" y="599"/>
      <point x="263" y="603"/>
      <point x="224" y="603" type="curve" smooth="yes"/>
      <point x="113" y="603"/>
      <point x="28" y="563"/>
      <point x="28" y="468" type="curve" smooth="yes"/>
      <point x="28" y="390"/>
      <point x="82" y="338"/>
    </contour>
  </outline>
</glyph>
<glyph name="chavagujr" format="2">
  <advance width="799"/>
  <outline>
    <contour>
      <point x="339" y="51" type="curve" smooth="yes"/>
      <point x="608" y="51"/>
      <point x="774" y="199"/>
      <point x="774" y="390" type="curve" smooth="yes"/>
      <point x="774" y="524"/>
      <point x="683" y="602"/>
      <point x="545" y="602" type="curve" smooth="yes"/>
      <point x="431" y="602"/>
      <point x="365" y="540"/>
      <point x="365" y="448" type="curve" smooth="yes"/>
      <point x="365" y="357"/>
      <point x="427" y="294"/>
      <point x="526" y="269" type="curve"/>
      <point x="588" y="388" type="line"/>
      <point x="544" y="401"/>
      <point x="516" y="417"/>
      <point x="516" y="444" type="curve" smooth="yes"/>
      <point x="516" y="461"/>
      <point x="529" y="472"/>
      <point x="547" y="472" type="curve" smooth="yes"/>
      <point x="580" y="472"/>
      <point x="600" y="439"/>
      <point x="600" y="396" type="curve" smooth="yes"/>
      <point x="600" y="281"/>
      <point x="501" y="192"/>
      <point x="337" y="192" type="curve" smooth="yes"/>
      <point x="274" y="192"/>
      <point x="239" y="202"/>
      <point x="239" y="235" type="curve" smooth="yes"/>
      <point x="239" y="259"/>
      <point x="260" y="275"/>
      <point x="306" y="275" type="curve" smooth="yes"/>
      <point x="323" y="275"/>
      <point x="336" y="274"/>
      <point x="346" y="273" type="curve"/>
      <point x="366" y="406" type="line"/>
      <point x="349" y="408"/>
      <point x="330" y="410"/>
      <point x="291" y="410" type="curve" smooth="yes"/>
      <point x="174" y="410"/>
      <point x="64" y="343"/>
      <point x="64" y="231" type="curve" smooth="yes"/>
      <point x="64" y="122"/>
      <point x="151" y="51"/>
    </contour>
    <contour>
      <point x="132" y="292" type="curve"/>
      <point x="261" y="368" type="line"/>
      <point x="226" y="388"/>
      <point x="200" y="410"/>
      <point x="200" y="436" type="curve" smooth="yes"/>
      <point x="200" y="460"/>
      <point x="221" y="468"/>
      <point x="254" y="468" type="curve" smooth="yes"/>
      <point x="276" y="468"/>
      <point x="297" y="466"/>
      <point x="317" y="462" type="curve"/>
      <point x="343" y="590" type="line"/>
      <point x="307" y="597"/>
      <point x="263" y="602"/>
      <point x="230" y="602" type="curve" smooth="yes"/>
      <point x="113" y="602"/>
      <point x="28" y="562"/>
      <point x="28" y="456" type="curve" smooth="yes"/>
      <point x="28" y="391"/>
      <point x="67" y="340"/>
    </contour>
    <contour>
      <point x="406" y="-241" type="curve" smooth="yes"/>
      <point x="472" y="-241"/>
      <point x="522" y="-221"/>
      <point x="563" y="-192" type="curve"/>
      <point x="525" y="-78" type="line"/>
      <point x="498" y="-105"/>
      <point x="459" y="-132"/>
      <point x="416" y="-132" type="curve" smooth="yes"/>
      <point x="388" y="-132"/>
      <point x="365" y="-125"/>
      <point x="365" y="-102" type="curve" smooth="yes"/>
      <point x="365" y="-84"/>
      <point x="385" y="-73"/>
      <point x="415" y="-73" type="curve" smooth="yes"/>
      <point x="431" y="-73"/>
      <point x="445" y="-74"/>
      <point x="459" y="-77" type="curve"/>
      <point x="470" y="29" type="line"/>
      <point x="448" y="34"/>
      <point x="424" y="36"/>
      <point x="394" y="36" type="curve" smooth="yes"/>
      <point x="293" y="36"/>
      <point x="233" y="-17"/>
      <point x="233" y="-100" type="curve" smooth="yes"/>
      <point x="233" y="-185"/>
      <point x="299" y="-241"/>
    </contour>
    <contour>
      <point x="672" y="-271" type="curve" smooth="yes"/>
      <point x="690" y="-271" type="line"/>
      <point x="701" y="-157" type="line"/>
      <point x="679" y="-156"/>
      <point x="665" y="-155"/>
      <point x="652" y="-142" type="curve" smooth="yes"/>
      <point x="644" y="-134"/>
      <point x="640" y="-116"/>
      <point x="640" y="-88" type="curve" smooth="yes"/>
      <point x="640" y="173" type="line"/>
      <point x="504" y="143" type="line"/>
      <point x="504" y="-94" type="line" smooth="yes"/>
      <point x="504" y="-160"/>
      <point x="510" y="-191"/>
      <point x="534" y="-221" type="curve" smooth="yes"/>
      <point x="558" y="-251"/>
      <point x="597" y="-271"/>
    </contour>
  </outline>
</glyph>
